<?xml version="1.0" encoding="utf-8"?>
<!-- Generator: Adobe Illustrator 22.1.0, SVG Export Plug-In . SVG Version: 6.00 Build 0)  -->
<svg version="1.1" id="Layer_2_1_" xmlns="http://www.w3.org/2000/svg" xmlns:xlink="http://www.w3.org/1999/xlink" x="0px" y="0px"
	 viewBox="0 0 1904.9 333.7" style="enable-background:new 0 0 1904.9 333.7;" xml:space="preserve">
<style type="text/css">
	.st0{fill:#FFFFFF;}
	.st1{fill:url(#SVGID_1_);}
</style>
<path class="st0" d="M533.5,179.3c0,2.1,0,28.7,0.4,33.7h7c5.8,0,11.4,0,18-0.6c6.7-0.6,15.1-15.4,16.9-20c0.4-0.7,0.7-1.1,1.5-0.7
	l2.5,1c0.4,0.2,0.4,0.4,0.2,1.1c-0.4,0.9-5.3,21.2-6,24.6c-3.2-0.2-38.7-0.4-50.1-0.4c-12.2,0-16.7,0.4-18.3,0.4c-0.9,0-1-0.2-1-1.1
	v-3.1c0-0.6,0.1-0.9,0.9-0.9h3.8c4.6,0,5.3-1.7,5.3-3.1c0-2.3,0.4-33.1,0.4-40.6v-6.9c0-7.9-0.2-21-0.4-22.9
	c-0.2-3.2-0.9-4.4-3.7-4.4h-4.6c-0.7,0-0.9-0.6-0.9-1.2v-3c0-0.6,0.1-0.9,0.9-0.9c1.4,0,5.8,0.4,17,0.4c14.4,0,19.6-0.4,20.7-0.4
	c1,0,1.1,0.4,1.1,1.2v2.8c0,0.6-0.2,1-1.2,1h-5.8c-3.8,0-4.3,1.2-4.3,4.6c0,1.6-0.4,20.2-0.4,28.9L533.5,179.3L533.5,179.3z"/>
<path class="st0" d="M597.8,141.6c0-4.3-0.9-6.3-3.5-6.3h-5.8c-0.7,0-0.9-0.3-0.9-1.1v-3c0-0.7,0.1-1,1.1-1c1.2,0,7.3,0.4,20.2,0.4
	c10.9,0,16.8-0.4,18.1-0.4c1,0,1.1,0.2,1.1,1v3.2c0,0.6-0.1,0.9-1,0.9h-4.2c-4.2,0-6.3,2.3-6.5,4.8c-0.1,1.4-0.2,9.8-0.2,16v8.1
	c0,6.5,0.5,22.2,0.6,26.2c0.1,5.7,1.2,11.2,3.9,14.7c4.1,4.9,9.9,6.9,15.4,6.9c4.6,0,11.2-2.3,14.6-5.4c4.9-4.4,7.8-11.2,7.8-20.1
	v-19c0-10.4-1.2-23.9-1.7-26.8c-0.5-3.2-2.5-5.4-4.6-5.4h-3.9c-0.7,0-0.9-0.4-0.9-1v-3.2c0-0.6,0.1-0.9,0.9-0.9
	c1.2,0,6.9,0.4,15.3,0.4c6.7,0,10.6-0.4,11.7-0.4c1.1,0,1.2,0.5,1.2,1.1v2.7c0,0.7-0.1,1.2-0.7,1.2H672c-4.7,0-5.1,3.5-5.3,4.7
	c-0.2,1.7-0.2,18.8-0.2,20.5c0,1.7-0.2,23.3-0.6,28.1c-0.7,10.1-4.1,17.9-10.5,23.6c-5.4,4.8-13.8,7.7-21.8,7.7
	c-5.8,0-13.7-0.9-18.9-3.1c-5.9-2.6-11.4-8.4-14.3-16.3c-2.1-5.3-2.6-13.6-2.6-29.7L597.8,141.6L597.8,141.6z"/>
<path class="st0" d="M720.2,170.7c5.7,0,11.1-0.4,12.6-0.7c2.1-0.5,3.8-1.6,5.7-3.8c1.4-1.8,2.8-5.3,2.8-7.7c0-0.9,0.4-1.1,1-1.1
	l3.3,0.4c0.6,0.1,1.1,0.2,1,1c-0.4,2.1-0.4,8.5-0.4,12.8c0,5.5,0.5,11.5,0.7,14.1c0.1,0.7-0.4,0.9-1,1l-3,0.6c-0.5,0.1-0.7-0.1-1-1
	c-0.5-2-1.7-4.8-2.5-6.3c-1.4-2.3-4.3-3.9-6.8-4.3c-3.3-0.5-7.2-0.7-12.6-0.7v7.4c0,6.7,0.6,18.6,0.6,20.9c0,6.4,1.4,8.6,3,9.4
	c1.9,0.7,4.2,1.1,10.4,1.1c2.1,0,7.3-0.1,9.9-0.4c2.5-0.2,6.2-1.5,9.4-4.1s10.1-10.2,12.6-13.2c0.5-0.5,0.9-0.6,1.2-0.4l2.1,1.2
	c0.5,0.2,0.6,0.6,0.5,1l-5.6,18.6c-0.4,1.1-1.2,1.9-2.7,1.9c-0.6,0-3.3-0.1-11.2-0.2c-8,0-21.1-0.1-42.4-0.1c-4.6,0-8,0.1-10.5,0.1
	c-2.6,0.1-4.2,0.2-5.3,0.2c-0.9,0-1.1-0.4-1.1-1.4v-2.6c0-0.7,0.4-1.1,1.2-1.1h3.7c5.7,0,6.2-0.9,6.2-5.2v-41.3
	c0-10.2-0.2-25.4-0.4-26.7c-0.5-3.9-1.7-4.8-5.1-4.8h-4.8c-0.5,0-0.6-0.4-0.6-1.2v-3c0-0.4,0.1-0.9,0.9-0.9c2.7,0,7,0.4,18.3,0.4
	l43.3-0.1c2,0,4.3-0.2,4.9-0.2c0.6,0,0.9,0.2,1,0.6c0.5,1.7,4.6,18.6,5.1,19.9c0.2,0.6,0.2,0.9-0.4,1.2l-2,1
	c-0.5,0.2-1.1,0.1-1.5-0.5c-0.6-1-11.7-12.1-14.6-13.8c-2.6-1.6-6-3.2-9.4-3.3l-16.3-0.5L720.2,170.7z"/>
<path class="st0" d="M401.3,148.7c0-6-0.3-25.6-0.5-28.2c-0.5-9.4-3.1-9.7-8.4-9.7h-5.2c-1.1,0-1.1-0.2-1.1-1.5v-3.7
	c0-1,0.2-1.4,1.3-1.4c2.1,0,9.8,0.5,25.2,0.5c5.2,0,14.8-0.5,25.8-0.5c11.6,0,21.9,1.1,27.6,4.4c9.2,5,12.4,12.4,12.4,21.9
	c0,10.6-6.5,21-23.5,26.6v0.3c20,5.2,30.5,14.8,30.5,31.9c0,8.7-4.8,20.6-12.6,24.5c-6.6,3.4-17.9,6-37.9,6c-1.5,0-5.6-0.3-10.2-0.5
	c-4.7-0.3-9.7-0.5-12.7-0.5c-8.1,0-13.4,0.2-16.9,0.2c-3.4,0.2-5.2,0.3-6.3,0.3c-1.6,0-1.8-0.5-1.8-1.8V214c0-1,0.2-1.3,1.6-1.3h5.6
	c4.8,0,5.6-1.9,6.3-6.8c0.5-3.7,0.8-25,0.8-38.2L401.3,148.7L401.3,148.7z M424.8,155.3c6.6,0.6,16.9-0.3,21.6-4.5
	c5.3-4.7,7.7-11.9,7.7-19c0-6.1-1.9-12.6-6.6-16.3c-5.5-4.4-13.4-5.8-15.2-5.8c-3.4,0-6.9,0.2-7.1,2.7c-0.3,3.2-0.5,17.3-0.5,30.6
	v12.3L424.8,155.3L424.8,155.3z M424.8,192.7c0,15.3,3.5,21.6,12.1,21.6c11.5,0,22.3-5.6,22.3-25.8c0-13.1-5.8-21.6-14.5-25
	c-8.1-3.1-15.8-2.7-19.8-2.7v31.9H424.8z"/>
<g>
	<path class="st0" d="M968.8,172.2c5.7,0,11.1-0.4,12.6-0.7c2.1-0.5,3.8-1.6,5.7-3.8c1.4-1.9,2.8-5.3,2.8-7.7c0-0.9,0.4-1.1,1-1.1
		l3.3,0.4c0.6,0.1,1.1,0.2,1,1c-0.4,2.1-0.4,8.5-0.4,12.8c0,5.5,0.5,11.5,0.7,14.1c0.1,0.7-0.4,0.9-1,1l-3,0.6c-0.5,0.1-0.7-0.1-1-1
		c-0.5-2-1.7-4.8-2.5-6.3c-1.4-2.3-4.3-3.9-6.8-4.3c-3.3-0.5-7.2-0.7-12.6-0.7v7.4c0,6.7,0.6,18.6,0.6,20.9c0,6.4,1.4,8.6,3,9.4
		c1.9,0.7,4.2,1.1,10.4,1.1c2.1,0,7.3-0.1,9.9-0.4c2.5-0.2,6.2-1.5,9.4-4.1s10.1-10.2,12.6-13.2c0.5-0.5,0.9-0.6,1.2-0.4l2.1,1.2
		c0.5,0.2,0.6,0.6,0.5,1l-5.6,18.6c-0.4,1.1-1.2,1.9-2.7,1.9c-0.6,0-3.3-0.1-11.2-0.2c-8,0-21.1-0.1-42.4-0.1c-4.6,0-8,0.1-10.5,0.1
		c-2.6,0.1-4.2,0.2-5.3,0.2c-0.9,0-1.1-0.4-1.1-1.4v-2.6c0-0.7,0.4-1.1,1.2-1.1h3.7c5.7,0,6.2-0.9,6.2-5.2v-41.3
		c0-10.2-0.3-25.4-0.4-26.7c-0.5-3.9-1.7-4.8-5.1-4.8h-4.8c-0.5,0-0.6-0.4-0.6-1.2v-3c0-0.4,0.1-0.9,0.9-0.9c2.7,0,7,0.4,18.3,0.4
		l43.3-0.1c2,0,4.3-0.2,4.9-0.2c0.6,0,0.9,0.2,1,0.6c0.5,1.7,4.6,18.6,5.1,19.9c0.2,0.6,0.2,0.9-0.4,1.2l-2,1
		c-0.5,0.2-1.1,0.1-1.5-0.5c-0.6-1-11.7-12.1-14.6-13.8c-2.6-1.6-6.1-3.2-9.4-3.3l-16.3-0.5L968.8,172.2z"/>
	<path class="st0" d="M1065,137.8h-4.3c-3.9,0-11.4,0.1-16.5,2c-2.7,2-8.1,9.5-11.2,13.9c-0.4,0.6-0.7,1-1.2,0.9l-2.7-1
		c-0.5-0.1-0.6-0.7-0.5-1.1c1.4-5.2,5.4-21.5,5.9-23.9c0.4-1.6,1-2.1,1.8-2.1c0.9,0,1.2,0.5,2.3,1.8c1.4,1.7,3.7,2.8,8.1,3.1
		c6.5,0.4,11.7,0.7,24.6,0.7h7.2c13.4,0,18.8-0.5,23.9-0.7c2.7-0.1,7.5-1.6,9-3.1c1.2-1.2,2-1.8,2.8-1.8c0.9,0,1.2,0.5,1.5,2
		c0.4,2.7,2.7,18,3.7,24.6c0.1,0.5-0.1,1-0.5,1.1l-2.6,1c-0.5,0.1-0.7-0.2-1.2-1.1c-2.7-4.4-7.5-10.9-10.6-13.8
		c-3.1-1.9-14.1-2.3-16.9-2.3h-4.1v33.9c0,1.7,0,36.3,0.1,38.1c0.3,3.1,1.2,4.9,4.2,4.9h5.6c1.1,0,1.2,0.4,1.2,1.2v2.8
		c0,0.6-0.1,1-1.2,1c-1.2,0-5.2-0.4-18.9-0.4c-13.1,0-18.3,0.4-20,0.4c-1,0-1.1-0.5-1.1-1.5V216c0-0.9,0.1-1.2,0.9-1.2h6.3
		c2.5,0,3.9-1.5,4.2-3.7c0.3-2.6,0.3-40.5,0.3-42.8v-30.5H1065z"/>
	<path class="st0" d="M1168,137.8h-4.3c-4,0-11.4,0.1-16.5,2c-2.7,2-8.1,9.5-11.2,13.9c-0.4,0.6-0.7,1-1.2,0.9l-2.7-1
		c-0.5-0.1-0.6-0.7-0.5-1.1c1.4-5.2,5.4-21.5,5.9-23.9c0.4-1.6,1-2.1,1.8-2.1c0.9,0,1.2,0.5,2.3,1.8c1.4,1.7,3.7,2.8,8.1,3.1
		c6.5,0.4,11.7,0.7,24.6,0.7h7.2c13.5,0,18.8-0.5,23.9-0.7c2.7-0.1,7.5-1.6,9-3.1c1.2-1.2,2-1.8,2.8-1.8c0.9,0,1.2,0.5,1.5,2
		c0.4,2.7,2.7,18,3.7,24.6c0.1,0.5-0.1,1-0.5,1.1l-2.6,1c-0.5,0.1-0.7-0.2-1.2-1.1c-2.7-4.4-7.5-10.9-10.6-13.8
		c-3.1-1.9-14.1-2.3-16.9-2.3h-4.1v33.9c0,1.7,0,36.3,0.1,38.1c0.2,3.1,1.2,4.9,4.2,4.9h5.6c1.1,0,1.2,0.4,1.2,1.2v2.8
		c0,0.6-0.1,1-1.2,1c-1.2,0-5.2-0.4-18.9-0.4c-13.1,0-18.3,0.4-20,0.4c-1,0-1.1-0.5-1.1-1.5V216c0-0.9,0.1-1.2,0.9-1.2h6.3
		c2.5,0,3.9-1.5,4.2-3.7c0.2-2.6,0.2-40.5,0.2-42.8L1168,137.8L1168,137.8z"/>
	<path class="st0" d="M1265.1,172.2c5.7,0,11.1-0.4,12.6-0.7c2.1-0.5,3.8-1.6,5.7-3.8c1.4-1.9,2.8-5.3,2.8-7.7c0-0.9,0.4-1.1,1-1.1
		l3.3,0.4c0.6,0.1,1.1,0.2,1,1c-0.4,2.1-0.4,8.5-0.4,12.8c0,5.5,0.5,11.5,0.7,14.1c0.1,0.7-0.4,0.9-1,1l-3,0.6c-0.5,0.1-0.7-0.1-1-1
		c-0.5-2-1.7-4.8-2.5-6.3c-1.4-2.3-4.3-3.9-6.8-4.3c-3.3-0.5-7.2-0.7-12.6-0.7v7.4c0,6.7,0.6,18.6,0.6,20.9c0,6.4,1.4,8.6,3,9.4
		c1.8,0.7,4.2,1.1,10.4,1.1c2.1,0,7.3-0.1,9.9-0.4c2.5-0.2,6.2-1.5,9.4-4.1c3.2-2.6,10.1-10.2,12.6-13.2c0.5-0.5,0.9-0.6,1.2-0.4
		l2.1,1.2c0.5,0.2,0.6,0.6,0.5,1L1309,218c-0.4,1.1-1.2,1.9-2.7,1.9c-0.6,0-3.3-0.1-11.2-0.2c-8,0-21.1-0.1-42.4-0.1
		c-4.6,0-8,0.1-10.5,0.1c-2.6,0.1-4.2,0.2-5.3,0.2c-0.9,0-1.1-0.4-1.1-1.4v-2.6c0-0.7,0.4-1.1,1.2-1.1h3.7c5.7,0,6.2-0.9,6.2-5.2
		v-41.3c0-10.2-0.2-25.4-0.4-26.7c-0.5-3.9-1.7-4.8-5.1-4.8h-4.8c-0.5,0-0.6-0.4-0.6-1.2v-3c0-0.4,0.1-0.9,0.9-0.9
		c2.7,0,7,0.4,18.3,0.4l43.3-0.1c2,0,4.3-0.2,4.9-0.2s0.9,0.2,1,0.6c0.5,1.7,4.6,18.6,5.1,19.9c0.2,0.6,0.2,0.9-0.4,1.2l-2,1
		c-0.5,0.2-1.1,0.1-1.5-0.5c-0.6-1-11.7-12.1-14.6-13.8c-2.6-1.6-6-3.2-9.4-3.3l-16.3-0.5L1265.1,172.2z"/>
	<path class="st0" d="M1337.9,163.3c0-9.1,0-17-0.1-20.4c-0.1-4.1-1.7-6.2-3.4-6.2h-4.9c-0.6,0-0.7-0.4-0.7-0.9v-3.3
		c0-0.6,0.1-0.9,0.7-0.9c1.1,0,4.9,0.4,18.4,0.4c6.9,0,17.8-0.4,22.8-0.4c9.6,0,16.8,3.5,21.8,8.1c4.4,4.1,7,8.9,7,13.4
		c0,15.7-11.7,22.7-22.6,23.7v0.9c3.8,1.2,5.8,3.6,8.1,6.5c1.6,2,8.4,13,9.4,14.4c0.7,1.1,7.4,10.5,9.9,13.3c1.5,1.6,6.2,2.6,9,2.6
		c0.9,0,1,0.5,1,1v3c0,0.7-0.1,1.1-1,1.1c-1,0-4.2-0.4-13.7-0.4c-3.6,0-8.1,0.2-11.7,0.4c-3.7-2.8-11.4-17.2-13.5-21.3
		c-4.2-8.4-9.3-17.5-15.2-17.5h-4.2v6.3c0,7.3,0.4,21.1,0.6,22.7c0.2,2.6,1.2,4.8,3.1,4.8h5.1c0.9,0,1,0.4,1,1v3
		c0,0.9-0.1,1.1-2,1.1c-0.1,0-3.2-0.4-16.2-0.4c-13.1,0-15.9,0.4-17.3,0.4c-1,0-1-0.4-1-1.2v-2.8c0-0.6,0-1,0.6-1h3.7
		c2.7,0,4.9-0.9,4.9-4c0.2-12.2,0.2-23.8,0.2-35.5v-11.9L1337.9,163.3L1337.9,163.3z M1355.2,176.6c2.3,0.1,3.8,0.1,4.9,0.1
		c16.3,0,20.1-15.5,20.1-21.3c0-5.7-2-11.1-4.7-13.8c-4.4-3.9-10-5.4-13.7-5.4c-2.1,0-3.7,0.2-4.7,1.1c-0.7,0.5-1.1,1.9-1.4,3.3
		L1355.2,176.6z"/>
	<path class="st0" d="M864.1,168.8c0,2.7,0,37.6,0.5,44h9.2c7.6,0,14.8,0,23.5-0.8s19.7-20.2,22.1-26.1c0.5-1,1-1.5,1.9-1l3.2,1.3
		c0.5,0.3,0.5,0.5,0.3,1.5c-0.5,1.1-6.9,27.7-7.9,32.1c-4.2-0.3-50.6-0.5-65.5-0.5c-16,0-21.8,0.5-23.9,0.5c-1.1,0-1.3-0.3-1.3-1.5
		v-4c0-0.8,0.2-1.1,1.1-1.1h5c6,0,6.9-2.3,6.9-4c0-3.1,0.5-43.2,0.5-53.1v-9c0-10.3-0.3-27.4-0.5-30c-0.3-4.2-1.1-5.8-4.8-5.8h-6
		c-1,0-1.1-0.8-1.1-1.6v-3.9c0-0.8,0.2-1.1,1.1-1.1c1.8,0,7.6,0.5,22.3,0.5c18.9,0,25.6-0.5,27.1-0.5c1.3,0,1.5,0.5,1.5,1.6v3.7
		c0,0.8-0.3,1.3-1.6,1.3h-7.6c-5,0-5.6,1.6-5.6,6c0,2.1-0.5,26.4-0.5,37.7L864.1,168.8L864.1,168.8z"/>
</g>
<g>
	<path class="st0" d="M1601.3,167.4c0-3-0.4-25.2-0.5-26.8c-0.2-3-1.5-4.2-4.1-4.2h-5.9c-0.6,0-1-0.3-1-0.7v-3.6
		c0-0.5,0.4-0.7,0.9-0.7c1.5,0,7.8,0.4,19.9,0.4c12.6,0,16.5-0.4,18.3-0.4c0.6,0,0.9,0.4,0.9,1.1v3.1c0,0.6-0.4,0.9-1,0.9h-3.6
		c-3.1,0-4.9,1-4.9,3.2c0,1.2-0.4,28.5-0.4,30v9.5c0,1.2,0.4,29.7,0.4,30.8c0,3.8,1.8,4.4,4.2,4.4h5.1c0.6,0,1,0.2,1,0.9v3.5
		c0,0.5-0.4,0.7-1.1,0.7c-1.5,0-6.4-0.4-18.1-0.4c-13,0-18.3,0.4-19.6,0.4c-0.6,0-1-0.2-1-1v-3.3c0-0.5,0.4-0.7,1-0.7h3.6
		c2.5,0,5.1-0.4,5.6-3.3c0.2-1.8,0.6-28.5,0.6-35v-8.8L1601.3,167.4L1601.3,167.4z"/>
	<path class="st0" d="M1658.1,165.4c0-4.6-0.2-19.6-0.4-21.6c-0.4-7.2-2.3-7.4-6.4-7.4h-3.9c-0.9,0-0.9-0.1-0.9-1.1v-2.8
		c0-0.7,0.1-1.1,1-1.1c1.6,0,7.5,0.4,19.3,0.4c3.9,0,11.4-0.4,19.7-0.4c8.9,0,16.8,0.9,21.1,3.3c7,3.8,9.5,9.5,9.5,16.8
		c0,8.1-4.9,16-18,20.4v0.2c15.3,3.9,23.3,11.4,23.3,24.4c0,6.7-3.7,15.8-9.6,18.8c-5.1,2.6-13.7,4.6-29,4.6c-1.1,0-4.3-0.3-7.8-0.4
		c-3.6-0.2-7.4-0.4-9.7-0.4c-6.2,0-10.2,0.1-13,0.1c-2.6,0.1-3.9,0.2-4.8,0.2c-1.2,0-1.4-0.4-1.4-1.4v-2.7c0-0.7,0.1-1,1.2-1h4.3
		c3.7,0,4.3-1.5,4.8-5.2c0.4-2.8,0.6-19.1,0.6-29.2v-14.5L1658.1,165.4L1658.1,165.4z M1676.1,170.4c5.1,0.5,13-0.2,16.5-3.5
		c4.1-3.6,5.9-9.1,5.9-14.6c0-4.7-1.5-9.6-5.1-12.5c-4.2-3.3-10.2-4.4-11.6-4.4c-2.6,0-5.3,0.1-5.4,2.1c-0.2,2.5-0.4,13.2-0.4,23.4
		L1676.1,170.4L1676.1,170.4z M1676.1,199.1c0,11.7,2.7,16.5,9.3,16.5c8.8,0,17-4.3,17-19.7c0-10-4.4-16.5-11.1-19.1
		c-6.2-2.3-12.1-2.1-15.2-2.1L1676.1,199.1L1676.1,199.1z"/>
	<path class="st0" d="M1766,180.4c0,2.1,0,28.7,0.4,33.7h7c5.8,0,11.4,0,18-0.6c6.7-0.6,15.1-15.4,16.9-20c0.4-0.7,0.7-1.1,1.5-0.7
		l2.5,1c0.4,0.2,0.4,0.4,0.3,1.1c-0.4,0.9-5.3,21.2-6.1,24.6c-3.2-0.2-38.7-0.4-50.1-0.4c-12.2,0-16.7,0.4-18.3,0.4
		c-0.9,0-1-0.2-1-1.1v-3.1c0-0.6,0.1-0.9,0.9-0.9h3.8c4.6,0,5.3-1.7,5.3-3.1c0-2.3,0.4-33.1,0.4-40.6v-6.9c0-7.9-0.2-21-0.4-22.9
		c-0.2-3.2-0.9-4.4-3.7-4.4h-4.6c-0.7,0-0.9-0.6-0.9-1.2v-3c0-0.6,0.1-0.9,0.9-0.9c1.4,0,5.8,0.4,17,0.4c14.4,0,19.6-0.4,20.7-0.4
		c1,0,1.1,0.4,1.1,1.2v2.8c0,0.6-0.3,1-1.2,1h-5.8c-3.8,0-4.3,1.2-4.3,4.6c0,1.6-0.4,20.2-0.4,28.9L1766,180.4L1766,180.4z"/>
	<path class="st0" d="M1854.4,171.8c5.7,0,11.1-0.4,12.6-0.7c2.1-0.5,3.8-1.6,5.7-3.8c1.4-1.8,2.8-5.3,2.8-7.7c0-0.9,0.4-1.1,1-1.1
		l3.3,0.4c0.6,0.1,1.1,0.2,1,1c-0.4,2.1-0.4,8.5-0.4,12.8c0,5.5,0.5,11.5,0.7,14.1c0.1,0.7-0.4,0.9-1,1l-3,0.6c-0.5,0.1-0.7-0.1-1-1
		c-0.5-2-1.7-4.8-2.5-6.3c-1.4-2.3-4.3-3.9-6.8-4.3c-3.3-0.5-7.2-0.7-12.6-0.7v7.4c0,6.7,0.6,18.6,0.6,20.9c0,6.4,1.4,8.6,3,9.4
		c1.9,0.7,4.2,1.1,10.4,1.1c2.1,0,7.3-0.1,9.9-0.4c2.5-0.2,6.2-1.5,9.4-4.1c3.2-2.6,10.1-10.2,12.6-13.2c0.5-0.5,0.9-0.6,1.2-0.4
		l2.1,1.2c0.5,0.2,0.6,0.6,0.5,1l-5.6,18.6c-0.4,1.1-1.2,1.9-2.7,1.9c-0.6,0-3.3-0.1-11.2-0.2c-8,0-21.1-0.1-42.4-0.1
		c-4.6,0-8,0.1-10.5,0.1c-2.6,0.1-4.2,0.2-5.3,0.2c-0.9,0-1.1-0.4-1.1-1.4v-2.6c0-0.7,0.4-1.1,1.2-1.1h3.7c5.7,0,6.2-0.9,6.2-5.2
		v-41.3c0-10.2-0.3-25.4-0.4-26.7c-0.5-3.9-1.7-4.8-5.1-4.8h-4.8c-0.5,0-0.6-0.4-0.6-1.2v-3c0-0.4,0.1-0.9,0.9-0.9
		c2.7,0,7,0.4,18.3,0.4l43.3-0.1c2,0,4.3-0.2,4.9-0.2s0.9,0.2,1,0.6c0.5,1.7,4.6,18.6,5.1,19.9c0.2,0.6,0.2,0.9-0.4,1.2l-2,1
		c-0.5,0.2-1.1,0.1-1.5-0.5c-0.6-1-11.7-12.1-14.6-13.8c-2.6-1.6-6-3.2-9.4-3.3l-16.3-0.5L1854.4,171.8z"/>
	<path class="st0" d="M1486,148.7c0-6-0.3-25.6-0.5-28.2c-0.5-9.4-3.1-9.7-8.4-9.7h-5.2c-1.1,0-1.1-0.2-1.1-1.5v-3.7
		c0-1,0.2-1.4,1.3-1.4c2.1,0,9.8,0.5,25.2,0.5c5.2,0,14.8-0.5,25.8-0.5c11.6,0,21.9,1.1,27.6,4.4c9.2,5,12.4,12.4,12.4,21.9
		c0,10.6-6.4,21-23.5,26.6v0.3c20,5.2,30.5,14.8,30.5,31.9c0,8.7-4.8,20.6-12.6,24.5c-6.6,3.4-17.9,6-37.9,6
		c-1.5,0-5.6-0.3-10.2-0.5c-4.7-0.3-9.7-0.5-12.7-0.5c-8.1,0-13.4,0.2-16.9,0.2c-3.4,0.2-5.2,0.3-6.3,0.3c-1.6,0-1.8-0.5-1.8-1.8
		V214c0-1,0.2-1.3,1.6-1.3h5.6c4.8,0,5.6-1.9,6.3-6.8c0.5-3.7,0.8-25,0.8-38.2L1486,148.7L1486,148.7z M1509.6,155.3
		c6.6,0.6,16.9-0.3,21.6-4.5c5.3-4.7,7.7-11.9,7.7-19c0-6.1-1.9-12.6-6.6-16.3c-5.5-4.4-13.4-5.8-15.2-5.8c-3.4,0-6.9,0.2-7.1,2.7
		c-0.3,3.2-0.5,17.3-0.5,30.6L1509.6,155.3L1509.6,155.3z M1509.6,192.7c0,15.3,3.5,21.6,12.1,21.6c11.4,0,22.3-5.6,22.3-25.8
		c0-13.1-5.8-21.6-14.5-25c-8.1-3.1-15.8-2.7-19.8-2.7L1509.6,192.7L1509.6,192.7z"/>
</g>
<g>
	<path class="st0" d="M162.2,306.3l-19.7,23l5.7-44.6L5.7,273.1l33-86.1l9.9-0.1l1.8-8.8c-8.8-2-15.3-9.9-15.3-19.4V25.4
		c0-11,8.9-19.9,19.9-19.9h213c11,0,19.9,8.9,19.9,19.9v133.3c0,7.3-4,14-10.3,17.4l2.2,10.3l6.5,0.9l30.9,83L175.5,284l5,46.2
		L162.2,306.3z"/>
	<path class="st0" d="M312.1,267.2l-28.6-76.8l-6.8-0.9l-3.3-15.4c6.3-2.3,10.8-8.3,10.8-15.4V25.4c0-9.1-7.3-16.4-16.4-16.4h-213
		c-9.1,0-16.4,7.3-16.4,16.4v133.3c0,8.9,7.1,16.2,16,16.4l-3.1,15.3L41,190.5L10.6,270L152,281.5l-4.7,36.7l14.9-17.4l13.4,17.4
		l-4-37.3L312.1,267.2z"/>
	<path d="M284.3,158.7c0,9.1-7.3,16.4-16.4,16.4h-213c-9.1,0-16.4-7.3-16.4-16.4V25.4C38.5,16.3,45.8,9,54.9,9h213
		c9.1,0,16.4,7.3,16.4,16.4V158.7z"/>
	
		<radialGradient id="SVGID_1_" cx="48.4283" cy="133.553" r="117.415" gradientTransform="matrix(1.033 0 0 1.0351 109.436 -48.7092)" gradientUnits="userSpaceOnUse">
		<stop  offset="0" style="stop-color:#FFFFFF"/>
		<stop  offset="9.099999e-02" style="stop-color:#FFFFFF"/>
		<stop  offset="0.102" style="stop-color:#FBFCFD"/>
		<stop  offset="0.282" style="stop-color:#C0CAD8"/>
		<stop  offset="0.455" style="stop-color:#8EA0BA"/>
		<stop  offset="0.617" style="stop-color:#677FA3"/>
		<stop  offset="0.766" style="stop-color:#4C6892"/>
		<stop  offset="0.897" style="stop-color:#3B5A88"/>
		<stop  offset="0.995" style="stop-color:#355584"/>
		<stop  offset="1" style="stop-color:#355584"/>
	</radialGradient>
	<polygon class="st1" points="269.1,158.6 53.7,158.6 53.7,24.9 269.1,24.9 	"/>
	<path class="st0" d="M186.7,91.6l-51-29.7l14.2,54.1l9.3-14.2l14.6,18.2l8-8.9l-12.4-16L186.7,91.6z M176,110.2l-2.2,2.7
		l-15.1-17.7l-7.5,10.6l-8.9-35l33.2,19.1L161.4,92L176,110.2z"/>
	<polygon points="175.6,89.8 142.3,70.8 151.2,105.8 158.7,95.1 173.8,112.9 176,110.2 161.4,92 	"/>
	<path class="st0" d="M269.1,160.7H51.6v-138h219.7v138H269.1z M55.8,156.4h211.1V27H55.8V156.4z"/>
	<g>
		<path d="M41.1,190.5L10.6,270L152,281.5l-4.7,36.7l14.9-17.4l13.4,17.4l-4-37.3l140.5-13.7l-28.6-76.8l-6.8-0.9l-5.6-26.4
			c-8.3-6-22.2-15.1-44.9-14.1c-16.9,0.7-39.2,5.5-64.8,24.9c-14.3-10.3-34-25.2-58.2-25.2S57.3,162.5,56,167.5l-4.6,22.9
			L41.1,190.5z"/>
		<path class="st0" d="M68,169l-20.3,75.7c11.9-5.6,32.2-11.6,56.3-8c15.1,2.3,32.1,7.4,48.2,21l8.6-62l7,62.5
			c12.1-10,30.1-18.7,51.2-21.8c16.9-2.4,40.5-1.6,56,7.7L254.8,165c-12.8-7.2-32.2-8.9-50.3-4.7c-12.4,3.5-26.1,9.1-43.1,26
			C141.4,165.6,103.1,146.4,68,169z"/>
	</g>
</g>
</svg>
