<svg width="135" height="40" viewBox="0 0 135 40" fill="none" xmlns="http://www.w3.org/2000/svg">
<path d="M130 0H5C2.23858 0 0 2.23858 0 5V35C0 37.7614 2.23858 40 5 40H130C132.761 40 135 37.7614 135 35V5C135 2.23858 132.761 0 130 0Z" fill="black"/>
<path d="M130 0.8C131.114 0.8 132.182 1.2425 132.97 2.03015C133.758 2.8178 134.2 3.88609 134.2 5V35C134.2 36.1139 133.758 37.1822 132.97 37.9698C132.182 38.7575 131.114 39.2 130 39.2H5C3.88609 39.2 2.8178 38.7575 2.03015 37.9698C1.2425 37.1822 0.8 36.1139 0.8 35V5C0.8 3.88609 1.2425 2.8178 2.03015 2.03015C2.8178 1.2425 3.88609 0.8 5 0.8H130ZM130 0H5C3.67392 0 2.40215 0.526784 1.46447 1.46447C0.526784 2.40215 0 3.67392 0 5L0 35C0 36.3261 0.526784 37.5979 1.46447 38.5355C2.40215 39.4732 3.67392 40 5 40H130C131.326 40 132.598 39.4732 133.536 38.5355C134.473 37.5979 135 36.3261 135 35V5C135 3.67392 134.473 2.40215 133.536 1.46447C132.598 0.526784 131.326 0 130 0V0Z" fill="#A6A6A6"/>
<path d="M47.42 10.24C47.4364 10.6067 47.3784 10.973 47.2495 11.3167C47.1206 11.6604 46.9235 11.9745 46.67 12.24C46.3859 12.5333 46.0431 12.7633 45.664 12.9149C45.2848 13.0666 44.878 13.1364 44.47 13.12C44.0596 13.1291 43.6518 13.054 43.2717 12.8992C42.8915 12.7444 42.5472 12.5132 42.26 12.22C41.9637 11.9325 41.73 11.5869 41.5734 11.2049C41.4168 10.8229 41.3408 10.4127 41.35 9.99997C41.3394 9.58557 41.4147 9.17346 41.5714 8.78964C41.728 8.40583 41.9625 8.05864 42.26 7.76997C42.7055 7.33466 43.2697 7.04071 43.8817 6.92506C44.4938 6.80942 45.1264 6.87723 45.7 7.11997C46.0606 7.26821 46.3822 7.49746 46.64 7.78997L46.11 8.31997C45.9114 8.08075 45.6598 7.89111 45.3751 7.76613C45.0904 7.64114 44.7805 7.58425 44.47 7.59997C44.1576 7.59844 43.8482 7.66 43.5602 7.78096C43.2722 7.90193 43.0116 8.0798 42.794 8.30391C42.5764 8.52803 42.4064 8.79378 42.294 9.08522C42.1816 9.37666 42.1292 9.6878 42.14 9.99997C42.1334 10.4661 42.2651 10.9237 42.5183 11.3151C42.7716 11.7065 43.135 12.0142 43.5629 12.1992C43.9908 12.3843 44.4639 12.4385 44.9225 12.355C45.3812 12.2715 45.8048 12.054 46.14 11.73C46.4483 11.396 46.6289 10.964 46.65 10.51H44.47V9.78997H47.38C47.4024 9.93903 47.4157 10.0893 47.42 10.24Z" fill="white" stroke="white" stroke-width="0.2" stroke-miterlimit="10"/>
<path d="M52 7.74H49.3V9.64H51.76V10.36H49.3V12.26H52V13H48.52V7H52V7.74Z" fill="white" stroke="white" stroke-width="0.2" stroke-miterlimit="10"/>
<path d="M55.28 13H54.51V7.74H52.83V7H57V7.74H55.28V13Z" fill="white" stroke="white" stroke-width="0.2" stroke-miterlimit="10"/>
<path d="M59.9399 13V7H60.7099V13H59.9399Z" fill="white" stroke="white" stroke-width="0.2" stroke-miterlimit="10"/>
<path d="M64.1301 13H63.3601V7.74H61.6801V7H65.8001V7.74H64.1301V13Z" fill="white" stroke="white" stroke-width="0.2" stroke-miterlimit="10"/>
<path d="M73.61 12.2201C73.3212 12.5092 72.9782 12.7385 72.6008 12.895C72.2233 13.0514 71.8186 13.1319 71.41 13.1319C71.0014 13.1319 70.5968 13.0514 70.2193 12.895C69.8418 12.7385 69.4988 12.5092 69.21 12.2201C68.9192 11.9301 68.691 11.5834 68.5396 11.2015C68.3882 10.8196 68.3169 10.4107 68.33 10.0001C68.3169 9.58957 68.3882 9.18068 68.5396 8.79881C68.691 8.41694 68.9192 8.07022 69.21 7.78014C69.4926 7.48294 69.8345 7.24838 70.2134 7.09162C70.5924 6.93487 71.0001 6.85941 71.41 6.87014C71.8194 6.86367 72.2258 6.94106 72.6042 7.09756C72.9825 7.25407 73.3248 7.48636 73.61 7.78014C73.8976 8.07263 74.1236 8.41978 74.2747 8.80107C74.4259 9.18237 74.4991 9.59008 74.49 10.0001C74.5031 10.4107 74.4318 10.8196 74.2804 11.2015C74.1291 11.5834 73.9009 11.9301 73.61 12.2201ZM69.78 11.7201C69.993 11.936 70.2468 12.1074 70.5266 12.2244C70.8065 12.3414 71.1067 12.4017 71.41 12.4017C71.7133 12.4017 72.0136 12.3414 72.2934 12.2244C72.5732 12.1074 72.827 11.936 73.04 11.7201C73.2615 11.4932 73.435 11.2239 73.5502 10.9284C73.6653 10.6328 73.7196 10.3171 73.71 10.0001C73.7144 9.6803 73.6538 9.36289 73.5317 9.06721C73.4096 8.77154 73.2288 8.50376 73 8.28014C72.787 8.06427 72.5332 7.89286 72.2534 7.77586C71.9736 7.65887 71.6733 7.59862 71.37 7.59862C71.0667 7.59862 70.7665 7.65887 70.4867 7.77586C70.2068 7.89286 69.953 8.06427 69.74 8.28014C69.5257 8.51038 69.3595 8.78115 69.2513 9.07653C69.1431 9.37191 69.0951 9.68593 69.11 10.0001C69.1004 10.3171 69.1548 10.6328 69.2699 10.9284C69.385 11.2239 69.5585 11.4932 69.78 11.7201Z" fill="white" stroke="white" stroke-width="0.2" stroke-miterlimit="10"/>
<path d="M75.58 13V7H76.51L79.43 11.67V10.51V7H80.2V13H79.4L76.35 8.11V9.26V13H75.58Z" fill="white" stroke="white" stroke-width="0.2" stroke-miterlimit="10"/>
<path d="M68.14 21.7499C67.2974 21.7519 66.4744 22.0037 65.7749 22.4734C65.0755 22.9432 64.531 23.6098 64.2104 24.3889C63.8898 25.1681 63.8075 26.0248 63.9738 26.8508C64.1401 27.6768 64.5476 28.4349 65.1448 29.0292C65.742 29.6236 66.502 30.0276 67.3287 30.19C68.1555 30.3524 69.0118 30.2661 69.7895 29.9418C70.5671 29.6175 71.2311 29.07 71.6976 28.3683C72.164 27.6667 72.412 26.8425 72.41 25.9999C72.4181 25.4379 72.3131 24.8799 72.1012 24.3593C71.8892 23.8386 71.5746 23.366 71.1762 22.9694C70.7778 22.5729 70.3037 22.2606 69.7821 22.051C69.2604 21.8415 68.702 21.7391 68.14 21.7499ZM68.14 28.5799C67.6236 28.616 67.1082 28.496 66.6609 28.2353C66.2137 27.9747 65.8552 27.5855 65.632 27.1184C65.4088 26.6512 65.3314 26.1278 65.4097 25.6161C65.4879 25.1043 65.7184 24.628 66.0709 24.249C66.4235 23.8699 66.882 23.6057 67.3867 23.4907C67.8915 23.3757 68.4192 23.4152 68.9012 23.604C69.3832 23.7929 69.7972 24.1223 70.0895 24.5496C70.3818 24.9769 70.5387 25.4822 70.54 25.9999C70.5561 26.3279 70.5063 26.6559 70.3937 26.9643C70.2811 27.2728 70.1078 27.5556 69.8841 27.7961C69.6604 28.0366 69.3909 28.2298 69.0913 28.3644C68.7918 28.499 68.4683 28.5723 68.14 28.5799ZM58.82 21.7499C57.9774 21.7519 57.1544 22.0037 56.4549 22.4734C55.7555 22.9432 55.211 23.6098 54.8904 24.3889C54.5698 25.1681 54.4875 26.0248 54.6538 26.8508C54.8201 27.6768 55.2276 28.4349 55.8248 29.0292C56.422 29.6236 57.182 30.0276 58.0087 30.19C58.8355 30.3524 59.6918 30.2661 60.4694 29.9418C61.2471 29.6175 61.9111 29.07 62.3776 28.3683C62.844 27.6667 63.092 26.8425 63.09 25.9999C63.0981 25.4379 62.9931 24.8799 62.7811 24.3593C62.5692 23.8386 62.2546 23.366 61.8562 22.9694C61.4578 22.5729 60.9837 22.2606 60.4621 22.051C59.9404 21.8415 59.382 21.7391 58.82 21.7499ZM58.82 28.5799C58.3036 28.616 57.7882 28.496 57.3409 28.2353C56.8937 27.9747 56.5352 27.5855 56.312 27.1184C56.0888 26.6512 56.0114 26.1278 56.0897 25.6161C56.1679 25.1043 56.3983 24.628 56.7509 24.249C57.1035 23.8699 57.562 23.6057 58.0667 23.4907C58.5715 23.3757 59.0992 23.4152 59.5812 23.604C60.0632 23.7929 60.4772 24.1223 60.7695 24.5496C61.0618 24.9769 61.2187 25.4822 61.22 25.9999C61.2361 26.3279 61.1864 26.6559 61.0737 26.9643C60.9611 27.2728 60.7878 27.5556 60.5641 27.7961C60.3404 28.0366 60.0709 28.2298 59.7713 28.3644C59.4718 28.499 59.1483 28.5723 58.82 28.5799ZM47.74 23.0599V24.8599H52.06C51.9922 25.7077 51.6398 26.5077 51.06 27.1299C50.6266 27.5714 50.1054 27.9171 49.5301 28.1444C48.9547 28.3718 48.3381 28.4759 47.72 28.4499C46.4469 28.4499 45.226 27.9442 44.3259 27.044C43.4257 26.1439 42.92 24.923 42.92 23.6499C42.92 22.3769 43.4257 21.156 44.3259 20.2558C45.226 19.3556 46.4469 18.8499 47.72 18.8499C48.9404 18.8318 50.1189 19.2952 51 20.1399L52.27 18.8699C51.674 18.2804 50.9663 17.8158 50.1884 17.5033C49.4106 17.1908 48.5782 17.0366 47.74 17.0499C46.851 17.0153 45.9641 17.1605 45.1326 17.4769C44.3011 17.7932 43.5419 18.2742 42.9007 18.8909C42.2595 19.5077 41.7494 20.2475 41.401 21.0661C41.0525 21.8847 40.8729 22.7652 40.8729 23.6549C40.8729 24.5446 41.0525 25.4251 41.401 26.2437C41.7494 27.0623 42.2595 27.8022 42.9007 28.4189C43.5419 29.0357 44.3011 29.5166 45.1326 29.833C45.9641 30.1493 46.851 30.2945 47.74 30.2599C48.5954 30.2941 49.4484 30.1469 50.2429 29.8281C51.0374 29.5092 51.7555 29.0259 52.35 28.4099C53.4001 27.2563 53.9596 25.7391 53.91 24.1799C53.9136 23.8046 53.8834 23.4298 53.82 23.0599H47.74ZM93.05 24.4599C92.7892 23.6927 92.3015 23.0227 91.6515 22.5388C91.0015 22.0548 90.2198 21.7797 89.41 21.7499C88.863 21.7489 88.3216 21.86 87.8192 22.0765C87.3169 22.2929 86.8643 22.6101 86.4894 23.0085C86.1145 23.4068 85.8252 23.8778 85.6396 24.3923C85.4539 24.9068 85.3758 25.454 85.41 25.9999C85.4014 26.9128 85.6884 27.8039 86.2281 28.5402C86.7678 29.2765 87.5312 29.8184 88.4042 30.0851C89.2773 30.3517 90.2132 30.3288 91.0722 30.0196C91.9311 29.7105 92.667 29.1318 93.17 28.3699L91.72 27.3699C91.5038 27.7302 91.1972 28.0277 90.8306 28.2329C90.464 28.4382 90.0501 28.544 89.63 28.5399C89.1965 28.5578 88.7678 28.4442 88.4002 28.214C88.0325 27.9837 87.7431 27.6477 87.57 27.2499L93.26 24.8999L93.05 24.4599ZM87.25 25.8799C87.2297 25.5698 87.2717 25.2588 87.3734 24.9651C87.4752 24.6715 87.6347 24.4012 87.8424 24.1701C88.0502 23.939 88.3022 23.7518 88.5834 23.6195C88.8646 23.4873 89.1695 23.4126 89.48 23.3999C89.8011 23.3794 90.1212 23.4537 90.4004 23.6138C90.6795 23.7738 90.9054 24.0124 91.05 24.2999L87.25 25.8799ZM82.63 29.9999H84.5V17.4999H82.63V29.9999ZM79.57 22.6999H79.5C79.216 22.3909 78.8692 22.1462 78.4829 21.9823C78.0965 21.8185 77.6795 21.7392 77.26 21.7499C76.1672 21.8029 75.1366 22.2743 74.382 23.0665C73.6273 23.8587 73.2063 24.9108 73.2063 26.0049C73.2063 27.099 73.6273 28.1512 74.382 28.9433C75.1366 29.7355 76.1672 30.2069 77.26 30.2599C77.6839 30.2684 78.1046 30.1832 78.4918 30.0103C78.879 29.8375 79.2233 29.5812 79.5 29.2599H79.57V29.8699C79.57 31.4999 78.7 32.3699 77.3 32.3699C76.8323 32.3596 76.3782 32.2106 75.9954 31.9418C75.6126 31.6729 75.3183 31.2964 75.15 30.8599L73.53 31.5299C73.8295 32.2822 74.3502 32.9258 75.0234 33.3758C75.6965 33.8257 76.4904 34.0608 77.3 34.0499C79.49 34.0499 81.3 32.7599 81.3 29.6199V21.9999H79.57V22.6999ZM77.42 28.5799C76.7648 28.5391 76.1498 28.25 75.7003 27.7716C75.2508 27.2932 75.0005 26.6614 75.0005 26.0049C75.0005 25.3485 75.2508 24.7167 75.7003 24.2383C76.1498 23.7598 76.7648 23.4708 77.42 23.4299C77.7402 23.4437 78.0544 23.5218 78.3438 23.6596C78.6333 23.7973 78.8921 23.9918 79.1048 24.2316C79.3175 24.4714 79.4798 24.7515 79.5821 25.0553C79.6843 25.3591 79.7244 25.6803 79.7 25.9999C79.7273 26.3206 79.6892 26.6435 79.5881 26.9491C79.4871 27.2546 79.3251 27.5365 79.1119 27.7777C78.8988 28.0189 78.639 28.2143 78.3482 28.3522C78.0574 28.4901 77.7416 28.5676 77.42 28.5799ZM101.81 17.4999H97.33V29.9999H99.2V25.2599H101.81C102.343 25.2982 102.878 25.2263 103.382 25.0486C103.886 24.871 104.348 24.5915 104.739 24.2274C105.13 23.8634 105.442 23.4227 105.655 22.9328C105.869 22.4428 105.979 21.9142 105.979 21.3799C105.979 20.8456 105.869 20.317 105.655 19.8271C105.442 19.3372 105.13 18.8965 104.739 18.5324C104.348 18.1684 103.886 17.8888 103.382 17.7112C102.878 17.5336 102.343 17.4616 101.81 17.4999ZM101.81 23.4999H99.2V19.2399H101.85C102.418 19.2399 102.962 19.4654 103.363 19.8667C103.765 20.268 103.99 20.8124 103.99 21.3799C103.99 21.9475 103.765 22.4918 103.363 22.8931C102.962 23.2945 102.418 23.5199 101.85 23.5199L101.81 23.4999ZM113.35 21.7099C112.669 21.6679 111.991 21.8265 111.399 22.1659C110.807 22.5054 110.328 23.0109 110.02 23.6199L111.67 24.3099C111.837 24.0093 112.087 23.7634 112.39 23.6019C112.694 23.4405 113.038 23.3703 113.38 23.3999C113.617 23.3722 113.858 23.392 114.088 23.4582C114.317 23.5245 114.531 23.6358 114.718 23.7856C114.904 23.9355 115.058 24.1209 115.172 24.3311C115.286 24.5413 115.356 24.7721 115.38 25.0099V25.1299C114.779 24.8138 114.109 24.6491 113.43 24.6499C111.65 24.6499 109.83 25.6499 109.83 27.4699C109.848 27.8568 109.943 28.2361 110.11 28.5855C110.277 28.9348 110.513 29.247 110.803 29.5035C111.093 29.7601 111.431 29.9557 111.799 30.0787C112.166 30.2018 112.554 30.2498 112.94 30.2199C113.409 30.2459 113.877 30.1466 114.295 29.9322C114.713 29.7178 115.067 29.3961 115.32 28.9999H115.38V29.9999H117.18V25.1899C117.18 22.9999 115.52 21.7299 113.39 21.7299L113.35 21.7099ZM113.12 28.5599C112.51 28.5599 111.66 28.2499 111.66 27.4999C111.66 26.4999 112.72 26.1599 113.66 26.1599C114.254 26.1453 114.841 26.2903 115.36 26.5799C115.297 27.123 115.04 27.6249 114.635 27.9926C114.231 28.3604 113.707 28.569 113.16 28.5799L113.12 28.5599ZM123.74 21.9999L121.6 27.4199H121.54L119.32 21.9999H117.32L120.65 29.5799L118.75 33.7899H120.75L125.82 21.9999H123.74ZM106.94 29.9999H108.8V17.4999H106.94V29.9999Z" fill="white"/>
<path d="M10.4401 7.53973C10.1213 7.93378 9.96403 8.43417 10.0001 8.93973V31.0597C9.96603 31.5701 10.135 32.0733 10.4701 32.4597L10.5401 32.5397L22.9001 20.1497V19.8497L10.5101 7.46973L10.4401 7.53973Z" fill="url(#paint0_linear)"/>
<path d="M27 24.2797L22.9 20.1497V19.8497L27 15.7197L27.09 15.7797L32 18.5597C33.4 19.3497 33.4 20.6497 32 21.4497L27.11 24.2297L27 24.2797Z" fill="url(#paint1_linear)"/>
<path d="M27.1199 24.23L22.8999 20L10.4399 32.46C10.7225 32.7115 11.0842 32.8562 11.4623 32.869C11.8404 32.8818 12.211 32.7619 12.5099 32.53L27.1199 24.23Z" fill="url(#paint2_linear)"/>
<path d="M27.1199 15.7805L12.5099 7.48046C12.213 7.24537 11.8426 7.12251 11.464 7.13349C11.0854 7.14446 10.7228 7.28857 10.4399 7.54046L22.8999 20.0005L27.1199 15.7805Z" fill="url(#paint3_linear)"/>
<path opacity="0.2" d="M26.9999 24.1299L12.5099 32.3799C12.2219 32.5973 11.8708 32.7149 11.5099 32.7149C11.1491 32.7149 10.798 32.5973 10.5099 32.3799L10.4399 32.4499L10.5099 32.5299C10.798 32.7473 11.1491 32.8649 11.5099 32.8649C11.8708 32.8649 12.2219 32.7473 12.5099 32.5299L27.1199 24.2299L26.9999 24.1299Z" fill="black"/>
<path opacity="0.12" d="M10.44 32.3202C10.1188 31.9235 9.96138 31.4191 10 30.9102V31.0602C9.96597 31.5705 10.1349 32.0737 10.47 32.4602L10.54 32.3902L10.44 32.3202Z" fill="black"/>
<path opacity="0.12" d="M32 21.3L27 24.13L27.09 24.23L32 21.44C32.2898 21.3174 32.5413 21.119 32.7278 20.8656C32.9143 20.6122 33.0291 20.3132 33.06 20C32.9975 20.2846 32.869 20.5505 32.6849 20.7763C32.5007 21.0021 32.2662 21.1815 32 21.3Z" fill="black"/>
<path opacity="0.25" d="M12.51 7.61998L32 18.7C32.2662 18.8185 32.5007 18.9979 32.6849 19.2237C32.869 19.4495 32.9975 19.7154 33.06 20C33.0291 19.6868 32.9143 19.3878 32.7278 19.1344C32.5413 18.881 32.2898 18.6825 32 18.56L12.51 7.47998C11.12 6.67998 10 7.33998 10 8.93998V9.08998C10 7.48998 11.12 6.82998 12.51 7.61998Z" fill="white"/>
<defs>
<linearGradient id="paint0_linear" x1="21.8001" y1="8.70973" x2="5.02006" y2="25.4897" gradientUnits="userSpaceOnUse">
<stop stop-color="#00A0FF"/>
<stop offset="0.01" stop-color="#00A1FF"/>
<stop offset="0.26" stop-color="#00BEFF"/>
<stop offset="0.51" stop-color="#00D2FF"/>
<stop offset="0.76" stop-color="#00DFFF"/>
<stop offset="1" stop-color="#00E3FF"/>
</linearGradient>
<linearGradient id="paint1_linear" x1="33.83" y1="19.9997" x2="9.64002" y2="19.9997" gradientUnits="userSpaceOnUse">
<stop stop-color="#FFE000"/>
<stop offset="0.41" stop-color="#FFBD00"/>
<stop offset="0.78" stop-color="#FFA500"/>
<stop offset="1" stop-color="#FF9C00"/>
</linearGradient>
<linearGradient id="paint2_linear" x1="24.8299" y1="22.3" x2="2.06994" y2="45.05" gradientUnits="userSpaceOnUse">
<stop stop-color="#FF3A44"/>
<stop offset="1" stop-color="#C31162"/>
</linearGradient>
<linearGradient id="paint3_linear" x1="7.29994" y1="0.180458" x2="17.4599" y2="10.3405" gradientUnits="userSpaceOnUse">
<stop stop-color="#32A071"/>
<stop offset="0.07" stop-color="#2DA771"/>
<stop offset="0.48" stop-color="#15CF74"/>
<stop offset="0.8" stop-color="#06E775"/>
<stop offset="1" stop-color="#00F076"/>
</linearGradient>
</defs>
</svg>
