<?xml version="1.0" encoding="utf-8"?>
<!-- Generator: Adobe Illustrator 19.2.0, SVG Export Plug-In . SVG Version: 6.00 Build 0)  -->
<svg version="1.1" id="Layer_1" xmlns="http://www.w3.org/2000/svg" xmlns:xlink="http://www.w3.org/1999/xlink" x="0px" y="0px"
	 viewBox="0 0 51 23" style="enable-background:new 0 0 51 23;" xml:space="preserve">
<style type="text/css">
	.st0{fill:#FFFFFF;}
	.st1{fill:#666666;}
	.st2{fill:none;stroke:#627B9F;stroke-linecap:round;stroke-linejoin:round;}
</style>
<g>
	<g id="XMLID_1_">
		<g>
			<path class="st0" d="M16.3,7.6H15l-0.9,3.8c-0.1,0.4-0.2,0.9-0.3,1.3c-0.1,0.4-0.2,0.9-0.3,1.3l-0.5-1.8l-1.2-4.6h-1.4l-1.7,6.4
				c-0.1-0.4-0.2-0.9-0.3-1.3s-0.2-0.9-0.3-1.3L7.3,7.6H6l2.1,7.9h1.3l1.7-6.6l1.7,6.6h1.4L16.3,7.6z M22.3,15.5v-1.1h-3.7V7.6h-1.3
				v7.9H22.3z M28.9,10.1h1.3c0-0.4-0.1-0.8-0.3-1.1c-0.2-0.3-0.4-0.6-0.8-0.9c-0.3-0.2-0.6-0.4-1-0.5c-0.4-0.1-0.8-0.2-1.2-0.2
				c-0.6,0-1.1,0.1-1.5,0.3c-0.4,0.2-0.8,0.4-1.2,0.8c-0.7,0.7-1,1.7-1,3c0,0.6,0.1,1.2,0.3,1.7c0.2,0.5,0.4,0.9,0.8,1.3
				c0.3,0.4,0.7,0.6,1.2,0.8c0.5,0.2,1,0.3,1.5,0.3c0.9,0,1.7-0.2,2.3-0.7c0.6-0.5,0.9-1.2,1-2h-1.3c0,0.3-0.1,0.5-0.2,0.7
				s-0.2,0.4-0.4,0.5c-0.2,0.1-0.4,0.2-0.6,0.3c-0.2,0.1-0.5,0.1-0.8,0.1c-0.4,0-0.7-0.1-1-0.2c-0.3-0.1-0.5-0.3-0.7-0.6
				c-0.2-0.3-0.4-0.6-0.5-0.9c-0.1-0.4-0.2-0.8-0.2-1.3c0-0.5,0.1-0.9,0.2-1.3c0.1-0.4,0.3-0.7,0.5-0.9c0.2-0.3,0.5-0.4,0.8-0.6
				c0.3-0.1,0.6-0.2,1-0.2c0.3,0,0.5,0,0.8,0.1c0.2,0.1,0.4,0.2,0.6,0.3c0.2,0.1,0.3,0.3,0.4,0.5C28.8,9.6,28.8,9.8,28.9,10.1z
				 M50.5,2.5v18c0,1.1-0.9,2-2,2H2.6c-1.1,0-2-0.9-2-2v-18c0-1.1,0.9-2,2-2h45.9C49.6,0.6,50.5,1.5,50.5,2.5z M44.8,10.7
				c0.1-0.1,0-0.2-0.1-0.2l-3.9,0c-0.1,0-0.2,0.1-0.1,0.2l2,3c0.1,0.1,0.2,0.1,0.3,0L44.8,10.7z"/>
			<path class="st1" d="M44.7,10.5c0.1,0,0.2,0.1,0.1,0.2l-2,3c0,0.1-0.2,0.1-0.3,0l-2-3c-0.1-0.1,0-0.2,0.1-0.2L44.7,10.5z"/>
			<path d="M29.1,8.1c0.3,0.3,0.6,0.6,0.8,0.9c0.2,0.3,0.3,0.7,0.3,1.1h-1.3c0-0.2-0.1-0.4-0.2-0.6c-0.1-0.2-0.2-0.3-0.4-0.5
				c-0.2-0.1-0.4-0.2-0.6-0.3c-0.2-0.1-0.5-0.1-0.8-0.1c-0.4,0-0.7,0.1-1,0.2c-0.3,0.1-0.5,0.3-0.8,0.6c-0.2,0.3-0.4,0.6-0.5,0.9
				c-0.1,0.4-0.2,0.8-0.2,1.3c0,0.5,0.1,0.9,0.2,1.3c0.1,0.4,0.3,0.7,0.5,0.9c0.2,0.3,0.4,0.4,0.7,0.6c0.3,0.1,0.6,0.2,1,0.2
				c0.3,0,0.5,0,0.8-0.1c0.2-0.1,0.4-0.2,0.6-0.3c0.2-0.1,0.3-0.3,0.4-0.5s0.2-0.4,0.2-0.7h1.3c-0.1,0.9-0.4,1.6-1,2
				c-0.6,0.5-1.4,0.7-2.3,0.7c-0.6,0-1.1-0.1-1.5-0.3c-0.5-0.2-0.8-0.4-1.2-0.8c-0.4-0.4-0.6-0.8-0.8-1.3c-0.2-0.5-0.3-1.1-0.3-1.7
				c0-1.3,0.3-2.3,1-3c0.3-0.4,0.7-0.6,1.2-0.8c0.5-0.2,1-0.3,1.5-0.3c0.4,0,0.8,0.1,1.2,0.2C28.5,7.7,28.8,7.9,29.1,8.1z"/>
			<polygon points="22.3,14.4 22.3,15.5 17.3,15.5 17.3,7.6 18.6,7.6 18.6,14.4 			"/>
			<path d="M16.3,7.6l-2.1,7.9h-1.4l-1.7-6.6l-1.7,6.6H8.1L6,7.6h1.4l0.9,3.8c0.1,0.4,0.2,0.9,0.3,1.3s0.2,0.9,0.3,1.3l1.7-6.4h1.4
				l1.2,4.6l0.5,1.8c0.1-0.5,0.2-0.9,0.3-1.3c0.1-0.4,0.2-0.8,0.3-1.3L15,7.6H16.3z"/>
		</g>
		<g>
			<path class="st2" d="M48.5,22.5H2.6c-1.1,0-2-0.9-2-2v-18c0-1.1,0.9-2,2-2h45.9c1.1,0,2,0.9,2,2v18
				C50.5,21.6,49.6,22.5,48.5,22.5z"/>
		</g>
	</g>
</g>
</svg>
