<svg fill="none" xmlns="http://www.w3.org/2000/svg" viewBox="0 0 28 28"><path d="M21.858 0H5.752A5.753 5.753 0 000 5.752v16.106a5.753 5.753 0 005.752 5.752h16.106a5.752 5.752 0 005.752-5.752V5.752A5.752 5.752 0 0021.858 0zM9.203 21.858h-3.45V9.203h3.45v12.655zM7.478 7.745a2.022 2.022 0 01-2.014-2.03c0-1.12.902-2.03 2.014-2.03 1.111 0 2.013.91 2.013 2.03 0 1.12-.9 2.03-2.013 2.03zm15.53 14.113h-3.45V15.41c0-3.875-4.603-3.581-4.603 0v6.447h-3.45V9.203h3.45v2.03c1.606-2.974 8.053-3.194 8.053 2.85v7.775z" fill="#2867B2"/></svg>