<svg fill="none" xmlns="http://www.w3.org/2000/svg" viewBox="0 0 17 14"><path d="M.6 12.621V2.404L5.41.601l5.409 1.803L16.227.601v10.217l-4.808 1.803-6.01-1.803L.6 12.621z" fill="#F3F8FF"/><path d="M16.528 0a.474.474 0 00-.175.034l-5.02 1.855L6.257.097A1.896 1.896 0 005.075.093L.594 1.65A.945.945 0 000 2.528V12.75a.473.473 0 00.648.439l5.019-1.855 5.076 1.792c.383.128.798.13 1.182.005l4.481-1.56a.944.944 0 00.594-.876V.473A.473.473 0 0016.528 0zM.904 2.544l4.29-1.493v9.45L.942 12.073l-.038-9.53zm5.235 7.954V1.057l4.722 1.667v9.441L6.14 10.498zm5.667 1.673v-9.45l4.252-1.572.038 9.53-4.29 1.492z" fill="#BCCCE1"/></svg>