<?xml version="1.0" encoding="utf-8"?>
<!-- Generator: Adobe Illustrator 23.0.6, SVG Export Plug-In . SVG Version: 6.00 Build 0)  -->
<svg version="1.1" id="Layer_1" xmlns="http://www.w3.org/2000/svg" xmlns:xlink="http://www.w3.org/1999/xlink" x="0px" y="0px"
	 viewBox="0 0 109 59" style="enable-background:new 0 0 109 59;" xml:space="preserve">
<style type="text/css">
	.st0{fill:#01639F;}
	.st1{fill:#D0EFFC;}
	.st2{fill:#444444;}
</style>
<path class="st0" d="M56.2,22.3L42,13.2v17.4l13.2,8.6v-9.7h-2.6v-2h2.6v-2.9h1.9v2.9h2.6v2h-2.6v9.8l13.2-8.6V13.2L56.2,22.3z"/>
<path class="st1" d="M68.8,11.5l-12.6,8.1l-12.5-8.1v1.2l12.6,8.1l12.6-8.1L68.8,11.5L68.8,11.5z"/>
<path class="st1" d="M67,10l-10.8,6.9L45.5,10v1.2l10.7,6.9L67,11.2V10z"/>
<path class="st2" d="M59.3,5.9v-2h-3.1h-3.1V6c0,1.4-0.4,2.9-0.7,3.3c2.3,1.2,3.5,5,3.6,6c0,0.1,0,0.1,0,0.1v-6
	c-0.2-0.1-0.3-0.3-0.3-0.5c0-0.3,0.3-0.6,0.6-0.6s0.6,0.3,0.6,0.6c0,0.2-0.2,0.4-0.3,0.5v5.9c0-0.1,0-0.1,0-0.1c0.1-1,1.3-4.8,3.6-6
	C59.7,8.8,59.3,7.3,59.3,5.9z"/>
<path class="st2" d="M56.2,3.5h3.1c0-0.6,0-1,0-1h-3.1h-3.1c0,0,0,0.4,0,1H56.2z"/>
<path class="st2" d="M6.7,42.9c-0.4,0-0.7,0-0.9,0c-1.1,0-1.8,0.2-2,1.1c-0.1,0.5,0.3,0.8,1,1.2l1.7,0.9c1.2,0.6,1.7,1.5,1.5,3.1
	C7.6,51.5,5.9,52,3.3,52c-0.5,0-2.1-0.1-3.3-0.5l0.5-2.8h2l-0.2,1.4c0.6,0.1,1.1,0.1,1.3,0.1c1.2,0,1.9-0.3,2.1-1
	c0.1-0.7-0.1-0.9-0.6-1.2l-1.8-1c-1.4-0.8-2.1-1.4-1.8-3c0.4-2.4,2-3,4.7-3c0.5,0,1.8,0.1,2.9,0.4l-0.5,2.7h-2L6.7,42.9z"/>
<path class="st2" d="M13.3,45.8c-0.1,0-0.2,0-0.4,0c-1.2,0-1.7,0.6-1.9,1.6l-0.2,1.1c-0.2,1,0,1.6,1.3,1.6c1,0,1.8-0.1,2.4-0.2
	l-0.3,1.7c-0.6,0.1-1.7,0.3-2.7,0.3c-0.4,0-0.9,0-1.3-0.1c-2.1-0.5-1.9-2-1.7-3L8.8,47c0.1-0.9,0.5-2.4,2.8-3
	c0.4-0.1,0.9-0.1,1.4-0.1c0.9,0,2,0.1,2.6,0.3l-0.5,2.6h-2L13.3,45.8z"/>
<path class="st2" d="M15.7,45.7l0.3-1.6h3l0.1,0.6c1-0.3,2-0.8,3-0.8l-0.3,2c-0.5,0-1.9,0-2.7,0.3l-0.7,4h1l-0.3,1.6h-1h-2.2h-1
	l0.3-1.6h1l0.8-4.5H15.7L15.7,45.7z"/>
<path class="st2" d="M26.2,44.1l-1.1,6.2h1l-0.3,1.6h-1h-2.2h-1l0.3-1.6h1l0.8-4.5h-1.1l0.3-1.6h3.3V44.1z M25.3,43.3
	c-0.8,0-1.2-0.1-1-1.1v-0.1c0.1-0.9,0.6-1.1,1.4-1.1s1.1,0.1,1,1.1v0.1C26.5,43.1,26.1,43.3,25.3,43.3z"/>
<path class="st2" d="M26.7,45.7l0.3-1.6h3v0.4c0.8-0.4,1.7-0.6,2.3-0.6c2.3,0,2.7,1.5,2.3,3.4l-0.2,1.5C34,51,32.7,52,30.9,52
	c-0.7,0-1.3-0.1-1.7-0.2L29,53.3h1l-0.3,1.6h-1h-2.2h-1l0.2-1.6h1l1.3-7.5L26.7,45.7L26.7,45.7z M29.4,50.1c0.4,0.1,0.7,0.1,1.2,0.1
	c0.9,0,1.4-0.2,1.6-1.4l0.3-1.7c0.2-1,0-1.4-1.1-1.4c-0.3,0-0.8,0.1-1.3,0.1L29.4,50.1z"/>
<path class="st2" d="M39.4,51.8c-0.6,0.1-1.2,0.1-1.6,0.1c-1.5,0-2.5-0.8-2.3-2.4l0.6-3.8H35l0.3-1.6h1.2l0.6-1.9H39l-0.3,1.9h2
	l-0.3,1.6h-2l-0.6,3.5c-0.1,0.5,0,0.9,0.6,0.9c0.3,0,0.7,0,1.3-0.1L39.4,51.8z"/>
<path class="st2" d="M49.4,50.2l-0.3,1.6h-2.8l-0.1-0.4c-0.8,0.4-1.6,0.5-2.2,0.5c-2.3,0-2.7-1-2.4-3l0.6-3.3h-1.1l0.3-1.6h3.4
	L44,48.4c-0.2,1-0.3,1.7,0.8,1.7c0.3,0,0.9-0.1,1.4-0.2l1-5.9h2.3l-1.1,6.2H49.4L49.4,50.2z"/>
<path class="st2" d="M50.7,45.7l0.3-1.6h3l0.1,0.6c1-0.3,2-0.8,3-0.8l-0.3,2c-0.5,0-1.9,0-2.7,0.3l-0.7,4h1L54,51.8h-1h-2.2h-1
	l0.3-1.6h1l0.8-4.5H50.7L50.7,45.7z"/>
<path class="st2" d="M58.7,48.6c-0.2,1.2,0.1,1.5,0.7,1.6c1,0.2,2.2,0.1,3.3-0.2l-0.3,1.7c-0.6,0.1-1.6,0.3-2.5,0.3
	c-2.8,0-3.9-0.8-3.3-4c0.6-3.4,2.1-4.1,4.4-4.1c2,0,3.2,0.7,2.8,3.3c0,0.4-0.2,0.8-0.3,1.4H58.7z M61.6,47.1c0.3-1,0-1.5-0.8-1.5
	l0,0c-0.7,0-1.3,0.2-1.7,1.5H61.6z"/>
<g>
	<path class="st0" d="M74.1,42.5h2.6l-1.8,9.4h-2.1l1.1-6L70.5,51H69l-1.4-5.1l-1.1,6h-2.1l1.8-9.4h2.6l1.6,5.6L74.1,42.5z"/>
	<path class="st0" d="M84,51.8l-0.3-1.6h-4l-0.9,1.6h-2.5l5.4-9.4h2.5l2.3,9.4C86.5,51.8,84,51.8,84,51.8z M80.7,48.3h2.6l-0.7-3.4
		L80.7,48.3z"/>
	<path class="st0" d="M96.6,47.4c-0.4,0.6-0.9,1.1-1.7,1.4l1.3,3h-2.7l-0.8-2.6l0,0H91l-0.5,2.6H88l1.8-9.4h4.1c1,0,1.8,0.2,2.4,0.7
		c0.5,0.4,0.8,1.1,0.8,1.9C97.2,46,97,46.7,96.6,47.4z M91.2,47.3H93c0.6,0,1-0.1,1.4-0.4c0.3-0.3,0.5-0.7,0.5-1.3
		c0-0.3-0.1-0.6-0.3-0.8c-0.2-0.2-0.5-0.3-0.9-0.3h-1.8L91.2,47.3z"/>
	<path class="st0" d="M108.6,42.5l-4.2,4l2.5,5.4h-2.8l-1.6-3.5l-1.6,1.5l-0.4,2h-2.4l1.8-9.4h2.4l-0.8,4l4.2-4H108.6z"/>
</g>
</svg>
