<?xml version="1.0" encoding="utf-8"?>
<!-- Generator: Adobe Illustrator 22.1.0, SVG Export Plug-In . SVG Version: 6.00 Build 0)  -->
<svg version="1.1" id="Layer_1" xmlns="http://www.w3.org/2000/svg" xmlns:xlink="http://www.w3.org/1999/xlink" x="0px" y="0px"
	 viewBox="0 0 225 50" style="enable-background:new 0 0 225 50;" xml:space="preserve">
<style type="text/css">
	.st0{fill:#44608F;}
	.st1{fill:#6980A3;}
	.st2{fill:#5C749A;}
	.st3{fill:#627B9F;}
	.st4{fill:#4E678F;}
	.st5{fill:#FFFFFF;}
	.st6{fill:url(#SVGID_1_);}
</style>
<title>app_home_a</title>
<g>
	<rect class="st0" width="225" height="50"/>
</g>
<g>
	<rect x="1.1" class="st1" width="222.9" height="49"/>
</g>
<g>
	<rect x="1.8" class="st2" width="221.4" height="48.2"/>
</g>
<g>
	<rect x="4.8" class="st1" width="215" height="44.9"/>
</g>
<g>
	<rect x="5.7" class="st3" width="213.2" height="44.1"/>
</g>
<g>
	<g>
		<g>
			<g>
				<g>
					<path class="st4" d="M74.5,23c0,0.2,0,2.7,0,3.2h0.7c0.5,0,1.1,0,1.7-0.1s1.4-1.5,1.6-1.9c0-0.1,0.1-0.1,0.1-0.1l0.2,0.1
						c0,0,0,0,0,0.1s-0.5,2-0.6,2.3c-0.3,0-3.7,0-4.7,0c-1.2,0-1.6,0-1.7,0s-0.1,0-0.1-0.1v-0.3c0-0.1,0-0.1,0.1-0.1h0.4
						c0.4,0,0.5-0.2,0.5-0.3c0-0.2,0-3.1,0-3.8v-0.7c0-0.7,0-2,0-2.2c0-0.3-0.1-0.4-0.4-0.4h-0.4c-0.1,0-0.1-0.1-0.1-0.1v-0.3
						c0-0.1,0-0.1,0.1-0.1s0.5,0,1.6,0c1.4,0,1.9,0,2,0s0.1,0,0.1,0.1v0.3c0,0.1,0,0.1-0.1,0.1H75c-0.4,0-0.4,0.1-0.4,0.4
						c0,0.2,0,1.9,0,2.7L74.5,23L74.5,23z"/>
				</g>
				<g>
					<path class="st4" d="M80.6,19.5c0-0.4-0.1-0.6-0.3-0.6h-0.5c-0.1,0-0.1,0-0.1-0.1v-0.3c0-0.1,0-0.1,0.1-0.1s0.7,0,1.9,0
						c1,0,1.6,0,1.7,0s0.1,0,0.1,0.1v0.3c0,0.1,0,0.1-0.1,0.1H83c-0.4,0-0.6,0.2-0.6,0.5c0,0.1,0,0.9,0,1.5v0.8c0,0.6,0,2.1,0.1,2.5
						c0,0.5,0.1,1.1,0.4,1.4c0.4,0.5,0.9,0.7,1.5,0.7c0.4,0,1.1-0.2,1.4-0.5c0.5-0.4,0.7-1.1,0.7-1.9v-1.8c0-1-0.1-2.3-0.2-2.5
						c0-0.3-0.2-0.5-0.4-0.5h-0.4c-0.1,0-0.1,0-0.1-0.1v-0.3c0-0.1,0-0.1,0.1-0.1s0.7,0,1.4,0c0.6,0,1,0,1.1,0s0.1,0,0.1,0.1V19
						c0,0.1,0,0.1-0.1,0.1h-0.4c-0.4,0-0.5,0.3-0.5,0.4c0,0.2,0,1.8,0,1.9c0,0.2,0,2.2-0.1,2.7c-0.1,1-0.4,1.7-1,2.2
						c-0.5,0.5-1.3,0.7-2.1,0.7c-0.5,0-1.3-0.1-1.8-0.3c-0.6-0.2-1.1-0.8-1.4-1.5c-0.2-0.5-0.2-1.3-0.2-2.8L80.6,19.5L80.6,19.5z"/>
				</g>
				<g>
					<path class="st4" d="M92.2,22.2c0.5,0,1.1,0,1.2-0.1c0.2,0,0.4-0.2,0.5-0.4c0.1-0.2,0.3-0.5,0.3-0.7c0-0.1,0-0.1,0.1-0.1h0.3
						c0.1,0,0.1,0,0.1,0.1c0,0.2,0,0.8,0,1.2c0,0.5,0,1.1,0.1,1.3c0,0.1,0,0.1-0.1,0.1l-0.3,0.1c0,0-0.1,0-0.1-0.1
						c0-0.2-0.2-0.5-0.2-0.6c-0.1-0.2-0.4-0.4-0.6-0.4c-0.3,0-0.7-0.1-1.2-0.1v0.7c0,0.6,0.1,1.8,0.1,2c0,0.6,0.1,0.8,0.3,0.9
						c0.2,0.1,0.4,0.1,1,0.1c0.2,0,0.7,0,0.9,0c0.2,0,0.6-0.1,0.9-0.4c0.3-0.2,1-1,1.2-1.2c0,0,0.1-0.1,0.1,0l0.2,0.1
						c0,0,0.1,0.1,0,0.1l-0.5,1.8c0,0.1-0.1,0.2-0.3,0.2c-0.1,0-0.3,0-1.1,0c-0.8,0-2,0-4,0c-0.4,0-0.8,0-1,0s-0.4,0-0.5,0
						s-0.1,0-0.1-0.1v-0.2c0-0.1,0-0.1,0.1-0.1H90c0.5,0,0.6-0.1,0.6-0.5V22c0-1,0-2.4,0-2.5c0-0.4-0.2-0.5-0.5-0.5h-0.5
						c0,0-0.1,0-0.1-0.1v-0.3c0,0,0-0.1,0.1-0.1c0.3,0,0.7,0,1.7,0h4.1c0.2,0,0.4,0,0.5,0s0.1,0,0.1,0.1c0,0.2,0.4,1.8,0.5,1.9
						c0,0.1,0,0.1,0,0.1l-0.2,0.1h-0.1c-0.1-0.1-1.1-1.1-1.4-1.3c-0.2-0.2-0.6-0.3-0.9-0.3h-1.5L92.2,22.2z"/>
				</g>
			</g>
			<g>
				<path class="st4" d="M62,20.1c0-0.6,0-2.4,0-2.7c0-0.9-0.3-0.9-0.8-0.9h-0.5c-0.1,0-0.1,0-0.1-0.1V16c0-0.1,0-0.1,0.1-0.1
					c0.2,0,0.9,0,2.4,0c0.5,0,1.4,0,2.4,0c1.1,0,2.1,0.1,2.6,0.4c0.9,0.5,1.2,1.2,1.2,2.1c0,1-0.6,2-2.2,2.5l0,0
					c1.9,0.5,2.9,1.4,2.9,3c0,0.8-0.5,2-1.2,2.3c-0.6,0.3-1.7,0.6-3.6,0.6c-0.1,0-0.5,0-1,0c-0.4,0-0.9,0-1.2,0c-0.8,0-1.3,0-1.6,0
					s-0.5,0-0.6,0c-0.2,0-0.2,0-0.2-0.2v-0.3c0-0.1,0-0.1,0.2-0.1h0.5c0.5,0,0.5-0.2,0.6-0.6c0-0.4,0.1-2.4,0.1-3.6
					C62,22,62,20.1,62,20.1z M64.2,20.8c0.6,0.1,1.6,0,2-0.4c0.5-0.4,0.7-1.1,0.7-1.8c0-0.6-0.2-1.2-0.6-1.5
					c-0.5-0.4-1.3-0.5-1.4-0.5c-0.3,0-0.7,0-0.7,0.3s0,1.6,0,2.9V20.8z M64.2,24.3c0,1.5,0.3,2,1.1,2c1.1,0,2.1-0.5,2.1-2.4
					c0-1.2-0.5-2-1.4-2.4c-0.8-0.3-1.5-0.3-1.9-0.3v3.1H64.2z"/>
			</g>
		</g>
		<g>
			<g>
				<g>
					<path class="st4" d="M115.7,22.4c0.5,0,1.1,0,1.2-0.1c0.2,0,0.4-0.2,0.5-0.4c0.1-0.2,0.3-0.5,0.3-0.7c0-0.1,0-0.1,0.1-0.1h0.3
						c0.1,0,0.1,0,0.1,0.1c0,0.2,0,0.8,0,1.2c0,0.5,0,1.1,0.1,1.3c0,0.1,0,0.1-0.1,0.1l-0.3,0.1c0,0-0.1,0-0.1-0.1
						c0-0.2-0.2-0.5-0.2-0.6c-0.1-0.2-0.4-0.4-0.6-0.4c-0.3,0-0.7-0.1-1.2-0.1v0.7c0,0.6,0.1,1.8,0.1,2c0,0.6,0.1,0.8,0.3,0.9
						c0.2,0.1,0.4,0.1,1,0.1c0.2,0,0.7,0,0.9,0c0.2,0,0.6-0.1,0.9-0.4c0.3-0.2,1-1,1.2-1.3c0,0,0.1-0.1,0.1,0l0.2,0.1
						c0,0,0.1,0.1,0,0.1l-0.5,1.8c0,0.1-0.1,0.2-0.3,0.2c-0.1,0-0.3,0-1.1,0c-0.8,0-2,0-4,0c-0.4,0-0.8,0-1,0s-0.4,0-0.5,0
						s-0.1,0-0.1-0.1v-0.2c0-0.1,0-0.1,0.1-0.1h0.4c0.5,0,0.6-0.1,0.6-0.5v-4c0-1,0-2.4,0-2.5c0-0.4-0.2-0.5-0.5-0.5H113
						c0,0-0.1,0-0.1-0.1v-0.3c0,0,0-0.1,0.1-0.1c0.3,0,0.7,0,1.7,0h4.1c0.2,0,0.4,0,0.5,0s0.1,0,0.1,0.1c0,0.2,0.4,1.8,0.5,1.9
						c0,0.1,0,0.1,0,0.1l-0.2,0.1h-0.1c-0.1-0.1-1.1-1.1-1.4-1.3c-0.2-0.2-0.6-0.3-0.9-0.3h-1.5L115.7,22.4z"/>
				</g>
				<g>
					<path class="st4" d="M124.8,19.1h-0.4c-0.4,0-1.1,0-1.6,0.2c-0.3,0.2-0.8,0.9-1.1,1.3c0,0.1-0.1,0.1-0.1,0.1l-0.3-0.1
						c0,0-0.1-0.1,0-0.1c0.1-0.5,0.5-2,0.6-2.3c0-0.2,0.1-0.2,0.2-0.2s0.1,0,0.2,0.2s0.4,0.3,0.8,0.3c0.6,0,1.1,0.1,2.3,0.1h0.7
						c1.3,0,1.8,0,2.3-0.1c0.3,0,0.7-0.2,0.9-0.3c0.1-0.1,0.2-0.2,0.3-0.2s0.1,0,0.1,0.2c0,0.3,0.3,1.7,0.4,2.3v0.1l-0.2,0.1
						c0,0-0.1,0-0.1-0.1c-0.3-0.4-0.7-1-1-1.3c-0.3-0.2-1.3-0.2-1.6-0.2h-0.4v3.2c0,0.2,0,3.4,0,3.6c0,0.3,0.1,0.5,0.4,0.5h0.5
						c0.1,0,0.1,0,0.1,0.1v0.3c0,0.1,0,0.1-0.1,0.1s-0.5,0-1.8,0c-1.2,0-1.7,0-1.9,0c-0.1,0-0.1,0-0.1-0.1v-0.2c0-0.1,0-0.1,0.1-0.1
						h0.6c0.2,0,0.4-0.1,0.4-0.4c0-0.2,0-3.8,0-4.1v-2.9H124.8z"/>
				</g>
				<g>
					<path class="st4" d="M134.6,19.1h-0.4c-0.4,0-1.1,0-1.6,0.2c-0.3,0.2-0.8,0.9-1.1,1.3c0,0.1-0.1,0.1-0.1,0.1l-0.3-0.1
						c0,0-0.1-0.1,0-0.1c0.1-0.5,0.5-2,0.6-2.3c0-0.2,0.1-0.2,0.2-0.2c0.1,0,0.1,0,0.2,0.2c0.1,0.2,0.4,0.3,0.8,0.3
						c0.6,0,1.1,0.1,2.3,0.1h0.7c1.3,0,1.8,0,2.3-0.1c0.3,0,0.7-0.2,0.9-0.3c0.1-0.1,0.2-0.2,0.3-0.2s0.1,0,0.1,0.2
						c0,0.3,0.3,1.7,0.4,2.3v0.1l-0.2,0.1c0,0-0.1,0-0.1-0.1c-0.3-0.4-0.7-1-1-1.3c-0.3-0.2-1.3-0.2-1.6-0.2h-0.4v3.2
						c0,0.2,0,3.4,0,3.6c0,0.3,0.1,0.5,0.4,0.5h0.5c0.1,0,0.1,0,0.1,0.1v0.3c0,0.1,0,0.1-0.1,0.1s-0.5,0-1.8,0c-1.2,0-1.7,0-1.9,0
						c-0.1,0-0.1,0-0.1-0.1v-0.2c0-0.1,0-0.1,0.1-0.1h0.6c0.2,0,0.4-0.1,0.4-0.4c0-0.2,0-3.8,0-4.1v-2.9H134.6z"/>
				</g>
				<g>
					<path class="st4" d="M143.8,22.4c0.5,0,1.1,0,1.2-0.1c0.2,0,0.4-0.2,0.5-0.4c0.1-0.2,0.3-0.5,0.3-0.7c0-0.1,0-0.1,0.1-0.1h0.3
						c0.1,0,0.1,0,0.1,0.1c0,0.2,0,0.8,0,1.2c0,0.5,0,1.1,0.1,1.3c0,0.1,0,0.1-0.1,0.1l-0.3,0.1c0,0-0.1,0-0.1-0.1
						c0-0.2-0.2-0.5-0.2-0.6c-0.1-0.2-0.4-0.4-0.6-0.4c-0.3,0-0.7-0.1-1.2-0.1v0.7c0,0.6,0.1,1.8,0.1,2c0,0.6,0.1,0.8,0.3,0.9
						s0.4,0.1,1,0.1c0.2,0,0.7,0,0.9,0s0.6-0.1,0.9-0.4c0.3-0.2,1-1,1.2-1.3c0,0,0.1-0.1,0.1,0l0.2,0.1c0,0,0.1,0.1,0,0.1l-0.5,1.8
						c0,0.1-0.1,0.2-0.3,0.2c-0.1,0-0.3,0-1.1,0s-2,0-4,0c-0.4,0-0.8,0-1,0s-0.4,0-0.5,0s-0.1,0-0.1-0.1v-0.2c0-0.1,0-0.1,0.1-0.1
						h0.4c0.5,0,0.6-0.1,0.6-0.5v-4c0-1,0-2.4,0-2.5c0-0.4-0.2-0.5-0.5-0.5h-0.5c0,0-0.1,0-0.1-0.1v-0.3c0,0,0-0.1,0.1-0.1
						c0.3,0,0.7,0,1.7,0h4.1c0.2,0,0.4,0,0.5,0s0.1,0,0.1,0.1c0,0.2,0.4,1.8,0.5,1.9c0,0.1,0,0.1,0,0.1l-0.2,0.1h-0.1
						c-0.1-0.1-1.1-1.1-1.4-1.3c-0.2-0.2-0.6-0.3-0.9-0.3H144L143.8,22.4z"/>
				</g>
				<g>
					<path class="st4" d="M150.7,21.5c0-0.9,0-1.6,0-1.9c0-0.4-0.2-0.6-0.3-0.6h-0.5c-0.1,0-0.1,0-0.1-0.1v-0.3c0-0.1,0-0.1,0.1-0.1
						s0.5,0,1.7,0c0.7,0,1.7,0,2.2,0c0.9,0,1.6,0.3,2.1,0.8c0.4,0.4,0.7,0.8,0.7,1.3c0,1.5-1.1,2.2-2.1,2.2v0.1
						c0.4,0.1,0.5,0.3,0.8,0.6c0.2,0.2,0.8,1.2,0.9,1.4c0.1,0.1,0.7,1,0.9,1.3c0.1,0.2,0.6,0.2,0.9,0.2c0.1,0,0.1,0,0.1,0.1v0.3
						c0,0.1,0,0.1-0.1,0.1s-0.4,0-1.3,0c-0.3,0-0.8,0-1.1,0c-0.4-0.3-1.1-1.6-1.3-2c-0.4-0.8-0.9-1.7-1.4-1.7h-0.4v0.6
						c0,0.7,0,2,0.1,2.1c0,0.2,0.1,0.5,0.3,0.5h0.5c0.1,0,0.1,0,0.1,0.1v0.3c0,0.1,0,0.1-0.2,0.1c0,0-0.3,0-1.5,0s-1.5,0-1.6,0
						s-0.1,0-0.1-0.1v-0.3c0-0.1,0-0.1,0.1-0.1h0.4c0.3,0,0.5-0.1,0.5-0.4c0-1.2,0-2.3,0-3.4v-1.1H150.7z M152.3,22.8
						c0.2,0,0.4,0,0.5,0c1.5,0,1.9-1.5,1.9-2s-0.2-1.1-0.4-1.3c-0.4-0.4-0.9-0.5-1.3-0.5c-0.2,0-0.4,0-0.4,0.1
						c-0.1,0-0.1,0.2-0.1,0.3L152.3,22.8z"/>
				</g>
			</g>
			<g>
				<path class="st4" d="M105.8,22c0,0.3,0,3.6,0,4.2h0.9c0.7,0,1.4,0,2.2-0.1c0.8-0.1,1.9-1.9,2.1-2.5c0-0.1,0.1-0.1,0.2-0.1
					l0.3,0.1c0,0,0,0,0,0.1s-0.7,2.6-0.7,3c-0.4,0-4.8,0-6.2,0c-1.5,0-2.1,0-2.3,0c-0.1,0-0.1,0-0.1-0.1v-0.4c0-0.1,0-0.1,0.1-0.1
					h0.5c0.6,0,0.7-0.2,0.7-0.4c0-0.3,0-4.1,0-5V20c0-1,0-2.6,0-2.8c0-0.4-0.1-0.5-0.5-0.5h-0.6c-0.1,0-0.1-0.1-0.1-0.2v-0.4
					c0-0.1,0-0.1,0.1-0.1c0.2,0,0.7,0,2.1,0c1.8,0,2.4,0,2.6,0c0.1,0,0.1,0,0.1,0.2v0.4c0,0.1,0,0.1-0.2,0.1h-0.7
					c-0.5,0-0.5,0.2-0.5,0.6c0,0.2,0,2.5,0,3.6V22z"/>
			</g>
		</g>
		<g>
			<g>
				<g>
					<path class="st4" d="M175.6,21.9c0-0.3,0-2.4,0-2.5c0-0.3-0.1-0.4-0.4-0.4h-0.6c-0.1,0-0.1,0-0.1-0.1v-0.3c0,0,0-0.1,0.1-0.1
						s0.7,0,1.9,0s1.6,0,1.7,0c0.1,0,0.1,0,0.1,0.1v0.3c0,0.1,0,0.1-0.1,0.1h-0.3c-0.3,0-0.5,0.1-0.5,0.3c0,0.1,0,2.7,0,2.8V23
						c0,0.1,0,2.8,0,2.9c0,0.4,0.2,0.4,0.4,0.4h0.5c0.1,0,0.1,0,0.1,0.1v0.3c0,0,0,0.1-0.1,0.1s-0.6,0-1.7,0c-1.2,0-1.7,0-1.9,0
						c-0.1,0-0.1,0-0.1-0.1v-0.3c0,0,0-0.1,0.1-0.1h0.3c0.2,0,0.5,0,0.5-0.3c0-0.2,0.1-2.7,0.1-3.3V21.9z"/>
				</g>
				<g>
					<path class="st4" d="M181,21.7c0-0.4,0-1.9,0-2c0-0.7-0.2-0.7-0.6-0.7H180c-0.1,0-0.1,0-0.1-0.1v-0.3c0-0.1,0-0.1,0.1-0.1
						c0.2,0,0.7,0,1.8,0c0.4,0,1.1,0,1.9,0c0.8,0,1.6,0.1,2,0.3c0.7,0.4,0.9,0.9,0.9,1.6c0,0.8-0.5,1.5-1.7,1.9l0,0
						c1.4,0.4,2.2,1.1,2.2,2.3c0,0.6-0.4,1.5-0.9,1.8c-0.5,0.2-1.3,0.4-2.7,0.4c-0.1,0-0.4,0-0.7,0s-0.7,0-0.9,0c-0.6,0-1,0-1.2,0
						s-0.4,0-0.5,0s-0.1,0-0.1-0.1v-0.3c0-0.1,0-0.1,0.1-0.1h0.4c0.4,0,0.4-0.1,0.5-0.5c0-0.3,0.1-1.8,0.1-2.8v-1.3H181z
						 M182.7,22.2c0.5,0,1.2,0,1.6-0.3c0.4-0.3,0.6-0.9,0.6-1.4c0-0.4-0.1-0.9-0.5-1.2c-0.4-0.3-1-0.4-1.1-0.4c-0.2,0-0.5,0-0.5,0.2
						s0,1.2,0,2.2v0.9H182.7z M182.7,24.9c0,1.1,0.3,1.6,0.9,1.6c0.8,0,1.6-0.4,1.6-1.9c0-0.9-0.4-1.6-1.1-1.8
						c-0.6-0.2-1.1-0.2-1.4-0.2V24.9z"/>
				</g>
				<g>
					<path class="st4" d="M191.2,23.1c0,0.2,0,2.7,0,3.2h0.7c0.5,0,1.1,0,1.7-0.1c0.6-0.1,1.4-1.5,1.6-1.9c0-0.1,0.1-0.1,0.1-0.1
						l0.2,0.1c0,0,0,0,0,0.1s-0.5,2-0.6,2.3c-0.3,0-3.7,0-4.7,0c-1.2,0-1.6,0-1.7,0c-0.1,0-0.1,0-0.1-0.1v-0.3c0-0.1,0-0.1,0.1-0.1
						h0.4c0.4,0,0.5-0.2,0.5-0.3c0-0.2,0-3.1,0-3.8v-0.7c0-0.7,0-2,0-2.2c0-0.3-0.1-0.4-0.4-0.4h-0.4c-0.1,0-0.1-0.1-0.1-0.1v-0.3
						c0-0.1,0-0.1,0.1-0.1s0.5,0,1.6,0c1.4,0,1.9,0,2,0s0.1,0,0.1,0.1v0.3c0,0.1,0,0.1-0.1,0.1h-0.5c-0.4,0-0.4,0.1-0.4,0.4
						c0,0.2,0,1.9,0,2.7v1.2H191.2z"/>
				</g>
				<g>
					<path class="st4" d="M199.6,22.3c0.5,0,1.1,0,1.2-0.1c0.2,0,0.4-0.2,0.5-0.4c0.1-0.2,0.3-0.5,0.3-0.7c0-0.1,0-0.1,0.1-0.1h0.3
						c0.1,0,0.1,0,0.1,0.1c0,0.2,0,0.8,0,1.2c0,0.5,0,1.1,0.1,1.3c0,0.1,0,0.1-0.1,0.1l-0.3,0.1c0,0-0.1,0-0.1-0.1
						c0-0.2-0.2-0.5-0.2-0.6c-0.1-0.2-0.4-0.4-0.6-0.4c-0.3,0-0.7-0.1-1.2-0.1v0.7c0,0.6,0.1,1.8,0.1,2c0,0.6,0.1,0.8,0.3,0.9
						s0.4,0.1,1,0.1c0.2,0,0.7,0,0.9,0s0.6-0.1,0.9-0.4c0.3-0.2,1-1,1.2-1.2c0,0,0.1-0.1,0.1,0l0.2,0.1c0,0,0.1,0.1,0,0.1l-0.5,1.8
						c0,0.1-0.1,0.2-0.3,0.2c-0.1,0-0.3,0-1.1,0s-2,0-4,0c-0.4,0-0.8,0-1,0s-0.4,0-0.5,0s-0.1,0-0.1-0.1v-0.2c0-0.1,0-0.1,0.1-0.1
						h0.4c0.5,0,0.6-0.1,0.6-0.5v-4c0-1,0-2.4,0-2.5c0-0.4-0.2-0.5-0.5-0.5H197c0,0-0.1,0-0.1-0.1v-0.3c0,0,0-0.1,0.1-0.1
						c0.3,0,0.7,0,1.7,0h4.1c0.2,0,0.4,0,0.5,0s0.1,0,0.1,0.1c0,0.2,0.4,1.8,0.5,1.9c0,0.1,0,0.1,0,0.1l-0.2,0.1h-0.1
						c-0.1-0.1-1.1-1.1-1.4-1.3c-0.2-0.2-0.6-0.3-0.9-0.3h-1.5L199.6,22.3z"/>
				</g>
			</g>
			<g>
				<path class="st4" d="M164.7,20.1c0-0.6,0-2.4,0-2.7c0-0.9-0.3-0.9-0.8-0.9h-0.5c-0.1,0-0.1,0-0.1-0.1V16c0-0.1,0-0.1,0.1-0.1
					c0.2,0,0.9,0,2.4,0c0.5,0,1.4,0,2.4,0c1.1,0,2.1,0.1,2.6,0.4c0.9,0.5,1.2,1.2,1.2,2.1c0,1-0.6,2-2.2,2.5l0,0
					c1.9,0.5,2.9,1.4,2.9,3c0,0.8-0.5,2-1.2,2.3c-0.6,0.3-1.7,0.6-3.6,0.6c-0.1,0-0.5,0-1,0c-0.4,0-0.9,0-1.2,0c-0.8,0-1.3,0-1.6,0
					s-0.5,0-0.6,0c-0.2,0-0.2,0-0.2-0.2v-0.3c0-0.1,0-0.1,0.2-0.1h0.5c0.5,0,0.5-0.2,0.6-0.6c0-0.4,0.1-2.4,0.1-3.6L164.7,20.1
					L164.7,20.1z M166.9,20.8c0.6,0.1,1.6,0,2-0.4c0.5-0.4,0.7-1.1,0.7-1.8c0-0.6-0.2-1.2-0.6-1.5c-0.5-0.4-1.3-0.5-1.4-0.5
					c-0.3,0-0.7,0-0.7,0.3s0,1.6,0,2.9V20.8z M166.9,24.3c0,1.5,0.3,2,1.1,2c1.1,0,2.1-0.5,2.1-2.4c0-1.2-0.5-2-1.4-2.4
					c-0.8-0.3-1.5-0.3-1.9-0.3L166.9,24.3L166.9,24.3z"/>
			</g>
		</g>
	</g>
	<g>
		<g>
			<g>
				<g>
					<path class="st5" d="M73.6,22.1c0,0.2,0,2.7,0,3.2h0.7c0.5,0,1.1,0,1.7-0.1s1.4-1.5,1.6-1.9c0-0.1,0.1-0.1,0.1-0.1l0.2,0.1
						c0,0,0,0,0,0.1s-0.5,2-0.6,2.3c-0.3,0-3.7,0-4.7,0c-1.2,0-1.6,0-1.7,0s-0.1,0-0.1-0.1v-0.3c0-0.1,0-0.1,0.1-0.1h0.4
						c0.4,0,0.5-0.2,0.5-0.3c0-0.2,0-3.1,0-3.8v-0.7c0-0.7,0-2,0-2.2c0-0.3-0.1-0.4-0.4-0.4H71c-0.1,0-0.1-0.1-0.1-0.1v-0.3
						c0-0.1,0-0.1,0.1-0.1s0.5,0,1.6,0c1.4,0,1.9,0,2,0s0.1,0,0.1,0.1v0.3c0,0.1,0,0.1-0.1,0.1H74c-0.4,0-0.4,0.1-0.4,0.4
						c0,0.2,0,1.9,0,2.7V22.1z"/>
				</g>
				<g>
					<path class="st5" d="M79.7,18.5c0-0.4-0.1-0.6-0.3-0.6h-0.5c-0.1,0-0.1,0-0.1-0.1v-0.3c0-0.1,0-0.1,0.1-0.1s0.7,0,1.9,0
						c1,0,1.6,0,1.7,0s0.1,0,0.1,0.1v0.3c0,0.1,0,0.1-0.1,0.1h-0.4c-0.4,0-0.6,0.2-0.6,0.5c0,0.1,0,0.9,0,1.5v0.8
						c0,0.6,0,2.1,0.1,2.5c0,0.5,0.1,1.1,0.4,1.4c0.4,0.5,0.9,0.7,1.5,0.7c0.4,0,1.1-0.2,1.4-0.5c0.5-0.4,0.7-1.1,0.7-1.9v-1.8
						c0-1-0.1-2.3-0.2-2.5c0-0.3-0.2-0.5-0.4-0.5h-0.4c-0.1,0-0.1,0-0.1-0.1v-0.3c0-0.1,0-0.1,0.1-0.1s0.7,0,1.4,0c0.6,0,1,0,1.1,0
						s0.1,0,0.1,0.1V18c0,0.1,0,0.1-0.1,0.1h-0.4c-0.4,0-0.5,0.3-0.5,0.4c0,0.2,0,1.8,0,1.9c0,0.2,0,2.2-0.1,2.7
						c-0.1,1-0.4,1.7-1,2.2C84.6,25.8,83.8,26,83,26c-0.5,0-1.3-0.1-1.8-0.3c-0.6-0.2-1.1-0.8-1.4-1.5c-0.2-0.5-0.2-1.3-0.2-2.8
						v-2.9H79.7z"/>
				</g>
				<g>
					<path class="st5" d="M91.3,21.2c0.5,0,1.1,0,1.2-0.1c0.2,0,0.4-0.2,0.5-0.4c0.1-0.2,0.3-0.5,0.3-0.7c0-0.1,0-0.1,0.1-0.1h0.3
						c0.1,0,0.1,0,0.1,0.1c0,0.2,0,0.8,0,1.2c0,0.5,0,1.1,0.1,1.3c0,0.1,0,0.1-0.1,0.1l-0.3,0.1c0,0-0.1,0-0.1-0.1
						c0-0.2-0.2-0.5-0.2-0.6c-0.1-0.2-0.4-0.4-0.6-0.4c-0.3,0-0.7-0.1-1.2-0.1v0.7c0,0.6,0.1,1.8,0.1,2c0,0.6,0.1,0.8,0.3,0.9
						c0.2,0.1,0.4,0.1,1,0.1c0.2,0,0.7,0,0.9,0c0.2,0,0.6-0.1,0.9-0.4c0.3-0.2,1-1,1.2-1.2c0,0,0.1-0.1,0.1,0l0.2,0.1
						c0,0,0.1,0.1,0,0.1l-0.5,1.8c0,0.1-0.1,0.2-0.3,0.2c-0.1,0-0.3,0-1.1,0c-0.8,0-2,0-4,0c-0.4,0-0.8,0-1,0s-0.4,0-0.5,0
						s-0.1,0-0.1-0.1v-0.2c0-0.1,0-0.1,0.1-0.1H89c0.5,0,0.6-0.1,0.6-0.5V21c0-1,0-2.4,0-2.5c0-0.4-0.2-0.5-0.5-0.5h-0.5
						c0,0-0.1,0-0.1-0.1v-0.3c0,0,0-0.1,0.1-0.1c0.3,0,0.7,0,1.7,0h4.1c0.2,0,0.4,0,0.5,0s0.1,0,0.1,0.1c0,0.2,0.4,1.8,0.5,1.9
						c0,0.1,0,0.1,0,0.1l-0.2,0.1h-0.1c-0.1-0.1-1.1-1.1-1.4-1.3c-0.2-0.2-0.6-0.3-0.9-0.3h-1.5L91.3,21.2z"/>
				</g>
			</g>
			<g>
				<path class="st5" d="M61.1,19.2c0-0.6,0-2.4,0-2.7c0-0.9-0.3-0.9-0.8-0.9h-0.5c-0.1,0-0.1,0-0.1-0.1v-0.4c0-0.1,0-0.1,0.1-0.1
					c0.2,0,0.9,0,2.4,0c0.5,0,1.4,0,2.4,0c1.1,0,2.1,0.1,2.6,0.4c0.9,0.5,1.2,1.2,1.2,2.1c0,1-0.6,2-2.2,2.5l0,0
					c1.9,0.5,2.9,1.4,2.9,3c0,0.8-0.5,2-1.2,2.3c-0.6,0.3-1.7,0.6-3.6,0.6c-0.1,0-0.5,0-1,0c-0.4,0-0.9,0-1.2,0c-0.8,0-1.3,0-1.6,0
					s-0.5,0-0.6,0c-0.2,0-0.2,0-0.2-0.2v-0.3c0-0.1,0-0.1,0.2-0.1h0.5c0.5,0,0.5-0.2,0.6-0.6c0-0.4,0.1-2.4,0.1-3.6
					C61.1,21.1,61.1,19.2,61.1,19.2z M63.3,19.8c0.6,0.1,1.6,0,2-0.4c0.5-0.4,0.7-1.1,0.7-1.8c0-0.6-0.2-1.2-0.6-1.5
					c-0.5-0.4-1.3-0.5-1.4-0.5c-0.3,0-0.7,0-0.7,0.3s0,1.6,0,2.9V19.8z M63.3,23.3c0,1.5,0.3,2,1.1,2c1.1,0,2.1-0.5,2.1-2.4
					c0-1.2-0.5-2-1.4-2.4c-0.8-0.3-1.5-0.3-1.9-0.3v3.1H63.3z"/>
			</g>
		</g>
		<g>
			<g>
				<g>
					<path class="st5" d="M114.8,21.4c0.5,0,1.1,0,1.2-0.1c0.2,0,0.4-0.2,0.5-0.4c0.1-0.2,0.3-0.5,0.3-0.7c0-0.1,0-0.1,0.1-0.1h0.3
						c0.1,0,0.1,0,0.1,0.1c0,0.2,0,0.8,0,1.2c0,0.5,0,1.1,0.1,1.3c0,0.1,0,0.1-0.1,0.1l-0.3,0.1c0,0-0.1,0-0.1-0.1
						c0-0.2-0.2-0.5-0.2-0.6c-0.1-0.2-0.4-0.4-0.6-0.4c-0.3,0-0.7-0.1-1.2-0.1v0.7c0,0.6,0.1,1.8,0.1,2c0,0.6,0.1,0.8,0.3,0.9
						c0.2,0.1,0.4,0.1,1,0.1c0.2,0,0.7,0,0.9,0c0.2,0,0.6-0.1,0.9-0.4c0.3-0.2,1-1,1.2-1.3c0,0,0.1-0.1,0.1,0l0.2,0.1
						c0,0,0.1,0.1,0,0.1l-0.5,1.8c0,0.1-0.1,0.2-0.3,0.2c-0.1,0-0.3,0-1.1,0c-0.8,0-2,0-4,0c-0.4,0-0.8,0-1,0s-0.4,0-0.5,0
						s-0.1,0-0.1-0.1v-0.2c0-0.1,0-0.1,0.1-0.1h0.4c0.5,0,0.6-0.1,0.6-0.5v-4c0-1,0-2.4,0-2.5c0-0.4-0.2-0.5-0.5-0.5h-0.5
						c0,0-0.1,0-0.1-0.1v-0.3c0,0,0-0.1,0.1-0.1c0.3,0,0.7,0,1.7,0h4.1c0.2,0,0.4,0,0.5,0s0.1,0,0.1,0.1c0,0.2,0.4,1.8,0.5,1.9
						c0,0.1,0,0.1,0,0.1l-0.2,0.1h-0.1c-0.1-0.1-1.1-1.1-1.4-1.3c-0.2-0.2-0.6-0.3-0.9-0.3H115L114.8,21.4z"/>
				</g>
				<g>
					<path class="st5" d="M123.9,18.1h-0.4c-0.4,0-1.1,0-1.6,0.2c-0.3,0.2-0.8,0.9-1.1,1.3c0,0.1-0.1,0.1-0.1,0.1l-0.3-0.1
						c0,0-0.1-0.1,0-0.1c0.1-0.5,0.5-2,0.6-2.3c0-0.2,0.1-0.2,0.2-0.2s0.1,0,0.2,0.2s0.4,0.3,0.8,0.3c0.6,0,1.1,0.1,2.3,0.1h0.7
						c1.3,0,1.8,0,2.3-0.1c0.3,0,0.7-0.2,0.9-0.3c0.1-0.1,0.2-0.2,0.3-0.2s0.1,0,0.1,0.2c0,0.3,0.3,1.7,0.4,2.3v0.1l-0.2,0.1
						c0,0-0.1,0-0.1-0.1c-0.3-0.4-0.7-1-1-1.3c-0.3-0.2-1.3-0.2-1.6-0.2h-0.4v3.2c0,0.2,0,3.4,0,3.6c0,0.3,0.1,0.5,0.4,0.5h0.5
						c0.1,0,0.1,0,0.1,0.1v0.3c0,0.1,0,0.1-0.1,0.1s-0.5,0-1.8,0c-1.2,0-1.7,0-1.9,0c-0.1,0-0.1,0-0.1-0.1v-0.2c0-0.1,0-0.1,0.1-0.1
						h0.6c0.2,0,0.4-0.1,0.4-0.4c0-0.2,0-3.8,0-4.1v-2.9H123.9z"/>
				</g>
				<g>
					<path class="st5" d="M133.7,18.1h-0.4c-0.4,0-1.1,0-1.6,0.2c-0.3,0.2-0.8,0.9-1.1,1.3c0,0.1-0.1,0.1-0.1,0.1l-0.3-0.1
						c0,0-0.1-0.1,0-0.1c0.1-0.5,0.5-2,0.6-2.3c0-0.2,0.1-0.2,0.2-0.2c0.1,0,0.1,0,0.2,0.2c0.1,0.2,0.4,0.3,0.8,0.3
						c0.6,0,1.1,0.1,2.3,0.1h0.7c1.3,0,1.8,0,2.3-0.1c0.3,0,0.7-0.2,0.9-0.3c0.1-0.1,0.2-0.2,0.3-0.2s0.1,0,0.1,0.2
						c0,0.3,0.3,1.7,0.4,2.3v0.1l-0.2,0.1c0,0-0.1,0-0.1-0.1c-0.3-0.4-0.7-1-1-1.3c-0.3-0.2-1.3-0.2-1.6-0.2h-0.4v3.2
						c0,0.2,0,3.4,0,3.6c0,0.3,0.1,0.5,0.4,0.5h0.5c0.1,0,0.1,0,0.1,0.1v0.3c0,0.1,0,0.1-0.1,0.1s-0.5,0-1.8,0c-1.2,0-1.7,0-1.9,0
						c-0.1,0-0.1,0-0.1-0.1v-0.2c0-0.1,0-0.1,0.1-0.1h0.6c0.2,0,0.4-0.1,0.4-0.4c0-0.2,0-3.8,0-4.1v-2.9H133.7z"/>
				</g>
				<g>
					<path class="st5" d="M142.9,21.4c0.5,0,1.1,0,1.2-0.1c0.2,0,0.4-0.2,0.5-0.4c0.1-0.2,0.3-0.5,0.3-0.7c0-0.1,0-0.1,0.1-0.1h0.3
						c0.1,0,0.1,0,0.1,0.1c0,0.2,0,0.8,0,1.2c0,0.5,0,1.1,0.1,1.3c0,0.1,0,0.1-0.1,0.1l-0.3,0.1c0,0-0.1,0-0.1-0.1
						c0-0.2-0.2-0.5-0.2-0.6c-0.1-0.2-0.4-0.4-0.6-0.4c-0.3,0-0.7-0.1-1.2-0.1v0.7c0,0.6,0.1,1.8,0.1,2c0,0.6,0.1,0.8,0.3,0.9
						s0.4,0.1,1,0.1c0.2,0,0.7,0,0.9,0s0.6-0.1,0.9-0.4c0.3-0.2,1-1,1.2-1.3c0,0,0.1-0.1,0.1,0l0.2,0.1c0,0,0.1,0.1,0,0.1l-0.5,1.8
						c0,0.1-0.1,0.2-0.3,0.2c-0.1,0-0.3,0-1.1,0s-2,0-4,0c-0.4,0-0.8,0-1,0s-0.4,0-0.5,0s-0.1,0-0.1-0.1v-0.2c0-0.1,0-0.1,0.1-0.1
						h0.4c0.5,0,0.6-0.1,0.6-0.5v-4c0-1,0-2.4,0-2.5c0-0.4-0.2-0.5-0.5-0.5h-0.5c0,0-0.1,0-0.1-0.1v-0.3c0,0,0-0.1,0.1-0.1
						c0.3,0,0.7,0,1.7,0h4.1c0.2,0,0.4,0,0.5,0s0.1,0,0.1,0.1c0,0.2,0.4,1.8,0.5,1.9c0,0.1,0,0.1,0,0.1l-0.2,0.1h-0.1
						c-0.1-0.1-1.1-1.1-1.4-1.3c-0.2-0.2-0.6-0.3-0.9-0.3h-1.5L142.9,21.4z"/>
				</g>
				<g>
					<path class="st5" d="M149.8,20.5c0-0.9,0-1.6,0-1.9c0-0.4-0.2-0.6-0.3-0.6H149c-0.1,0-0.1,0-0.1-0.1v-0.3c0-0.1,0-0.1,0.1-0.1
						s0.5,0,1.7,0c0.7,0,1.7,0,2.2,0c0.9,0,1.6,0.3,2.1,0.8c0.4,0.4,0.7,0.8,0.7,1.3c0,1.5-1.1,2.2-2.1,2.2v0.1
						c0.4,0.1,0.5,0.3,0.8,0.6c0.2,0.2,0.8,1.2,0.9,1.4c0.1,0.1,0.7,1,0.9,1.3c0.1,0.2,0.6,0.2,0.9,0.2c0.1,0,0.1,0,0.1,0.1v0.3
						c0,0.1,0,0.1-0.1,0.1s-0.4,0-1.3,0c-0.3,0-0.8,0-1.1,0c-0.4-0.3-1.1-1.6-1.3-2c-0.4-0.8-0.9-1.7-1.4-1.7h-0.4v0.6
						c0,0.7,0,2,0.1,2.1c0,0.2,0.1,0.5,0.3,0.5h0.5c0.1,0,0.1,0,0.1,0.1v0.3c0,0.1,0,0.1-0.2,0.1c0,0-0.3,0-1.5,0s-1.5,0-1.6,0
						s-0.1,0-0.1-0.1v-0.3c0-0.1,0-0.1,0.1-0.1h0.4c0.3,0,0.5-0.1,0.5-0.4c0-1.2,0-2.3,0-3.4v-1.1H149.8z M151.4,21.8
						c0.2,0,0.4,0,0.5,0c1.5,0,1.9-1.5,1.9-2s-0.2-1.1-0.4-1.3c-0.4-0.4-0.9-0.5-1.3-0.5c-0.2,0-0.4,0-0.4,0.1
						c-0.1,0-0.1,0.2-0.1,0.3L151.4,21.8z"/>
				</g>
			</g>
			<g>
				<path class="st5" d="M104.9,21.1c0,0.3,0,3.6,0,4.2h0.9c0.7,0,1.4,0,2.2-0.1c0.8-0.1,1.9-1.9,2.1-2.5c0-0.1,0.1-0.1,0.2-0.1
					l0.3,0.1c0,0,0,0,0,0.1s-0.7,2.6-0.7,3c-0.4,0-4.8,0-6.2,0c-1.5,0-2.1,0-2.3,0c-0.1,0-0.1,0-0.1-0.1v-0.4c0-0.1,0-0.1,0.1-0.1
					h0.5c0.6,0,0.7-0.2,0.7-0.4c0-0.3,0-4.1,0-5V19c0-1,0-2.6,0-2.8c0-0.4-0.1-0.5-0.5-0.5h-0.6c-0.1,0-0.1-0.1-0.1-0.2v-0.4
					c0-0.1,0-0.1,0.1-0.1c0.2,0,0.7,0,2.1,0c1.8,0,2.4,0,2.6,0c0.1,0,0.1,0,0.1,0.2v0.4c0,0.1,0,0.1-0.2,0.1h-0.7
					c-0.5,0-0.5,0.2-0.5,0.6c0,0.2,0,2.5,0,3.6V21.1z"/>
			</g>
		</g>
		<g>
			<g>
				<g>
					<path class="st5" d="M174.7,20.9c0-0.3,0-2.4,0-2.5c0-0.3-0.1-0.4-0.4-0.4h-0.6c-0.1,0-0.1,0-0.1-0.1v-0.3c0,0,0-0.1,0.1-0.1
						s0.7,0,1.9,0s1.6,0,1.7,0c0.1,0,0.1,0,0.1,0.1v0.3c0,0.1,0,0.1-0.1,0.1H177c-0.3,0-0.5,0.1-0.5,0.3c0,0.1,0,2.7,0,2.8V22
						c0,0.1,0,2.8,0,2.9c0,0.4,0.2,0.4,0.4,0.4h0.5c0.1,0,0.1,0,0.1,0.1v0.3c0,0,0,0.1-0.1,0.1s-0.6,0-1.7,0c-1.2,0-1.7,0-1.9,0
						c-0.1,0-0.1,0-0.1-0.1v-0.3c0,0,0-0.1,0.1-0.1h0.3c0.2,0,0.5,0,0.5-0.3c0-0.2,0.1-2.7,0.1-3.3L174.7,20.9L174.7,20.9z"/>
				</g>
				<g>
					<path class="st5" d="M180.1,20.7c0-0.4,0-1.9,0-2c0-0.7-0.2-0.7-0.6-0.7h-0.4c-0.1,0-0.1,0-0.1-0.1v-0.3c0-0.1,0-0.1,0.1-0.1
						c0.2,0,0.7,0,1.8,0c0.4,0,1.1,0,1.9,0c0.8,0,1.6,0.1,2,0.3c0.7,0.4,0.9,0.9,0.9,1.6c0,0.8-0.5,1.5-1.7,1.9l0,0
						c1.4,0.4,2.2,1.1,2.2,2.3c0,0.6-0.4,1.5-0.9,1.8c-0.5,0.2-1.3,0.4-2.7,0.4c-0.1,0-0.4,0-0.7,0s-0.7,0-0.9,0c-0.6,0-1,0-1.2,0
						s-0.4,0-0.5,0s-0.1,0-0.1-0.1v-0.3c0-0.1,0-0.1,0.1-0.1h0.4c0.4,0,0.4-0.1,0.5-0.5c0-0.3,0.1-1.8,0.1-2.8v-1.3H180.1z
						 M181.8,21.2c0.5,0,1.2,0,1.6-0.3c0.4-0.3,0.6-0.9,0.6-1.4c0-0.4-0.1-0.9-0.5-1.2c-0.4-0.3-1-0.4-1.1-0.4c-0.2,0-0.5,0-0.5,0.2
						s0,1.2,0,2.2v0.9H181.8z M181.8,23.9c0,1.1,0.3,1.6,0.9,1.6c0.8,0,1.6-0.4,1.6-1.9c0-0.9-0.4-1.6-1.1-1.8
						c-0.6-0.2-1.1-0.2-1.4-0.2V23.9z"/>
				</g>
				<g>
					<path class="st5" d="M190.3,22.2c0,0.2,0,2.7,0,3.2h0.7c0.5,0,1.1,0,1.7-0.1c0.6-0.1,1.4-1.5,1.6-1.9c0-0.1,0.1-0.1,0.1-0.1
						l0.2,0.1c0,0,0,0,0,0.1s-0.5,2-0.6,2.3c-0.3,0-3.7,0-4.7,0c-1.2,0-1.6,0-1.7,0c-0.1,0-0.1,0-0.1-0.1v-0.3c0-0.1,0-0.1,0.1-0.1
						h0.4c0.4,0,0.5-0.2,0.5-0.3c0-0.2,0-3.1,0-3.8v-0.7c0-0.7,0-2,0-2.2c0-0.3-0.1-0.4-0.4-0.4h-0.4c-0.1,0-0.1-0.1-0.1-0.1v-0.3
						c0-0.1,0-0.1,0.1-0.1s0.5,0,1.6,0c1.4,0,1.9,0,2,0s0.1,0,0.1,0.1v0.3c0,0.1,0,0.1-0.1,0.1h-0.5c-0.4,0-0.4,0.1-0.4,0.4
						c0,0.2,0,1.9,0,2.7v1.2H190.3z"/>
				</g>
				<g>
					<path class="st5" d="M198.7,21.3c0.5,0,1.1,0,1.2-0.1c0.2,0,0.4-0.2,0.5-0.4c0.1-0.2,0.3-0.5,0.3-0.7c0-0.1,0-0.1,0.1-0.1h0.3
						c0.1,0,0.1,0,0.1,0.1c0,0.2,0,0.8,0,1.2c0,0.5,0,1.1,0.1,1.3c0,0.1,0,0.1-0.1,0.1l-0.3,0.1c0,0-0.1,0-0.1-0.1
						c0-0.2-0.2-0.5-0.2-0.6c-0.1-0.2-0.4-0.4-0.6-0.4c-0.3,0-0.7-0.1-1.2-0.1v0.7c0,0.6,0.1,1.8,0.1,2c0,0.6,0.1,0.8,0.3,0.9
						s0.4,0.1,1,0.1c0.2,0,0.7,0,0.9,0s0.6-0.1,0.9-0.4c0.3-0.2,1-1,1.2-1.2c0,0,0.1-0.1,0.1,0l0.2,0.1c0,0,0.1,0.1,0,0.1l-0.5,1.8
						c0,0.1-0.1,0.2-0.3,0.2c-0.1,0-0.3,0-1.1,0s-2,0-4,0c-0.4,0-0.8,0-1,0s-0.4,0-0.5,0s-0.1,0-0.1-0.1v-0.2c0-0.1,0-0.1,0.1-0.1
						h0.4c0.5,0,0.6-0.1,0.6-0.5v-4c0-1,0-2.4,0-2.5c0-0.4-0.2-0.5-0.5-0.5H196c0,0-0.1,0-0.1-0.1v-0.3c0,0,0-0.1,0.1-0.1
						c0.3,0,0.7,0,1.7,0h4.1c0.2,0,0.4,0,0.5,0s0.1,0,0.1,0.1c0,0.2,0.4,1.8,0.5,1.9c0,0.1,0,0.1,0,0.1l-0.2,0.1h-0.1
						c-0.1-0.1-1.1-1.1-1.4-1.3c-0.2-0.2-0.6-0.3-0.9-0.3h-1.5L198.7,21.3z"/>
				</g>
			</g>
			<g>
				<path class="st5" d="M163.8,19.2c0-0.6,0-2.4,0-2.7c0-0.9-0.3-0.9-0.8-0.9h-0.5c-0.1,0-0.1,0-0.1-0.1v-0.4c0-0.1,0-0.1,0.1-0.1
					c0.2,0,0.9,0,2.4,0c0.5,0,1.4,0,2.4,0c1.1,0,2.1,0.1,2.6,0.4c0.9,0.5,1.2,1.2,1.2,2.1c0,1-0.6,2-2.2,2.5l0,0
					c1.9,0.5,2.9,1.4,2.9,3c0,0.8-0.5,2-1.2,2.3c-0.6,0.3-1.7,0.6-3.6,0.6c-0.1,0-0.5,0-1,0c-0.4,0-0.9,0-1.2,0c-0.8,0-1.3,0-1.6,0
					s-0.5,0-0.6,0c-0.2,0-0.2,0-0.2-0.2v-0.3c0-0.1,0-0.1,0.2-0.1h0.5c0.5,0,0.5-0.2,0.6-0.6c0-0.4,0.1-2.4,0.1-3.6L163.8,19.2
					L163.8,19.2z M166,19.8c0.6,0.1,1.6,0,2-0.4c0.5-0.4,0.7-1.1,0.7-1.8c0-0.6-0.2-1.2-0.6-1.5c-0.5-0.4-1.3-0.5-1.4-0.5
					c-0.3,0-0.7,0-0.7,0.3s0,1.6,0,2.9V19.8z M166,23.3c0,1.5,0.3,2,1.1,2c1.1,0,2.1-0.5,2.1-2.4c0-1.2-0.5-2-1.4-2.4
					c-0.8-0.3-1.5-0.3-1.9-0.3L166,23.3L166,23.3z"/>
			</g>
		</g>
	</g>
</g>
<g>
	<path class="st5" d="M38.9,39.4l-2.4,2.8l0.7-5.3l-17-1.4l3.9-10.3l1.2,0l0.2-1.1c-1.1-0.2-1.8-1.2-1.8-2.3V5.8
		c0-1.3,1.1-2.4,2.4-2.4h25.5c1.3,0,2.4,1.1,2.4,2.4v15.9c0,0.9-0.5,1.7-1.2,2.1l0.3,1.2l0.8,0.1l3.7,9.9l-16.9,1.7l0.6,5.5
		L38.9,39.4z"/>
	<path class="st5" d="M56.8,34.7l-3.4-9.2l-0.8-0.1l-0.4-1.8c0.8-0.3,1.3-1,1.3-1.8v-16c0-1.1-0.9-2-2-2H26c-1.1,0-2,0.9-2,2v15.9
		c0,1.1,0.8,1.9,1.9,2l-0.4,1.8l-1.2,0l-3.6,9.5l16.9,1.4l-0.6,4.4l1.8-2.1l1.6,2.1L40,36.4L56.8,34.7z"/>
	<path d="M53.5,21.8c0,1.1-0.9,2-2,2H26c-1.1,0-2-0.9-2-2V5.8c0-1.1,0.9-2,2-2h25.5c1.1,0,2,0.9,2,2V21.8z"/>
	
		<radialGradient id="SVGID_1_" cx="-143.8698" cy="208.6204" r="14.048" gradientTransform="matrix(1.033 0 0 1.0351 187.151 -202.4628)" gradientUnits="userSpaceOnUse">
		<stop  offset="0" style="stop-color:#FFFFFF"/>
		<stop  offset="9.099999e-02" style="stop-color:#FFFFFF"/>
		<stop  offset="0.102" style="stop-color:#FBFCFD"/>
		<stop  offset="0.282" style="stop-color:#C0CAD8"/>
		<stop  offset="0.455" style="stop-color:#8EA0BA"/>
		<stop  offset="0.617" style="stop-color:#677FA3"/>
		<stop  offset="0.766" style="stop-color:#4C6892"/>
		<stop  offset="0.897" style="stop-color:#3B5A88"/>
		<stop  offset="0.995" style="stop-color:#355584"/>
		<stop  offset="1" style="stop-color:#355584"/>
	</radialGradient>
	<polygon class="st6" points="51.6,21.7 25.9,21.7 25.9,5.7 51.6,5.7 	"/>
	<path class="st5" d="M41.8,13.7l-6.1-3.6l1.7,6.5l1.1-1.7l1.7,2.2l1-1.1l-1.5-1.9L41.8,13.7z M40.5,16l-0.3,0.3l-1.8-2.1l-0.9,1.3
		l-1.1-4.2l4,2.3l-1.7,0.3L40.5,16z"/>
	<polygon points="40.5,13.5 36.5,11.2 37.5,15.4 38.4,14.1 40.2,16.3 40.5,16 38.8,13.8 	"/>
	<path class="st5" d="M51.6,22h-26V5.5h26.3V22H51.6z M26.1,21.5h25.3V6H26.1V21.5z"/>
	<g>
		<path d="M24.4,25.6l-3.6,9.5l16.9,1.4l-0.6,4.4l1.8-2.1l1.6,2.1L40,36.4l16.8-1.6l-3.4-9.2l-0.8-0.1l-0.7-3.2
			c-1-0.7-2.7-1.8-5.4-1.7c-2,0.1-4.7,0.7-7.8,3c-1.7-1.2-4.1-3-7-3c-2.9,0-5.5,1.6-5.6,2.2l-0.6,2.7L24.4,25.6z"/>
		<path class="st5" d="M27.6,23L25.2,32c1.4-0.7,3.9-1.4,6.7-1c1.8,0.3,3.8,0.9,5.8,2.5l1-7.4l0.8,7.5c1.4-1.2,3.6-2.2,6.1-2.6
			c2-0.3,4.8-0.2,6.7,0.9l-2.4-9.5c-1.5-0.9-3.9-1.1-6-0.6c-1.5,0.4-3.1,1.1-5.2,3.1C36.4,22.6,31.8,20.3,27.6,23z"/>
	</g>
</g>
</svg>
