<?xml version="1.0" encoding="utf-8"?>
<!-- Generator: Adobe Illustrator 19.2.0, SVG Export Plug-In . SVG Version: 6.00 Build 0)  -->
<svg version="1.1" id="Layer_1" xmlns="http://www.w3.org/2000/svg" xmlns:xlink="http://www.w3.org/1999/xlink" x="0px" y="0px"
	 viewBox="0 0 172 50" style="enable-background:new 0 0 172 50;" xml:space="preserve">
<style type="text/css">
	.st0{fill:#44608F;}
	.st1{fill:#6980A3;}
	.st2{fill:#5C749A;}
	.st3{fill:#627B9F;}
	.st4{fill:#4E678F;}
	.st5{fill:#FFFFFF;}
</style>
<rect class="st0" width="172" height="50"/>
<rect x="1.1" class="st1" width="169.9" height="49"/>
<rect x="1.8" class="st2" width="168.4" height="48.2"/>
<rect x="4.8" class="st1" width="162" height="44.9"/>
<rect x="5.7" class="st3" width="160.2" height="44.1"/>
<g>
	<path class="st4" d="M52.8,37.1l1.7,0.1c-0.1,0.7-0.4,1.3-0.8,1.7c-0.5,0.4-1,0.6-1.7,0.6c-0.8,0-1.5-0.3-2-0.8s-0.8-1.3-0.8-2.2
		s0.2-1.7,0.7-2.3s1.1-0.9,2-0.9c0.8,0,1.4,0.2,1.8,0.7c0.4,0.4,0.7,1,0.7,1.7l-1.7,0.1c0-0.4-0.1-0.7-0.2-0.9
		c-0.2-0.2-0.3-0.3-0.5-0.3c-0.6,0-0.9,0.6-0.9,1.7c0,0.7,0.1,1.1,0.2,1.3c0.2,0.2,0.4,0.4,0.6,0.4C52.4,38.1,52.7,37.8,52.8,37.1z"
		/>
	<path class="st4" d="M59.3,38v1.5h-4.2v-6H57V38H59.3z"/>
	<path class="st4" d="M61.8,33.4v6H60v-6H61.8z"/>
	<path class="st4" d="M66.1,37.1l1.7,0.1c-0.1,0.7-0.4,1.3-0.8,1.7c-0.5,0.4-1,0.6-1.7,0.6c-0.8,0-1.5-0.3-2-0.8s-0.8-1.3-0.8-2.2
		s0.2-1.7,0.7-2.3s1.1-0.9,2-0.9c0.8,0,1.4,0.2,1.8,0.7c0.4,0.4,0.7,1,0.7,1.7L66,35.8c0-0.4-0.1-0.7-0.2-0.9
		c-0.2-0.2-0.3-0.3-0.5-0.3c-0.6,0-0.9,0.6-0.9,1.7c0,0.7,0.1,1.1,0.2,1.3c0.2,0.2,0.4,0.4,0.6,0.4C65.8,38.1,66.1,37.8,66.1,37.1z"
		/>
	<path class="st4" d="M73.9,39.4h-2l-1-2.3L70.3,38v1.4h-1.7v-6h1.7v2.5l1.7-2.5h1.7L72,35.6L73.9,39.4z"/>
	<path class="st4" d="M79.1,34.9v4.6h-1.7v-4.6h-1.2v-1.4h4.2v1.4H79.1z"/>
	<path class="st4" d="M83.5,39.5c-0.8,0-1.5-0.3-2.1-0.8c-0.5-0.6-0.8-1.3-0.8-2.2s0.3-1.6,0.8-2.2c0.5-0.6,1.2-0.9,2.1-0.9
		c0.8,0,1.5,0.3,2,0.8c0.5,0.6,0.8,1.3,0.8,2.2c0,1-0.3,1.7-0.8,2.3C85,39.2,84.3,39.5,83.5,39.5z M83.5,38.2c0.3,0,0.5-0.1,0.7-0.4
		c0.1-0.3,0.2-0.8,0.2-1.5c0-1-0.3-1.6-0.8-1.6c-0.6,0-0.9,0.6-0.9,1.8C82.6,37.6,82.9,38.2,83.5,38.2z"/>
	<path class="st4" d="M92.7,37.1l1.7,0.1c-0.1,0.7-0.4,1.3-0.8,1.7c-0.5,0.4-1,0.6-1.7,0.6c-0.8,0-1.5-0.3-2-0.8s-0.8-1.3-0.8-2.2
		s0.2-1.7,0.7-2.3s1.1-0.9,2-0.9c0.8,0,1.4,0.2,1.8,0.7c0.4,0.4,0.7,1,0.7,1.7l-1.7,0.1c0-0.4-0.1-0.7-0.2-0.9
		c-0.2-0.2-0.3-0.3-0.5-0.3c-0.6,0-0.9,0.6-0.9,1.7c0,0.7,0.1,1.1,0.2,1.3c0.2,0.2,0.4,0.4,0.6,0.4C92.3,38.1,92.6,37.8,92.7,37.1z"
		/>
	<path class="st4" d="M100.1,33.4v6h-1.8v-2.3h-1.4v2.3H95v-6h1.8v2.2h1.4v-2.2H100.1z"/>
	<path class="st4" d="M104.4,39.4l-0.3-1.2h-1.6l-0.4,1.2h-1.5l1.9-6h1.9l1.9,6H104.4z M102.8,36.9h1l-0.5-1.7L102.8,36.9z"/>
	<path class="st4" d="M112,39.4h-1.5l-1.6-2.7c-0.2-0.3-0.4-0.8-0.6-1.2c0.1,0.4,0.1,0.7,0.1,1v2.9h-1.5v-6h1.7l1.4,2.2
		c0.3,0.4,0.5,0.8,0.6,1.2c-0.1-0.5-0.1-1-0.1-1.6v-1.8h1.5V39.4z"/>
	<path class="st4" d="M118.2,36.1v3.4h-0.9c-0.1-0.2-0.2-0.5-0.2-0.6c-0.4,0.5-0.9,0.7-1.7,0.7c-0.8,0-1.4-0.3-1.9-0.8
		s-0.7-1.3-0.7-2.2s0.2-1.6,0.7-2.3c0.5-0.6,1.2-0.9,2.2-0.9c0.7,0,1.3,0.2,1.7,0.5s0.7,0.9,0.8,1.5l-1.8,0.2
		c-0.1-0.6-0.4-0.9-0.8-0.9c-0.6,0-0.9,0.6-0.9,1.7c0,0.7,0.1,1.2,0.3,1.4c0.2,0.2,0.4,0.3,0.7,0.3c0.2,0,0.4-0.1,0.6-0.2
		c0.2-0.1,0.2-0.3,0.2-0.6h-1V36L118.2,36.1L118.2,36.1z"/>
	<path class="st4" d="M123.7,38v1.4h-4.5v-6h4.5v1.4H121v0.9h2.2V37H121v1H123.7z"/>
</g>
<g>
	<path class="st5" d="M51.6,35.5l1.7,0.1c-0.1,0.7-0.4,1.3-0.8,1.7c-0.5,0.4-1,0.6-1.7,0.6c-0.8,0-1.5-0.3-2-0.8S48,35.8,48,34.9
		s0.2-1.7,0.7-2.3s1.1-0.9,2-0.9c0.8,0,1.4,0.2,1.8,0.7c0.4,0.4,0.7,1,0.7,1.7l-1.7,0.1c0-0.4-0.1-0.7-0.2-0.9
		C51.1,33.1,51,33,50.8,33c-0.6,0-0.9,0.6-0.9,1.7c0,0.7,0.1,1.1,0.2,1.3c0.2,0.2,0.4,0.4,0.6,0.4C51.2,36.5,51.5,36.2,51.6,35.5z"
		/>
	<path class="st5" d="M58.1,36.3v1.5h-4.2v-6h1.8v4.5H58.1z"/>
	<path class="st5" d="M60.6,31.8v6h-1.8v-6H60.6z"/>
	<path class="st5" d="M65,35.5l1.7,0.1c-0.1,0.7-0.4,1.3-0.8,1.7c-0.5,0.4-1,0.6-1.7,0.6c-0.8,0-1.5-0.3-2-0.8s-0.8-1.3-0.8-2.2
		s0.2-1.7,0.7-2.3c0.5-0.6,1.1-0.9,2-0.9c0.8,0,1.4,0.2,1.8,0.7c0.4,0.4,0.7,1,0.7,1.7l-1.7,0.1c0-0.4-0.1-0.7-0.2-0.9
		c-0.2-0.2-0.3-0.3-0.5-0.3c-0.6,0-0.9,0.6-0.9,1.7c0,0.7,0.1,1.1,0.2,1.3c0.2,0.2,0.4,0.4,0.6,0.4C64.6,36.5,64.9,36.2,65,35.5z"/>
	<path class="st5" d="M72.7,37.8h-2l-1-2.3L69,36.4v1.4h-1.7v-6H69v2.5l1.7-2.5h1.7L70.8,34L72.7,37.8z"/>
	<path class="st5" d="M77.9,33.3v4.6h-1.7v-4.6H75v-1.4h4.2v1.4H77.9z"/>
	<path class="st5" d="M82.3,37.9c-0.8,0-1.5-0.3-2.1-0.8c-0.5-0.6-0.8-1.3-0.8-2.2s0.3-1.6,0.8-2.2c0.5-0.6,1.2-0.9,2.1-0.9
		c0.8,0,1.5,0.3,2,0.8c0.5,0.6,0.8,1.3,0.8,2.2c0,1-0.3,1.7-0.8,2.3C83.8,37.6,83.1,37.9,82.3,37.9z M82.3,36.5
		c0.3,0,0.5-0.1,0.7-0.4c0.1-0.3,0.2-0.8,0.2-1.5c0-1-0.3-1.6-0.8-1.6c-0.6,0-0.9,0.6-0.9,1.8C81.4,36,81.7,36.5,82.3,36.5z"/>
	<path class="st5" d="M91.5,35.5l1.7,0.1c-0.1,0.7-0.4,1.3-0.8,1.7c-0.5,0.4-1,0.6-1.7,0.6c-0.8,0-1.5-0.3-2-0.8s-0.8-1.3-0.8-2.2
		s0.2-1.7,0.7-2.3c0.5-0.6,1.1-0.9,2-0.9c0.8,0,1.4,0.2,1.8,0.7c0.4,0.5,0.7,1,0.7,1.7l-1.7,0.1c0-0.4-0.1-0.7-0.2-0.9
		C91,33.1,90.9,33,90.7,33c-0.6,0-0.9,0.6-0.9,1.7c0,0.7,0.1,1.1,0.2,1.3c0.2,0.2,0.4,0.4,0.6,0.4C91.1,36.5,91.4,36.2,91.5,35.5z"
		/>
	<path class="st5" d="M98.9,31.8v6h-1.8v-2.3h-1.4v2.3h-1.8v-6h1.8V34h1.4v-2.2H98.9z"/>
	<path class="st5" d="M103.3,37.8l-0.3-1.2h-1.6l-0.4,1.2h-1.5l1.9-6h1.9l1.9,6H103.3z M101.6,35.3h1l-0.5-1.7L101.6,35.3z"/>
	<path class="st5" d="M110.8,37.8h-1.5l-1.6-2.7c-0.2-0.3-0.4-0.8-0.6-1.2c0.1,0.4,0.1,0.7,0.1,1v2.9h-1.5v-6h1.7l1.4,2.2
		c0.3,0.4,0.5,0.8,0.6,1.2c-0.1-0.5-0.1-1-0.1-1.6v-1.8h1.5V37.8z"/>
	<path class="st5" d="M117,34.5v3.4h-0.9c-0.1-0.2-0.2-0.5-0.2-0.6c-0.4,0.5-0.9,0.7-1.7,0.7c-0.8,0-1.4-0.3-1.9-0.8
		s-0.7-1.3-0.7-2.2s0.2-1.6,0.7-2.3c0.5-0.6,1.2-0.9,2.2-0.9c0.7,0,1.3,0.2,1.7,0.5s0.7,0.9,0.8,1.5l-1.8,0.2
		c-0.1-0.6-0.4-0.9-0.8-0.9c-0.6,0-0.9,0.6-0.9,1.7c0,0.7,0.1,1.2,0.3,1.4c0.2,0.2,0.4,0.3,0.7,0.3c0.2,0,0.4-0.1,0.6-0.2
		c0.2-0.1,0.2-0.3,0.2-0.6h-1v-1.3L117,34.5L117,34.5z"/>
	<path class="st5" d="M122.5,36.4v1.4H118v-6h4.5v1.4h-2.7v0.9h2.2v1.3h-2.2v1C119.8,36.4,122.5,36.4,122.5,36.4z"/>
</g>
<g>
	<path class="st4" d="M82.9,9.9v2.7h-1.1l-3.4,16.1h-4.2l-3-14.8l0,0L68,28.7h-4.2l-3.3-16.1h-1.1V9.9h6.7v2.7H64l2.1,11.9l0,0
		l3.1-14.6h4.3l3,14.6l0,0l2.3-11.9h-2.2V9.9C76.6,9.9,82.9,9.9,82.9,9.9z"/>
	<path class="st4" d="M84.1,28.7v-2.8H86V12.6h-1.9V9.9H92v2.7h-2.6v13.3h5.2v-3.8h2.9v6.6C97.5,28.8,84.1,28.8,84.1,28.7z"/>
	<path class="st4" d="M114.7,9.9v6.9h-3.1c0-1.4-0.4-2.5-1.1-3.4s-1.7-1.2-2.9-1.2c-1.6,0-2.8,0.7-3.5,2.2c-0.7,1.4-1.1,3.2-1.1,5.4
		c0,1.9,0.4,3.5,1.2,4.7c0.8,1.2,2,1.9,3.6,1.9c1,0,1.9-0.4,2.5-1.1c0.7-0.8,1-1.7,1.1-2.9h3.3c0,1.6-0.4,2.9-1.1,4
		c-0.7,1-1.6,1.8-2.6,2.2s-2.2,0.7-3.3,0.7c-2.7,0-4.8-0.9-6.2-2.7s-2.1-4.1-2.1-7c0-1.9,0.3-3.7,0.9-5.2s1.4-2.7,2.6-3.5
		c1.1-0.8,2.5-1.3,4.2-1.3c2.1,0,3.6,0.9,4.6,2.6l0,0v-2.2h3V9.9z"/>
</g>
<g>
	<path class="st5" d="M81.4,7.9v2.7h-1.1l-3.4,16.1h-4.2l-3-14.8l0,0l-3.2,14.8h-4.2L59,10.6h-1V7.9h6.7v2.7h-2.2l2.1,11.9l0,0
		l3.1-14.6H72l3,14.6l0,0l2.3-11.9h-2.2V7.9H81.4z"/>
	<path class="st5" d="M82.6,26.8V24h1.9V10.6h-1.9V7.9h7.9v2.7h-2.6V24h5.2v-3.8H96v6.6H82.6z"/>
	<path class="st5" d="M113.2,7.9v6.9h-3.1c0-1.4-0.4-2.5-1.1-3.4s-1.7-1.2-2.9-1.2c-1.6,0-2.8,0.7-3.5,2.2c-0.7,1.4-1.1,3.2-1.1,5.4
		c0,1.9,0.4,3.5,1.2,4.7c0.8,1.2,2,1.9,3.6,1.9c1,0,1.9-0.4,2.5-1.1c0.7-0.8,1-1.7,1.1-2.9h3.3c0,1.6-0.4,2.9-1.1,4
		c-0.7,1-1.6,1.8-2.6,2.2s-2.2,0.7-3.3,0.7c-2.7,0-4.8-0.9-6.2-2.7s-2.1-4.1-2.1-7c0-1.9,0.3-3.7,0.9-5.2s1.4-2.7,2.6-3.5
		c1.1-0.8,2.5-1.3,4.2-1.3c2.1,0,3.6,0.9,4.6,2.6l0,0V7.9H113.2z"/>
</g>
</svg>
