<?xml version="1.0" encoding="utf-8"?>
<!-- Generator: Adobe Illustrator 22.1.0, SVG Export Plug-In . SVG Version: 6.00 Build 0)  -->
<svg version="1.1" id="Layer_2_1_" xmlns="http://www.w3.org/2000/svg" xmlns:xlink="http://www.w3.org/1999/xlink" x="0px" y="0px"
	 viewBox="0 0 674.4 333.7" style="enable-background:new 0 0 674.4 333.7;" xml:space="preserve">
<style type="text/css">
	.st0{fill:#FFFFFF;}
	.st1{fill:url(#SVGID_1_);}
</style>
<path class="st0" d="M426.1,152.3c3,0,5.9-0.2,6.7-0.4c1.1-0.3,2-0.9,3-2c0.7-1,1.5-2.8,1.5-4.1c0-0.5,0.2-0.6,0.5-0.6l1.8,0.2
	c0.3,0.1,0.6,0.1,0.5,0.5c-0.2,1.1-0.2,4.5-0.2,6.8c0,3,0.3,6.1,0.4,7.5c0.1,0.4-0.2,0.5-0.5,0.5l-1.6,0.3c-0.3,0.1-0.4-0.1-0.5-0.5
	c-0.3-1-0.9-2.6-1.3-3.4c-0.7-1.2-2.3-2.1-3.6-2.3c-1.8-0.3-3.8-0.4-6.7-0.4v3.9c0,3.5,0.3,9.9,0.3,11.1c0,3.4,0.7,4.6,1.6,5
	c1,0.4,2.2,0.6,5.5,0.6c1.1,0,3.9-0.1,5.3-0.2c1.3-0.1,3.3-0.8,5-2.2s5.4-5.5,6.7-7c0.3-0.3,0.5-0.3,0.7-0.2l1.1,0.7
	c0.3,0.1,0.3,0.3,0.3,0.5l-3,9.9c-0.2,0.6-0.7,1-1.4,1c-0.3,0-1.8-0.1-6-0.1c-4.3,0-11.2-0.1-22.6-0.1c-2.4,0-4.3,0.1-5.6,0.1
	c-1.4,0.1-2.2,0.1-2.8,0.1c-0.5,0-0.6-0.2-0.6-0.7v-1.4c0-0.4,0.2-0.6,0.7-0.6h2c3,0,3.3-0.5,3.3-2.8v-22c0-5.5-0.1-13.5-0.2-14.2
	c-0.3-2.1-0.9-2.6-2.7-2.6H411c-0.3,0-0.3-0.2-0.3-0.7v-1.6c0-0.2,0.1-0.5,0.5-0.5c1.4,0,3.7,0.2,9.7,0.2l23.1-0.1
	c1.1,0,2.3-0.1,2.6-0.1c0.3,0,0.5,0.1,0.5,0.3c0.3,0.9,2.4,9.9,2.7,10.6c0.1,0.3,0.1,0.5-0.2,0.7l-1,0.5c-0.3,0.1-0.6,0.1-0.8-0.3
	c-0.3-0.5-6.2-6.4-7.8-7.4c-1.4-0.9-3.2-1.7-5-1.8l-8.7-0.3L426.1,152.3z"/>
<path class="st0" d="M477.3,134H475c-2.1,0-6,0.1-8.8,1c-1.4,1.1-4.3,5.1-6,7.4c-0.2,0.3-0.4,0.5-0.7,0.5l-1.4-0.5
	c-0.3-0.1-0.3-0.4-0.3-0.6c0.7-2.8,2.9-11.4,3.2-12.7c0.2-0.9,0.5-1.1,1-1.1s0.7,0.3,1.2,1c0.7,0.9,2,1.5,4.3,1.6
	c3.5,0.2,6.2,0.4,13.1,0.4h3.8c7.2,0,10-0.3,12.7-0.4c1.4-0.1,4-0.9,4.8-1.6c0.7-0.7,1.1-1,1.5-1c0.5,0,0.7,0.3,0.8,1
	c0.2,1.4,1.4,9.6,2,13.1c0.1,0.3-0.1,0.5-0.3,0.6l-1.4,0.5c-0.3,0.1-0.4-0.1-0.7-0.6c-1.4-2.4-4-5.8-5.7-7.4c-1.6-1-7.5-1.2-9-1.2
	h-2.2v18c0,0.9,0,19.3,0.1,20.3c0.1,1.6,0.7,2.6,2.2,2.6h3c0.6,0,0.7,0.2,0.7,0.7v1.5c0,0.3-0.1,0.5-0.7,0.5
	c-0.7,0-2.8-0.2-10.1-0.2c-7,0-9.7,0.2-10.6,0.2c-0.5,0-0.6-0.3-0.6-0.8v-1.2c0-0.5,0.1-0.7,0.5-0.7h3.4c1.3,0,2.1-0.8,2.2-2
	c0.1-1.4,0.1-21.6,0.1-22.8V134H477.3z"/>
<path class="st0" d="M532.2,134h-2.3c-2.1,0-6,0.1-8.8,1c-1.4,1.1-4.3,5.1-6,7.4c-0.2,0.3-0.4,0.5-0.7,0.5l-1.4-0.5
	c-0.3-0.1-0.3-0.4-0.3-0.6c0.7-2.8,2.9-11.4,3.2-12.7c0.2-0.9,0.5-1.1,1-1.1s0.7,0.3,1.2,1c0.7,0.9,2,1.5,4.3,1.6
	c3.5,0.2,6.2,0.4,13.1,0.4h3.8c7.2,0,10-0.3,12.7-0.4c1.4-0.1,4-0.9,4.8-1.6c0.7-0.7,1.1-1,1.5-1c0.5,0,0.7,0.3,0.8,1
	c0.2,1.4,1.4,9.6,2,13.1c0.1,0.3-0.1,0.5-0.3,0.6l-1.4,0.5c-0.3,0.1-0.4-0.1-0.7-0.6c-1.4-2.4-4-5.8-5.6-7.4c-1.6-1-7.5-1.2-9-1.2
	H542v18c0,0.9,0,19.3,0.1,20.3c0.1,1.6,0.7,2.6,2.2,2.6h3c0.6,0,0.7,0.2,0.7,0.7v1.5c0,0.3-0.1,0.5-0.7,0.5c-0.7,0-2.8-0.2-10.1-0.2
	c-7,0-9.7,0.2-10.6,0.2c-0.5,0-0.6-0.3-0.6-0.8v-1.2c0-0.5,0.1-0.7,0.5-0.7h3.4c1.3,0,2.1-0.8,2.2-2c0.1-1.4,0.1-21.6,0.1-22.8
	L532.2,134L532.2,134z"/>
<path class="st0" d="M583.9,152.3c3,0,5.9-0.2,6.7-0.4c1.1-0.3,2-0.9,3-2c0.7-1,1.5-2.8,1.5-4.1c0-0.5,0.2-0.6,0.5-0.6l1.8,0.2
	c0.3,0.1,0.6,0.1,0.5,0.5c-0.2,1.1-0.2,4.5-0.2,6.8c0,3,0.3,6.1,0.4,7.5c0.1,0.4-0.2,0.5-0.5,0.5L596,161c-0.3,0.1-0.4-0.1-0.5-0.5
	c-0.3-1-0.9-2.6-1.3-3.4c-0.7-1.2-2.3-2.1-3.6-2.3c-1.8-0.3-3.8-0.4-6.7-0.4v3.9c0,3.5,0.3,9.9,0.3,11.1c0,3.4,0.7,4.6,1.6,5
	c1,0.4,2.2,0.6,5.5,0.6c1.1,0,3.9-0.1,5.3-0.2c1.3-0.1,3.3-0.8,5-2.2s5.4-5.5,6.7-7c0.3-0.3,0.5-0.3,0.7-0.2l1.1,0.7
	c0.3,0.1,0.3,0.3,0.3,0.5l-3,9.9c-0.2,0.6-0.7,1-1.4,1c-0.3,0-1.8-0.1-6-0.1c-4.3,0-11.2-0.1-22.6-0.1c-2.4,0-4.3,0.1-5.6,0.1
	c-1.4,0.1-2.2,0.1-2.8,0.1c-0.5,0-0.6-0.2-0.6-0.7v-1.4c0-0.4,0.2-0.6,0.7-0.6h2c3,0,3.3-0.5,3.3-2.8v-22c0-5.5-0.1-13.5-0.2-14.2
	c-0.3-2.1-0.9-2.6-2.7-2.6h-2.6c-0.3,0-0.3-0.2-0.3-0.7v-1.6c0-0.2,0.1-0.5,0.5-0.5c1.4,0,3.7,0.2,9.7,0.2l23.1-0.1
	c1.1,0,2.3-0.1,2.6-0.1s0.5,0.1,0.5,0.3c0.3,0.9,2.4,9.9,2.7,10.6c0.1,0.3,0.1,0.5-0.2,0.7l-1.1,0.5c-0.3,0.1-0.6,0.1-0.8-0.3
	c-0.3-0.5-6.2-6.4-7.8-7.4c-1.4-0.9-3.2-1.7-5-1.8l-8.7-0.3L583.9,152.3z"/>
<path class="st0" d="M622.7,147.6c0-4.9,0-9.1-0.1-10.8c-0.1-2.2-0.9-3.3-1.8-3.3h-2.6c-0.3,0-0.4-0.2-0.4-0.5v-1.8
	c0-0.3,0.1-0.5,0.4-0.5c0.6,0,2.6,0.2,9.8,0.2c3.7,0,9.5-0.2,12.2-0.2c5.1,0,8.9,1.8,11.6,4.3c2.4,2.2,3.7,4.7,3.7,7.2
	c0,8.3-6.2,12.1-12,12.6v0.5c2,0.7,3.1,1.9,4.3,3.5c0.9,1.1,4.5,6.9,5,7.7c0.4,0.6,3.9,5.6,5.3,7.1c0.8,0.9,3.3,1.4,4.8,1.4
	c0.5,0,0.5,0.3,0.5,0.5v1.6c0,0.4-0.1,0.6-0.5,0.6c-0.5,0-2.2-0.2-7.3-0.2c-1.9,0-4.3,0.1-6.2,0.2c-2-1.5-6-9.1-7.2-11.4
	c-2.2-4.5-4.9-9.3-8.1-9.3h-2.2v3.4c0,3.9,0.2,11.2,0.3,12.1c0.1,1.4,0.7,2.6,1.6,2.6h2.7c0.5,0,0.5,0.2,0.5,0.5v1.6
	c0,0.5-0.1,0.6-1.1,0.6c-0.1,0-1.7-0.2-8.6-0.2c-7,0-8.5,0.2-9.2,0.2c-0.5,0-0.5-0.2-0.5-0.7v-1.5c0-0.3,0-0.5,0.3-0.5h2
	c1.4,0,2.6-0.5,2.6-2.1c0.1-6.5,0.1-12.7,0.1-18.9v-6.5L622.7,147.6L622.7,147.6z M631.9,154.7c1.2,0.1,2,0.1,2.6,0.1
	c8.7,0,10.7-8.3,10.7-11.4c0-3-1.1-5.9-2.5-7.4c-2.4-2.1-5.3-2.9-7.3-2.9c-1.1,0-2,0.1-2.5,0.6c-0.4,0.3-0.6,1-0.7,1.8L631.9,154.7z
	"/>
<path class="st0" d="M370.3,150.5c0,1.5,0,20,0.3,23.4h4.9c4,0,7.9,0,12.5-0.4s10.5-10.7,11.8-13.9c0.3-0.5,0.5-0.8,1-0.5l1.7,0.7
	c0.3,0.2,0.3,0.3,0.2,0.8c-0.3,0.6-3.7,14.8-4.2,17.1c-2.2-0.2-27-0.3-34.9-0.3c-8.5,0-11.6,0.3-12.7,0.3c-0.6,0-0.7-0.2-0.7-0.8
	v-2.1c0-0.4,0.1-0.6,0.6-0.6h2.7c3.2,0,3.7-1.2,3.7-2.1c0-1.6,0.3-23,0.3-28.3V139c0-5.5-0.2-14.6-0.3-16c-0.2-2.2-0.6-3.1-2.6-3.1
	h-3.2c-0.5,0-0.6-0.4-0.6-0.9v-2.1c0-0.4,0.1-0.6,0.6-0.6c0.9,0,4,0.3,11.9,0.3c10,0,13.7-0.3,14.4-0.3c0.7,0,0.8,0.3,0.8,0.9v2
	c0,0.4-0.2,0.7-0.9,0.7h-4c-2.7,0-3,0.9-3,3.2c0,1.1-0.3,14.1-0.3,20.1L370.3,150.5L370.3,150.5z"/>
<g>
	<path class="st0" d="M419.7,231.9c0-1.6-0.2-13.4-0.3-14.3c-0.1-1.6-0.8-2.2-2.2-2.2H414c-0.3,0-0.5-0.1-0.5-0.4v-1.9
		c0-0.3,0.2-0.4,0.5-0.4c0.8,0,4.1,0.2,10.6,0.2c6.7,0,8.8-0.2,9.7-0.2c0.3,0,0.5,0.2,0.5,0.6v1.6c0,0.3-0.2,0.5-0.5,0.5h-1.9
		c-1.6,0-2.6,0.5-2.6,1.7c0,0.7-0.2,15.2-0.2,16v5.1c0,0.7,0.2,15.8,0.2,16.4c0,2,1,2.4,2.2,2.4h2.7c0.3,0,0.5,0.1,0.5,0.5v1.8
		c0,0.3-0.2,0.4-0.6,0.4c-0.8,0-3.4-0.2-9.7-0.2c-6.9,0-9.7,0.2-10.4,0.2c-0.3,0-0.5-0.1-0.5-0.5v-1.8c0-0.3,0.2-0.4,0.5-0.4h1.9
		c1.3,0,2.7-0.2,3-1.8c0.1-1,0.3-15.2,0.3-18.7V231.9z"/>
	<path class="st0" d="M449.9,230.8c0-2.4-0.1-10.4-0.2-11.5c-0.2-3.8-1.2-3.9-3.4-3.9h-2.1c-0.5,0-0.5-0.1-0.5-0.6v-1.5
		c0-0.4,0.1-0.6,0.5-0.6c0.9,0,4,0.2,10.3,0.2c2.1,0,6-0.2,10.5-0.2c4.7,0,8.9,0.5,11.2,1.8c3.7,2,5.1,5.1,5.1,8.9
		c0,4.3-2.6,8.5-9.6,10.8v0.1c8.1,2.1,12.4,6,12.4,13c0,3.5-2,8.4-5.1,10c-2.7,1.4-7.3,2.4-15.4,2.4c-0.6,0-2.3-0.1-4.1-0.2
		c-1.9-0.1-3.9-0.2-5.2-0.2c-3.3,0-5.5,0.1-6.9,0.1c-1.4,0.1-2.1,0.1-2.6,0.1c-0.7,0-0.7-0.2-0.7-0.7v-1.4c0-0.4,0.1-0.5,0.7-0.5
		h2.3c2,0,2.3-0.8,2.6-2.8c0.2-1.5,0.3-10.2,0.3-15.6L449.9,230.8L449.9,230.8z M459.5,233.5c2.7,0.3,6.9-0.1,8.8-1.8
		c2.2-1.9,3.2-4.9,3.2-7.8c0-2.5-0.8-5.1-2.7-6.6c-2.2-1.8-5.5-2.4-6.2-2.4c-1.4,0-2.8,0.1-2.9,1.1c-0.1,1.3-0.2,7-0.2,12.5
		L459.5,233.5L459.5,233.5z M459.5,248.8c0,6.2,1.4,8.8,4.9,8.8c4.7,0,9.1-2.3,9.1-10.5c0-5.3-2.4-8.8-5.9-10.2
		c-3.3-1.2-6.4-1.1-8.1-1.1V248.8z"/>
	<path class="st0" d="M507.4,238.8c0,1.1,0,15.3,0.2,17.9h3.7c3.1,0,6,0,9.6-0.3c3.5-0.3,8-8.2,9-10.6c0.2-0.4,0.4-0.6,0.8-0.4
		l1.3,0.5c0.2,0.1,0.2,0.2,0.1,0.6c-0.2,0.5-2.8,11.3-3.2,13.1c-1.7-0.1-20.6-0.2-26.7-0.2c-6.5,0-8.9,0.2-9.7,0.2
		c-0.5,0-0.5-0.1-0.5-0.6v-1.6c0-0.3,0.1-0.5,0.5-0.5h2c2.4,0,2.8-0.9,2.8-1.6c0-1.2,0.2-17.6,0.2-21.6V230c0-4.2-0.1-11.2-0.2-12.2
		c-0.1-1.7-0.5-2.4-2-2.4h-2.4c-0.4,0-0.5-0.3-0.5-0.7v-1.6c0-0.3,0.1-0.5,0.5-0.5c0.7,0,3.1,0.2,9.1,0.2c7.7,0,10.4-0.2,11-0.2
		c0.5,0,0.6,0.2,0.6,0.7v1.5c0,0.3-0.1,0.5-0.7,0.5h-3.1c-2,0-2.3,0.7-2.3,2.4c0,0.9-0.2,10.8-0.2,15.4v5.7L507.4,238.8L507.4,238.8
		z"/>
	<path class="st0" d="M554.5,234.3c3,0,5.9-0.2,6.7-0.4c1.1-0.3,2-0.9,3-2c0.7-1,1.5-2.8,1.5-4.1c0-0.5,0.2-0.6,0.5-0.6l1.8,0.2
		c0.3,0.1,0.6,0.1,0.5,0.5c-0.2,1.1-0.2,4.5-0.2,6.8c0,3,0.3,6.1,0.4,7.5c0.1,0.4-0.2,0.5-0.5,0.5l-1.6,0.3
		c-0.3,0.1-0.4-0.1-0.5-0.5c-0.3-1-0.9-2.6-1.3-3.4c-0.7-1.2-2.3-2.1-3.6-2.3c-1.8-0.3-3.8-0.4-6.7-0.4v3.9c0,3.5,0.3,9.9,0.3,11.1
		c0,3.4,0.7,4.6,1.6,5c1,0.4,2.2,0.6,5.5,0.6c1.1,0,3.9-0.1,5.3-0.2c1.3-0.1,3.3-0.8,5-2.2c1.7-1.4,5.4-5.5,6.7-7
		c0.3-0.3,0.5-0.3,0.7-0.2l1.1,0.7c0.3,0.1,0.3,0.3,0.3,0.5l-3,9.9c-0.2,0.6-0.7,1-1.4,1c-0.3,0-1.8-0.1-6-0.1
		c-4.3,0-11.2-0.1-22.6-0.1c-2.4,0-4.3,0.1-5.6,0.1c-1.4,0.1-2.2,0.1-2.8,0.1c-0.5,0-0.6-0.2-0.6-0.7v-1.4c0-0.4,0.2-0.6,0.7-0.6h2
		c3,0,3.3-0.5,3.3-2.8v-22c0-5.5-0.1-13.5-0.2-14.2c-0.3-2.1-0.9-2.6-2.7-2.6h-2.6c-0.3,0-0.3-0.2-0.3-0.7v-1.6
		c0-0.2,0.1-0.5,0.5-0.5c1.4,0,3.7,0.2,9.7,0.2l23.1-0.1c1.1,0,2.3-0.1,2.6-0.1s0.5,0.1,0.5,0.3c0.3,0.9,2.4,9.9,2.7,10.6
		c0.1,0.3,0.1,0.5-0.2,0.7l-1,0.5c-0.3,0.1-0.6,0.1-0.8-0.3c-0.3-0.5-6.2-6.4-7.8-7.4c-1.4-0.9-3.2-1.7-5-1.8l-8.7-0.3L554.5,234.3z
		"/>
	<path class="st0" d="M358.3,221.9c0-3.2-0.2-13.7-0.3-15c-0.3-5-1.6-5.2-4.5-5.2h-2.7c-0.6,0-0.6-0.1-0.6-0.8v-2
		c0-0.5,0.1-0.8,0.7-0.8c1.1,0,5.2,0.3,13.4,0.3c2.7,0,7.9-0.3,13.7-0.3c6.2,0,11.7,0.6,14.7,2.3c4.9,2.7,6.6,6.6,6.6,11.7
		c0,5.7-3.4,11.2-12.5,14.2v0.2c10.6,2.7,16.2,7.9,16.2,17c0,4.6-2.6,11-6.7,13.1c-3.5,1.8-9.5,3.2-20.2,3.2c-0.8,0-3-0.2-5.4-0.3
		c-2.5-0.2-5.2-0.3-6.8-0.3c-4.3,0-7.1,0.1-9,0.1c-1.8,0.1-2.8,0.2-3.4,0.2c-0.9,0-0.9-0.3-0.9-0.9v-1.9c0-0.5,0.1-0.7,0.9-0.7h3
		c2.6,0,3-1,3.3-3.6c0.3-2,0.4-13.3,0.4-20.4L358.3,221.9L358.3,221.9z M370.8,225.5c3.5,0.3,9-0.2,11.5-2.4
		c2.8-2.5,4.1-6.4,4.1-10.1c0-3.3-1-6.7-3.5-8.7c-2.9-2.3-7.1-3.1-8.1-3.1c-1.8,0-3.7,0.1-3.8,1.5c-0.2,1.7-0.3,9.2-0.3,16.3
		L370.8,225.5L370.8,225.5z M370.8,245.4c0,8.2,1.9,11.5,6.4,11.5c6.1,0,11.9-3,11.9-13.7c0-7-3.1-11.5-7.7-13.3
		c-4.3-1.6-8.4-1.5-10.6-1.5L370.8,245.4L370.8,245.4z"/>
</g>
<g>
	<path class="st0" d="M428.7,74.2c0,1.1,0,15.3,0.2,17.9h3.7c3.1,0,6,0,9.6-0.3c3.5-0.3,8-8.2,9-10.6c0.2-0.4,0.4-0.6,0.8-0.4
		l1.3,0.5c0.2,0.1,0.2,0.2,0.1,0.6c-0.2,0.5-2.8,11.3-3.2,13.1c-1.7-0.1-20.6-0.2-26.7-0.2c-6.5,0-8.9,0.2-9.7,0.2
		c-0.5,0-0.5-0.1-0.5-0.6v-1.6c0-0.3,0.1-0.5,0.5-0.5h2c2.4,0,2.8-0.9,2.8-1.6c0-1.2,0.2-17.6,0.2-21.6v-3.7
		c0-4.2-0.1-11.2-0.2-12.2c-0.1-1.7-0.5-2.4-2-2.4h-2.4c-0.4,0-0.5-0.3-0.5-0.7v-1.6c0-0.3,0.1-0.5,0.5-0.5c0.7,0,3.1,0.2,9.1,0.2
		c7.7,0,10.4-0.2,11-0.2c0.5,0,0.6,0.2,0.6,0.7v1.5c0,0.3-0.1,0.5-0.7,0.5h-3.1c-2,0-2.3,0.7-2.3,2.4c0,0.9-0.2,10.8-0.2,15.4v5.7
		H428.7z"/>
	<path class="st0" d="M463,54.1c0-2.3-0.5-3.4-1.8-3.4H458c-0.4,0-0.5-0.1-0.5-0.6v-1.6c0-0.4,0.1-0.5,0.6-0.5
		c0.7,0,3.9,0.2,10.8,0.2c5.8,0,8.9-0.2,9.7-0.2c0.5,0,0.6,0.1,0.6,0.5v1.7c0,0.3-0.1,0.5-0.5,0.5h-2.2c-2.2,0-3.4,1.2-3.5,2.6
		c-0.1,0.7-0.1,5.2-0.1,8.5v4.3c0,3.5,0.3,11.8,0.3,13.9c0.1,3,0.7,6,2.1,7.8c2.2,2.6,5.3,3.7,8.2,3.7c2.4,0,6-1.2,7.8-2.9
		c2.6-2.4,4.1-6,4.1-10.7v-10c0-5.5-0.7-12.7-0.9-14.3c-0.3-1.7-1.3-2.9-2.4-2.9H490c-0.4,0-0.5-0.2-0.5-0.5v-1.7
		c0-0.3,0.1-0.5,0.5-0.5c0.7,0,3.7,0.2,8.1,0.2c3.5,0,5.7-0.2,6.2-0.2c0.6,0,0.7,0.3,0.7,0.6V50c0,0.4-0.1,0.7-0.4,0.7h-2
		c-2.5,0-2.7,1.8-2.8,2.5c-0.1,0.9-0.1,10-0.1,10.9c0,0.9-0.1,12.4-0.3,15c-0.4,5.4-2.2,9.5-5.6,12.5c-2.9,2.6-7.4,4.1-11.6,4.1
		c-3.1,0-7.3-0.5-10.1-1.6c-3.2-1.4-6-4.5-7.6-8.7c-1.1-2.8-1.4-7.2-1.4-15.8V54.1H463z"/>
	<path class="st0" d="M528.1,69.6c3,0,5.9-0.2,6.7-0.4c1.1-0.3,2-0.9,3-2c0.7-1,1.5-2.8,1.5-4.1c0-0.5,0.2-0.6,0.5-0.6l1.8,0.2
		c0.3,0.1,0.6,0.1,0.5,0.5c-0.2,1.1-0.2,4.5-0.2,6.8c0,3,0.3,6.1,0.4,7.5c0.1,0.4-0.2,0.5-0.5,0.5l-1.6,0.3
		c-0.3,0.1-0.4-0.1-0.5-0.5c-0.3-1-0.9-2.6-1.3-3.4c-0.7-1.2-2.3-2.1-3.6-2.3c-1.8-0.3-3.8-0.4-6.7-0.4v3.9c0,3.5,0.3,9.9,0.3,11.1
		c0,3.4,0.7,4.6,1.6,5c1,0.4,2.2,0.6,5.5,0.6c1.1,0,3.9-0.1,5.3-0.2c1.3-0.1,3.3-0.8,5-2.2c1.7-1.4,5.4-5.5,6.7-7
		c0.3-0.3,0.5-0.3,0.7-0.2l1.1,0.7c0.3,0.1,0.3,0.3,0.3,0.5l-3,9.9c-0.2,0.6-0.7,1-1.4,1c-0.3,0-1.8-0.1-6-0.1
		c-4.3,0-11.2-0.1-22.6-0.1c-2.4,0-4.3,0.1-5.6,0.1c-1.4,0.1-2.2,0.1-2.8,0.1c-0.5,0-0.6-0.2-0.6-0.7v-1.4c0-0.4,0.2-0.6,0.7-0.6h2
		c3,0,3.3-0.5,3.3-2.8v-22c0-5.5-0.1-13.5-0.2-14.2c-0.3-2.1-0.9-2.6-2.7-2.6H513c-0.3,0-0.3-0.2-0.3-0.7v-1.6
		c0-0.2,0.1-0.5,0.5-0.5c1.4,0,3.7,0.2,9.7,0.2l23.1-0.1c1.1,0,2.3-0.1,2.6-0.1s0.5,0.1,0.5,0.3c0.3,0.9,2.4,9.9,2.7,10.6
		c0.1,0.3,0.1,0.5-0.2,0.7l-1.1,0.5c-0.3,0.1-0.6,0.1-0.8-0.3c-0.3-0.5-6.2-6.4-7.8-7.4c-1.4-0.9-3.2-1.7-5-1.8l-8.7-0.3L528.1,69.6
		z"/>
	<path class="st0" d="M358.3,57.9c0-3.2-0.2-13.7-0.3-15c-0.3-5-1.6-5.2-4.5-5.2h-2.7c-0.6,0-0.6-0.1-0.6-0.8v-2
		c0-0.5,0.1-0.8,0.7-0.8c1.1,0,5.2,0.3,13.4,0.3c2.7,0,7.9-0.3,13.7-0.3c6.2,0,11.7,0.6,14.7,2.3c4.9,2.7,6.6,6.6,6.6,11.7
		c0,5.7-3.4,11.2-12.5,14.2v0.2c10.7,2.7,16.2,7.9,16.2,17c0,4.6-2.6,11-6.7,13.1c-3.5,1.8-9.5,3.2-20.2,3.2c-0.8,0-3-0.2-5.4-0.3
		c-2.5-0.2-5.2-0.3-6.8-0.3c-4.3,0-7.1,0.1-9,0.1c-1.8,0.1-2.7,0.2-3.4,0.2c-0.9,0-0.9-0.3-0.9-0.9v-1.9c0-0.5,0.1-0.7,0.9-0.7h3
		c2.6,0,3-1,3.4-3.6c0.3-2,0.4-13.3,0.4-20.4L358.3,57.9L358.3,57.9z M370.8,61.4c3.5,0.3,9-0.2,11.5-2.4c2.8-2.5,4.1-6.4,4.1-10.1
		c0-3.3-1-6.7-3.5-8.7c-2.9-2.3-7.1-3.1-8.1-3.1c-1.8,0-3.7,0.1-3.8,1.5c-0.2,1.7-0.3,9.2-0.3,16.3L370.8,61.4L370.8,61.4z
		 M370.8,81.3c0,8.2,1.9,11.5,6.4,11.5c6.1,0,11.9-3,11.9-13.7c0-7-3.1-11.5-7.7-13.3c-4.3-1.6-8.4-1.5-10.6-1.5L370.8,81.3
		L370.8,81.3z"/>
</g>
<g>
	<path class="st0" d="M161.1,305.8l-19.7,23l5.7-44.6L4.7,272.6l33-86.1l9.9-0.1l1.8-8.8c-8.8-2-15.3-9.9-15.3-19.4V24.9
		C34,13.9,42.9,5,53.9,5h213c11,0,19.9,8.9,19.9,19.9v133.3c0,7.3-4,14-10.3,17.4l2.2,10.3l6.5,0.9l30.9,83l-141.5,13.8l5,46.2
		L161.1,305.8z"/>
	<path class="st0" d="M311.1,266.7L282.5,190l-6.8-0.9l-3.3-15.4c6.3-2.3,10.8-8.3,10.8-15.4V24.9c0-9.1-7.3-16.4-16.4-16.4h-213
		c-9.1,0-16.4,7.3-16.4,16.4v133.3c0,8.9,7.1,16.2,16,16.4l-3.1,15.3L40,190L9.6,269.5L151,281l-4.7,36.7l14.9-17.4l13.4,17.4
		l-4-37.3L311.1,266.7z"/>
	<path d="M283.2,158.2c0,9.1-7.3,16.4-16.4,16.4h-213c-9.1,0-16.4-7.3-16.4-16.4V24.9c0-9.1,7.3-16.4,16.4-16.4h213
		c9.1,0,16.4,7.3,16.4,16.4V158.2z"/>
	
		<radialGradient id="SVGID_1_" cx="-9.6123" cy="474.2505" r="117.415" gradientTransform="matrix(1.033 0 0 -1.0351 168.341 579.9282)" gradientUnits="userSpaceOnUse">
		<stop  offset="0" style="stop-color:#FFFFFF"/>
		<stop  offset="9.099999e-02" style="stop-color:#FFFFFF"/>
		<stop  offset="0.102" style="stop-color:#FBFCFD"/>
		<stop  offset="0.282" style="stop-color:#C0CAD8"/>
		<stop  offset="0.455" style="stop-color:#8EA0BA"/>
		<stop  offset="0.617" style="stop-color:#677FA3"/>
		<stop  offset="0.766" style="stop-color:#4C6892"/>
		<stop  offset="0.897" style="stop-color:#3B5A88"/>
		<stop  offset="0.995" style="stop-color:#355584"/>
		<stop  offset="1" style="stop-color:#355584"/>
	</radialGradient>
	<polygon class="st1" points="268,158.1 52.6,158.1 52.6,24.4 268,24.4 	"/>
	<path class="st0" d="M185.6,91.1l-51-29.7l14.2,54.1l9.3-14.2l14.6,18.2l8-8.9l-12.4-16L185.6,91.1z M175,109.7l-2.2,2.7
		l-15.1-17.7l-7.5,10.6l-8.9-35l33.2,19.1l-14.2,2.2L175,109.7z"/>
	<polygon points="174.5,89.3 141.3,70.3 150.1,105.3 157.7,94.6 172.7,112.4 175,109.7 160.3,91.5 	"/>
	<path class="st0" d="M268,160.2H50.5v-138h219.7v138H268z M54.8,155.9h211.1V26.5H54.8V155.9z"/>
	<g>
		<path d="M40,190L9.6,269.5L151,281l-4.7,36.7l14.9-17.4l13.4,17.4l-4-37.3l140.5-13.7L282.5,190l-6.8-0.9l-5.6-26.4
			c-8.3-6-22.2-15.1-44.9-14.1c-16.9,0.7-39.2,5.5-64.8,24.9c-14.3-10.3-34-25.2-58.2-25.2C77.9,148.2,56.2,162,55,167l-4.6,22.9
			L40,190z"/>
		<path class="st0" d="M66.9,168.5l-20.3,75.7c11.9-5.6,32.2-11.6,56.3-8c15.1,2.3,32.1,7.4,48.2,21l8.6-62l7,62.5
			c12.1-10,30.1-18.7,51.2-21.8c16.9-2.4,40.5-1.6,56,7.7l-20.2-79.4c-12.8-7.2-32.2-8.9-50.3-4.7c-12.4,3.5-26.1,9.1-43.1,26
			C140.3,165.1,102.1,145.9,66.9,168.5z"/>
	</g>
</g>
</svg>
