<?xml version="1.0" encoding="utf-8"?>
<!-- Generator: Adobe Illustrator 23.1.1, SVG Export Plug-In . SVG Version: 6.00 Build 0)  -->
<svg version="1.1" id="Layer_1" xmlns="http://www.w3.org/2000/svg" xmlns:xlink="http://www.w3.org/1999/xlink" x="0px" y="0px"
	 viewBox="0 0 197 68" style="enable-background:new 0 0 197 68;" xml:space="preserve">
<style type="text/css">
	.st0{fill:url(#SVGID_1_);}
	.st1{fill:#FFFFFF;}
</style>
<path d="M59.9,33c0,2-1.6,3.6-3.6,3.6H9.7c-2,0-3.6-1.6-3.6-3.6V3.6c0-2,1.6-3.6,3.6-3.6h46.6c2,0,3.6,1.6,3.6,3.6
	C59.9,3.6,59.9,33,59.9,33z"/>
<radialGradient id="SVGID_1_" cx="-617.7992" cy="20.2754" r="1" gradientTransform="matrix(26.528 0 0 26.732 16421.5254 -524.285)" gradientUnits="userSpaceOnUse">
	<stop  offset="0" style="stop-color:#3C9FF8"/>
	<stop  offset="2.259900e-02" style="stop-color:#FFFFFF"/>
	<stop  offset="0.1833" style="stop-color:#C8DDEA"/>
	<stop  offset="0.4067" style="stop-color:#82B2CF"/>
	<stop  offset="0.6083" style="stop-color:#4B90BA"/>
	<stop  offset="0.7806" style="stop-color:#2378AB"/>
	<stop  offset="0.9168" style="stop-color:#0A69A1"/>
	<stop  offset="1" style="stop-color:#01639E"/>
</radialGradient>
<path class="st0" d="M56.5,32.9H9.4V3.5h47.1V32.9z"/>
<path class="st1" d="M38.5,18.2l-11.2-6.6l3.1,11.9l2-3.1l3.2,4l1.7-2l-2.7-3.5L38.5,18.2z M36.2,22.3l-0.5,0.6L32.3,19l-1.7,2.3
	l-2-7.7l7.3,4.2l-3.1,0.5L36.2,22.3z"/>
<path d="M36.1,17.8l-7.3-4.2l2,7.7l1.6-2.3l3.3,3.9l0.5-0.6l-3.2-4L36.1,17.8z"/>
<path class="st1" d="M56.5,33.4H9V3h48v30.3h-0.5V33.4z M9.9,32.4h46.2V4H9.9V32.4z"/>
<path d="M6.6,39.9L0,57.4L30.9,60l-1,8l3.2-3.8L36,68l-0.9-8.2l30.7-3l-6.2-16.9l-1.5-0.2L57,33.8c-1.8-1.3-4.9-3.3-9.8-3.1
	c-3.7,0.2-8.6,1.2-14.2,5.5c-3.1-2.3-7.5-5.5-12.7-5.5c-5.3,0-10.1,3-10.3,4.1l-1,5.1L6.6,39.9z"/>
<path class="st1" d="M12.5,35.2L8.1,51.8c2.6-1.2,7.1-2.6,12.3-1.7c3.3,0.5,7.1,1.6,10.5,4.6L32.8,41l1.5,13.8
	c2.7-2.2,6.6-4.1,11.2-4.8c3.7-0.5,8.8-0.3,12.3,1.7l-4.4-17.4c-2.8-1.6-7.1-2-11-1c-2.7,0.8-5.7,2-9.4,5.7
	C28.6,34.5,20.2,30.2,12.5,35.2z"/>
<path class="st1" d="M86.6,3.4c2.6,0,4.6,0.5,6,1.6s2.2,2.4,2.2,4.2c0,1.2-0.4,2.3-1.1,3.2c-0.7,0.9-1.7,1.5-2.9,1.8
	c1.5,0.3,2.7,1,3.5,2c0.9,1,1.3,2.3,1.3,3.8c0,2-0.8,3.5-2.3,4.7c-1.5,1.2-3.7,1.8-6.3,1.8H76V3.4H86.6z M86.3,12.7
	c1,0,1.8-0.2,2.3-0.7c0.6-0.5,0.9-1.1,0.9-1.9s-0.3-1.4-0.9-1.8s-1.3-0.6-2.3-0.6h-5.1v5H86.3z M86.3,22.2c1.2,0,2.2-0.2,2.9-0.7
	c0.7-0.5,1.1-1.2,1.1-2.1c0-0.8-0.4-1.5-1.1-2s-1.7-0.7-2.9-0.7h-5.1v5.5H86.3z M99.5,3.4h5.2v18.5h9.9v4.6H99.5V3.4z M128.3,3.4
	c2.6,0,4.6,0.5,6,1.6s2.2,2.4,2.2,4.2c0,1.2-0.4,2.3-1.1,3.2c-0.7,0.9-1.7,1.5-2.9,1.8c1.5,0.3,2.7,1,3.5,2c0.9,1,1.3,2.3,1.3,3.8
	c0,2-0.8,3.5-2.3,4.7s-3.7,1.7-6.4,1.7h-11v-23H128.3z M128,12.7c1,0,1.8-0.2,2.3-0.7c0.6-0.5,0.9-1.1,0.9-1.9s-0.3-1.4-0.9-1.8
	c-0.6-0.4-1.3-0.6-2.3-0.6h-5.1v5H128z M128,22.2c1.2,0,2.2-0.2,2.9-0.7s1.1-1.2,1.1-2.1c0-0.8-0.4-1.5-1.1-2
	c-0.7-0.5-1.7-0.7-2.9-0.7h-5.1v5.5H128z"/>
<g>
	<path class="st1" d="M76,36c0-1.4,1.1-2.4,2.7-2.4c1.6,0,2.7,1,2.7,2.3c0,1.4-1.1,2.5-2.7,2.5C77,38.4,76,37.3,76,36z M76.5,40.5
		h4.3v14.9h-4.3V40.5z"/>
	<path class="st1" d="M100.1,46.8v8.5h-4.3v-7.9c0-2.4-1.1-3.5-3-3.5c-2.1,0-3.6,1.3-3.6,4v7.4h-4.3V40.5H89v1.7
		c1.2-1.3,2.9-2,4.9-2C97.4,40.3,100.1,42.3,100.1,46.8z"/>
	<path class="st1" d="M102.5,54l1.4-3.1c1.3,0.9,3.3,1.4,5.2,1.4c2,0,2.7-0.5,2.7-1.4c0-2.4-9,0.1-9-5.9c0-2.8,2.5-4.8,6.9-4.8
		c2.1,0,4.3,0.5,5.7,1.3l-1.4,3.1c-1.5-0.8-2.9-1.1-4.3-1.1c-1.9,0-2.8,0.6-2.8,1.4c0,2.5,9,0.1,9,6c0,2.8-2.6,4.7-7,4.7
		C106.5,55.6,103.9,54.9,102.5,54z"/>
	<path class="st1" d="M128.3,54.7c-0.9,0.6-2.2,0.9-3.5,0.9c-3.5,0-5.6-1.8-5.6-5.3v-6.1h-2.3v-3.3h2.3v-3.6h4.3v3.6h3.7v3.3h-3.7
		v6.1c0,1.3,0.7,2,1.9,2c0.6,0,1.3-0.2,1.7-0.6L128.3,54.7z"/>
	<path class="st1" d="M130.2,36c0-1.4,1.1-2.4,2.7-2.4c1.6,0,2.7,1,2.7,2.3c0,1.4-1.1,2.5-2.7,2.5C131.3,38.4,130.2,37.3,130.2,36z
		 M130.7,40.5h4.3v14.9h-4.3V40.5z"/>
	<path class="st1" d="M148.7,54.7c-0.9,0.6-2.2,0.9-3.5,0.9c-3.5,0-5.6-1.8-5.6-5.3v-6.1h-2.3v-3.3h2.3v-3.6h4.3v3.6h3.7v3.3h-3.7
		v6.1c0,1.3,0.7,2,1.9,2c0.6,0,1.3-0.2,1.7-0.6L148.7,54.7z"/>
	<path class="st1" d="M166.1,40.5v14.9H162v-1.8c-1.1,1.3-2.8,2-4.6,2c-3.7,0-6.4-2.1-6.4-6.7v-8.4h4.3v7.8c0,2.5,1.1,3.6,3,3.6
		c2,0,3.4-1.3,3.4-4v-7.4H166.1z"/>
	<path class="st1" d="M179.7,54.7c-0.9,0.6-2.2,0.9-3.5,0.9c-3.5,0-5.6-1.8-5.6-5.3v-6.1h-2.3v-3.3h2.3v-3.6h4.3v3.6h3.7v3.3H175
		v6.1c0,1.3,0.7,2,1.9,2c0.6,0,1.3-0.2,1.7-0.6L179.7,54.7z"/>
	<path class="st1" d="M196.2,49.1h-11.3c0.4,1.9,2,3,4.3,3c1.6,0,2.7-0.5,3.7-1.4l2.3,2.5c-1.4,1.6-3.5,2.4-6.1,2.4
		c-5.2,0-8.5-3.2-8.5-7.7c0-4.5,3.4-7.7,7.9-7.7c4.4,0,7.8,2.9,7.8,7.7C196.3,48.3,196.2,48.8,196.2,49.1z M184.9,46.6h7.3
		c-0.3-1.9-1.7-3.1-3.7-3.1C186.6,43.5,185.2,44.7,184.9,46.6z"/>
</g>
</svg>
