<svg width="149" height="68" viewBox="0 0 149 68" fill="none" xmlns="http://www.w3.org/2000/svg">
<path d="M59.8739 32.9538C59.8739 34.9299 58.2557 36.5573 56.2907 36.5573H9.70929C7.74431 36.5573 6.1261 34.9299 6.1261 32.9538V3.60342C6.1261 1.62735 7.74431 0 9.70929 0H56.2907C58.2557 0 59.8739 1.62735 59.8739 3.60342V32.9538Z" fill="black"/>
<path d="M56.5219 32.8957H9.42029V3.48718H56.5219V32.8957Z" fill="url(#paint0_radial)"/>
<path d="M38.4904 18.1915L27.3363 11.6239L30.4571 23.5385L32.4799 20.4L35.6585 24.4103L37.3923 22.4342L34.6761 18.947L38.4904 18.1915ZM36.1787 22.2598L35.7163 22.841L32.3643 18.947L30.6883 21.2718L28.7233 13.5419L36.0053 17.7265L32.9423 18.2496L36.1787 22.2598Z" fill="white"/>
<path d="M36.0631 17.7846L28.7811 13.6L30.7461 21.2718L32.3643 18.947L35.6585 22.841L36.1787 22.2598L32.9422 18.2496L36.0631 17.7846Z" fill="black"/>
<path d="M56.5219 33.3607H8.95801V3.02222H56.9843V33.3607H56.5219ZM9.8827 32.4308H56.0596V3.95213H9.8827V32.4308Z" fill="white"/>
<path d="M6.64623 39.9282L0 57.4222L30.9194 59.9795L29.937 68L33.1734 64.1641L36.1208 68L35.2539 59.8051L66 56.7829L59.7583 39.8701L58.2557 39.6376L57.042 33.8256C55.2504 32.4889 52.1874 30.5128 47.2172 30.7453C43.5184 30.9197 38.606 31.9658 33.0578 36.2085C29.937 33.9419 25.6025 30.6872 20.3433 30.6872C15.0263 30.6872 10.2872 33.7094 9.99825 34.8137L9.01576 39.8701L6.64623 39.9282Z" fill="black"/>
<path d="M12.5412 35.2205L8.09106 51.8427C10.6918 50.6222 15.1419 49.2855 20.401 50.0992C23.6953 50.6222 27.4518 51.7265 30.9194 54.7487L32.8266 41.0906L34.3292 54.865C36.9877 52.6564 40.9177 50.7385 45.5412 50.0992C49.2399 49.5761 54.3835 49.7504 57.7933 51.7846L53.4011 34.3487C50.627 32.7795 46.3503 32.3727 42.4203 33.3026C39.704 34.0581 36.6988 35.2786 33 38.9983C28.6077 34.465 20.2277 30.2222 12.5412 35.2205Z" fill="white"/>
<path d="M86.5908 17.9C89.1428 17.9 91.1558 18.417 92.6298 19.451C94.1038 20.485 94.8408 21.893 94.8408 23.675C94.8408 24.907 94.4778 25.985 93.7518 26.909C93.0478 27.811 92.0798 28.427 90.8478 28.757C92.3438 29.043 93.5208 29.714 94.3788 30.77C95.2368 31.804 95.6658 33.08 95.6658 34.598C95.6658 36.578 94.8848 38.14 93.3228 39.284C91.7608 40.428 89.6378 41 86.9538 41H75.9648V17.9H86.5908ZM86.3268 27.206C87.3168 27.206 88.0868 26.986 88.6368 26.546C89.2088 26.084 89.4948 25.446 89.4948 24.632C89.4948 23.84 89.2088 23.224 88.6368 22.784C88.0868 22.344 87.3168 22.135 86.3268 22.157H81.1788V27.206H86.3268ZM86.3268 36.743C87.5588 36.743 88.5268 36.501 89.2308 36.017C89.9348 35.511 90.2868 34.818 90.2868 33.938C90.2868 33.102 89.9348 32.442 89.2308 31.958C88.5268 31.474 87.5588 31.243 86.3268 31.265H81.1788V36.743H86.3268ZM99.458 17.9H104.672V36.446H114.572V41H99.458V17.9ZM128.292 17.9C130.844 17.9 132.857 18.417 134.331 19.451C135.805 20.485 136.542 21.893 136.542 23.675C136.542 24.907 136.179 25.985 135.453 26.909C134.749 27.811 133.781 28.427 132.549 28.757C134.045 29.043 135.222 29.714 136.08 30.77C136.938 31.804 137.367 33.08 137.367 34.598C137.367 36.578 136.586 38.14 135.024 39.284C133.462 40.428 131.339 41 128.655 41H117.666V17.9H128.292ZM128.028 27.206C129.018 27.206 129.788 26.986 130.338 26.546C130.91 26.084 131.196 25.446 131.196 24.632C131.196 23.84 130.91 23.224 130.338 22.784C129.788 22.344 129.018 22.135 128.028 22.157H122.88V27.206H128.028ZM128.028 36.743C129.26 36.743 130.228 36.501 130.932 36.017C131.636 35.511 131.988 34.818 131.988 33.938C131.988 33.102 131.636 32.442 130.932 31.958C130.228 31.474 129.26 31.243 128.028 31.265H122.88V36.743H128.028ZM141.06 23.246H146.142V41H141.06V23.246ZM143.568 15.359C144.382 15.359 145.042 15.623 145.548 16.151C146.076 16.679 146.34 17.361 146.34 18.197C146.34 19.033 146.076 19.715 145.548 20.243C145.042 20.771 144.382 21.035 143.568 21.035C142.776 21.035 142.116 20.771 141.588 20.243C141.082 19.693 140.829 19.011 140.829 18.197C140.829 17.361 141.082 16.679 141.588 16.151C142.116 15.623 142.776 15.359 143.568 15.359Z" fill="#444444"/>
<defs>
<radialGradient id="paint0_radial" cx="0" cy="0" r="1" gradientUnits="userSpaceOnUse" gradientTransform="translate(32.5502 17.7149) scale(26.528 26.732)">
<stop stop-color="#3C9FF8"/>
<stop offset="0.022599" stop-color="white"/>
<stop offset="0.1833" stop-color="#C8DDEA"/>
<stop offset="0.4067" stop-color="#82B2CF"/>
<stop offset="0.6083" stop-color="#4B90BA"/>
<stop offset="0.7806" stop-color="#2378AB"/>
<stop offset="0.9168" stop-color="#0A69A1"/>
<stop offset="1" stop-color="#01639E"/>
</radialGradient>
</defs>
</svg>
