<svg fill="none" xmlns="http://www.w3.org/2000/svg" viewBox="0 0 44 23"><rect x=".5" y=".5" width="43" height="22" rx="3.5" fill="#DFEBFD" stroke="#ABB9CC"/><path d="M12.462 15.12c-.713 0-1.36-.153-1.94-.46a3.564 3.564 0 01-1.36-1.29 3.608 3.608 0 01-.49-1.87c0-.693.164-1.313.49-1.86a3.468 3.468 0 011.36-1.29c.58-.313 1.23-.47 1.95-.47.607 0 1.154.107 1.64.32.494.213.907.52 1.24.92l-1.04.96c-.473-.547-1.06-.82-1.76-.82-.433 0-.82.097-1.16.29-.34.187-.606.45-.8.79-.186.34-.28.727-.28 1.16 0 .433.094.82.28 1.16.194.34.46.607.8.8.34.187.727.28 1.16.28.7 0 1.287-.277 1.76-.83l1.04.96a3.24 3.24 0 01-1.24.93 4.116 4.116 0 01-1.65.32zm6.249-.04a3.294 3.294 0 01-1.53-.35 2.682 2.682 0 01-1.05-.99 2.713 2.713 0 01-.38-1.43c0-.533.126-1.01.38-1.43.253-.42.603-.747 1.05-.98.453-.24.963-.36 1.53-.36.566 0 1.073.12 1.52.36.446.233.796.56 1.05.98.253.42.38.897.38 1.43 0 .533-.127 1.01-.38 1.43-.254.42-.604.75-1.05.99-.447.233-.954.35-1.52.35zm0-1.28c.4 0 .726-.133.98-.4.26-.273.39-.637.39-1.09 0-.453-.13-.813-.39-1.08-.254-.273-.58-.41-.98-.41s-.73.137-.99.41c-.26.267-.39.627-.39 1.08 0 .453.13.817.39 1.09.26.267.59.4.99.4zm7.172-4.26c.5 0 .954.117 1.36.35.414.227.737.55.97.97.234.413.35.897.35 1.45 0 .553-.116 1.04-.35 1.46a2.512 2.512 0 01-.97.97c-.406.227-.86.34-1.36.34-.686 0-1.226-.217-1.62-.65v2.51h-1.56V9.62h1.49v.62c.387-.467.95-.7 1.69-.7zm-.27 4.26c.4 0 .727-.133.98-.4.26-.273.39-.637.39-1.09 0-.453-.13-.813-.39-1.08-.253-.273-.58-.41-.98-.41s-.73.137-.99.41c-.253.267-.38.627-.38 1.08 0 .453.127.817.38 1.09.26.267.59.4.99.4zm9.188-4.18l-2.43 5.71c-.247.62-.553 1.057-.92 1.31-.36.253-.797.38-1.31.38a2.73 2.73 0 01-.83-.13 1.834 1.834 0 01-.67-.36l.57-1.11a1.354 1.354 0 00.88.34.807.807 0 00.52-.16c.133-.1.253-.27.36-.51l.02-.05-2.33-5.42h1.61l1.51 3.65 1.52-3.65h1.5z" fill="#455770"/></svg>