<?xml version="1.0" encoding="utf-8"?>
<!-- Generator: Adobe Illustrator 23.0.2, SVG Export Plug-In . SVG Version: 6.00 Build 0)  -->
<svg version="1.1" id="Layer_1" xmlns="http://www.w3.org/2000/svg" xmlns:xlink="http://www.w3.org/1999/xlink" x="0px" y="0px"
	 viewBox="0 0 108 108" style="enable-background:new 0 0 108 108;" xml:space="preserve">
<style type="text/css">
	.st0{fill:#FFFFFF;stroke:#325A8B;stroke-miterlimit:10;}
	.st1{fill:#325A8B;}
	.st2{fill:#8890B2;}
	.st3{fill:#FFFFFF;}
	.st4{fill:#231F20;}
	.st5{fill:#E4E4EC;stroke:#325A8B;stroke-width:0.231;}
</style>
<title>Asset 8</title>
<g>
	<circle class="st0" cx="54" cy="54" r="49.6"/>
	<circle class="st1" cx="54" cy="54" r="39.8"/>
	<g>
		<g>
			<g>
				<polygon class="st2" points="73.6,23.1 59.9,45.3 61.7,45.3 				"/>
				<polygon class="st2" points="67.4,20.3 57.4,45.3 59.2,45.3 				"/>
				<polygon class="st2" points="79.2,27.1 62.9,45.3 64.8,45.3 				"/>
				<polygon class="st2" points="87.9,37.5 73.4,45.3 75.3,45.3 				"/>
				<polygon class="st2" points="84,31.9 67,45.3 69,45.3 				"/>
				<polygon class="st2" points="90.8,43.6 86,45.3 86.9,45.3 				"/>
				<polygon class="st2" points="34.4,23.1 46.2,45.3 48.1,45.3 				"/>
				<polygon class="st2" points="47.1,18.5 51.1,45.3 52.7,45.3 				"/>
				<polygon class="st2" points="40.6,20.3 48.8,45.3 50.6,45.3 				"/>
				<polygon class="st2" points="20.1,37.6 32.5,45.3 34.5,45.3 				"/>
				<polygon class="st2" points="17.2,43.7 21,45.3 21.9,45.3 				"/>
				<polygon class="st2" points="28.8,27.1 43.1,45.3 45,45.3 				"/>
				<polygon class="st2" points="24,32 38.9,45.3 40.9,45.3 				"/>
			</g>
			<g>
				<polyline class="st2" points="56.9,45.3 60.9,18.4 55.3,45.3 				"/>
				<polygon class="st2" points="54,17.9 53.2,45.3 54.8,45.3 54.8,45.3 				"/>
			</g>
		</g>
		<g>
			<g>
				<polygon class="st2" points="34.4,84.9 48.1,62.7 46.3,62.7 				"/>
				<polygon class="st2" points="40.6,87.7 50.6,62.7 48.8,62.7 				"/>
				<polygon class="st2" points="28.8,80.9 45.1,62.7 43.2,62.7 				"/>
				<polygon class="st2" points="20.1,70.5 34.6,62.7 32.7,62.7 				"/>
				<polygon class="st2" points="24,76.1 41,62.7 39,62.7 				"/>
				<polygon class="st2" points="17.2,64.4 22,62.7 21.1,62.7 				"/>
				<polygon class="st2" points="73.6,84.9 61.8,62.7 59.9,62.7 				"/>
				<polygon class="st2" points="60.9,89.5 56.9,62.7 55.3,62.7 				"/>
				<polygon class="st2" points="67.4,87.7 59.2,62.7 57.4,62.7 				"/>
				<polygon class="st2" points="87.9,70.4 75.5,62.7 73.5,62.7 				"/>
				<polygon class="st2" points="90.8,64.3 87,62.7 86.1,62.7 				"/>
				<polygon class="st2" points="79.2,80.9 64.9,62.7 63,62.7 				"/>
				<polygon class="st2" points="84,76 69.1,62.7 67.1,62.7 				"/>
			</g>
			<g>
				<polyline class="st2" points="51.1,62.7 47.1,89.6 52.7,62.7 				"/>
				<polygon class="st2" points="54,90.1 54.8,62.7 53.2,62.7 53.2,62.7 				"/>
			</g>
		</g>
	</g>
	<rect x="12.6" y="45.3" class="st3" width="82.8" height="23.3"/>
	<g>
		<path class="st4" d="M15.5,65.4V48.3h17.8v3.1H21.5V55h8.1v3.1h-8.1v4.2h11.8v3.2L15.5,65.4z"/>
		<path class="st4" d="M44.1,65.7c-2.3,0.1-4.5-0.6-6.5-1.7c-2.2-1.4-3.4-3.7-3.4-7s1.2-5.7,3.6-7.1c2.1-1.1,4.4-1.7,6.8-1.7
			c4.9,0,8,2,9,4.9L48,53.8c-0.5-1.6-2-2.6-3.6-2.5c-2.7,0-4,1.5-4,5.7s1.2,5.7,4.3,5.7c2,0,3.4-0.9,4.4-2.8l4.8,0.9
			C52.3,64.2,49,65.7,44.1,65.7z"/>
		<path class="st4" d="M62.3,51.5V55h9.2v3.1h-9.2v7.3h-6V48.3h17.8v3.1H62.3V51.5z"/>
		<path class="st4" d="M86.2,65.4l-1.4-3.8h-6.2l-1.4,3.8h-6.3l7.8-17.1h5.7l8,17.1H86.2z M81.7,54l-1.9,4.5h3.7L81.7,54z"/>
	</g>
	<g>
		<path class="st1" d="M79.6,71.7c-0.7-0.4-1.5-0.6-2.3-0.5H61.6v2c-0.1-0.6-0.4-1.1-1-1.5c-0.7-0.4-1.5-0.6-2.3-0.5h-7.7v1.7
			c-0.3-1.1-1.2-1.7-2.6-1.7h-3.1v1.5c-0.4-1.1-1.3-1.7-2.8-1.7s-2.3,0.6-2.7,1.7c-0.4-1.1-1.5-1.7-3-1.7c-1.8,0-2.8,1-2.9,2.9
			l-0.1-0.1l-0.8-1l-0.3-1.6h-3.1L27.3,81h3l0.1-1.2l0.6,0.4l0.1,0.7h3L34,80c0.5,0.8,1.4,1.2,2.3,1.1c1.3,0.1,2.5-0.6,3.1-1.7
			c0.3,1.1,1.5,1.8,2.6,1.7c1.5,0,2.4-0.6,2.9-1.7v1.5h2.9v-3.3c0,0.1,0.1,0.2,0.1,0.3c0,0.3,0,0.6,0,1s0,0.6,0,1
			c0,0.2,0.1,0.4,0.1,0.6l0.1,0.4h10.6c0.7,0.1,1.3-0.1,1.9-0.5c0.5-0.3,0.8-0.8,0.9-1.4v2h3v-6.9h1.1V81h2.9v-5.7h1V81h8
			c0.7,0.1,1.3-0.1,1.9-0.5c0.7-0.6,1-1.5,1-2.3v-4.1C80.8,73.3,80.5,72.3,79.6,71.7z"/>
		<path class="st5" d="M28,80.5l1.7-8.6h2.2l1.7,8.6h-1.9l-0.3-1.7H30l-0.2,1.7H28z M30.7,73.4L30.7,73.4l-0.5,3.8h1L30.7,73.4z"/>
		<path class="st5" d="M37.1,74.9v-0.6c0-0.7-0.2-1.1-0.6-1.1c-0.6,0-0.7,0.3-0.7,0.9v4.3c0,0.5,0.1,0.8,0.6,0.8
			c0.6,0,0.6-0.7,0.6-1.3v-0.8h1.7v1c0,1.5-0.8,2.5-2.6,2.5c-1.6,0-2.3-1-2.3-2.7v-3.5c0-1.9,0.8-2.7,2.4-2.7c1.5,0,2.4,0.8,2.4,2.5
			v0.7L37.1,74.9L37.1,74.9z"/>
		<path class="st5" d="M42.8,74.9v-0.6c0-0.7-0.2-1.1-0.6-1.1c-0.6,0-0.7,0.3-0.7,0.9v4.3c0,0.5,0.1,0.8,0.6,0.8
			c0.6,0,0.6-0.7,0.6-1.3v-0.8h1.7v1c0,1.5-0.8,2.5-2.6,2.5c-1.6,0-2.2-1-2.2-2.7v-3.5c0-1.9,0.8-2.7,2.4-2.7c1.5,0,2.4,0.8,2.4,2.5
			v0.7L42.8,74.9L42.8,74.9z"/>
		<path class="st5" d="M47.3,80.5h-1.7v-8.7h2.6c1.5,0,2.2,0.7,2.2,2.4c0,0.9-0.2,1.6-0.9,2l0,0c0.5,0.1,0.9,0.6,0.9,1.1
			c0.1,0.7,0.1,2.2,0.1,2.7c0.1,0.1,0.1,0.2,0.1,0.3v0.1h-2c-0.1-0.1-0.1-0.3-0.1-0.5c0-0.8,0-1.5-0.1-2S48.3,77,47.8,77h-0.6
			C47.3,77,47.3,80.5,47.3,80.5z M47.3,75.5h0.6c0.5,0,0.6-0.6,0.6-1c0-1-0.3-1-1.3-1L47.3,75.5z"/>
		<path class="st5" d="M51.3,80.5v-8.7h4.1v1.7H53v1.6h2.2v1.7H53v1.9h2.4v1.7L51.3,80.5L51.3,80.5z"/>
		<path class="st5" d="M56.4,80.5v-8.7h2c0.7-0.1,1.4,0.1,2,0.4c0.6,0.5,0.9,1.3,0.8,2.1v3.8c0.1,0.7-0.2,1.4-0.8,1.9
			c-0.5,0.3-1,0.4-1.6,0.4L56.4,80.5z M58.2,78.9c1.2,0.1,1.2-0.5,1.2-1.6v-2.8c0-1-0.3-1-1.2-1.1V78.9z"/>
		<path class="st5" d="M62.2,80.5v-8.7H64v8.6L62.2,80.5L62.2,80.5z"/>
		<path class="st5" d="M64.8,71.8h4.6v1.7H68v6.9h-1.8v-6.9h-1.4C64.8,73.5,64.8,71.8,64.8,71.8z"/>
		<path class="st5" d="M70.2,80.5v-8.7h4.1v1.7H72v1.6h2.2v1.7H72v1.9h2.4v1.7L70.2,80.5L70.2,80.5z"/>
		<path class="st5" d="M75.4,80.5v-8.7h2c0.7-0.1,1.4,0.1,2,0.4c0.6,0.5,0.9,1.3,0.8,2.1v3.8c0.1,0.7-0.2,1.4-0.8,1.9
			c-0.5,0.3-1,0.4-1.6,0.4L75.4,80.5z M77.2,78.9c1.2,0.1,1.2-0.5,1.2-1.6v-2.8c0-1-0.3-1-1.2-1.1V78.9z"/>
	</g>
</g>
</svg>
