<svg xmlns="http://www.w3.org/2000/svg" viewBox="0 0 402.55 402.55"><defs><style>.cls-2{fill:#231f20}</style></defs><g id="Layer_2" data-name="Layer 2"><g id="Layer_1-2" data-name="Layer 1"><circle cx="201.28" cy="201.28" r="201.28" fill="#fff"/><path class="cls-2" d="M100.21 325.45c.31 3.05-1 5.8-3.48 8.65-2.22 2.57-4.79 4.43-8.08 4.56a8.56 8.56 0 0 1-6-2.1 8.34 8.34 0 0 1-3.28-6.34 6.85 6.85 0 0 1 1.56-4.37l2.15 1.87a4.73 4.73 0 0 0-1 2.88 5.45 5.45 0 0 0 2.22 4 5.71 5.71 0 0 0 4.2 1.4c2.57-.16 4.66-2.07 6.12-3.75s3.09-4.07 2.86-6.65a5.87 5.87 0 0 0-2.13-4c-2.79-2.42-5.93-2-8.46 1l-.1.11 5 4.3-1.63 1.89-6.8-5.9 7.21-8.32L92.1 316l-1.76 2.48c1.78-1 4.66-.52 6.73 1.27a8.64 8.64 0 0 1 3.14 5.7ZM79.71 314.28l-10.47 9-1.74-2 10.33-8.87c2.53-2.17 3.3-4.68.9-7.48s-5-2.43-7.54-.26l-10.33 8.83-1.74-2 10.47-9c3.92-3.36 8-2.8 11 .78s3.04 7.64-.88 11ZM51.41 300.6l17.55-12 1.54 2.25-17.5 12ZM42 285a8.58 8.58 0 0 1-.88-6.6c.9-3 3.13-4.71 6.07-6.28s5.56-2.39 8.52-1.49a8.52 8.52 0 0 1 5.07 4.37l3.49 6.54-18.76 10Zm13-11.9c-2.34-.68-4.54.36-6.55 1.43s-4.08 2.35-4.85 4.67a5.92 5.92 0 0 0 .68 4.91l2.14 3.89 14.42-7.71-2.09-3.91a6.1 6.1 0 0 0-3.7-3.26ZM29 254.54l2.31-.84 3.85 10.57 6.13-2.27-3.37-9.25 2.36-.86 3.37 9.24 6.85-2.49-3.85-10.54 2.31-.84 4.77 13.08-20 7.28ZM40.8 243.32l-.59-2.73c2.74-.65 4-3.36 3.38-6.44-.62-2.85-2.42-4.63-4.76-4.12-1.58.34-2.7 1.69-2.56 4.21l.22 3.39c.22 3.26-1 6-4.3 6.74-3.58.77-6.94-2.12-7.77-5.93-.88-4 1-7.83 4.87-8.79l.59 2.72c-2.49.7-3.66 2.76-3.05 5.58.56 2.58 2.39 4.24 4.65 3.75 1.94-.43 2.42-2.16 2.32-3.76l-.23-3.58c-.22-3.57 1.38-6.35 4.66-7.06 3.76-.82 6.87 2.19 7.77 6.32 1 4.69-1 8.79-5.2 9.7ZM24.47 222.71l-2.48.2-1.33-16.2 2.48-.21.56 6.76 18.71-1.54.22 2.69L23.92 216ZM36.27 189.08l-.34 9.18 5.91 2.35-.1 2.73-21-8.68.11-3.18 21.56-7.12-.11 2.78Zm-2.56.84-10.39 3.3 10.12 4ZM23.85 166.2c.77-4.25 3.57-6.55 7.37-5.86a5.81 5.81 0 0 1 4.86 5.49L46 163l-.49 3-9.51 2.56-1 5.44 8.7 1.58-.48 2.62-20.92-3.8Zm6.88-3.14c-2.66-.48-4 1.1-4.46 3.58l-1 5.58 7.35 1.33 1-5.58c.45-2.48-.23-4.43-2.89-4.91ZM34.54 130.43c1.65-4 4.84-5.8 8.59-4.27s4.78 5 3.13 9.06l-1.91 4.67 8 3.26-1 2.47-19.69-8.05Zm7.54-1.71c-2.41-1-4.23.05-5.31 2.69L34.88 136l7.22 3 1.9-4.64c1.07-2.64.5-4.66-1.92-5.64ZM42.9 113l16.33 9.28 5.05-8.9 2.17 1.23-6.37 11.22-18.5-10.51ZM72.92 95.6l-5.59 7.28 3.46 5.34-1.67 2.17-12.05-19.22L59 88.65l21.7 6.68-1.7 2.21Zm-2.56-.8L60 91.48l5.91 9.15ZM68.42 81l-1.78-1.74L78 67.66l1.8 1.74-4.74 4.84 13.41 13.14-1.89 1.93-13.41-13.14ZM86.76 60.25l13.62 16.33-2.1 1.75L84.66 62ZM108.6 44.66l11.72 17.75-2.5 1.65-18.68-9.34 10 15.1-2.14 1.42-11.77-17.76 2.93-1.93 17.76 8.88-9.47-14.35ZM124.24 51.72l-5.8-12.53 2.42-1.12 5.73 12.36c1.39 3 3.61 4.44 6.95 2.89s3.7-4.15 2.3-7.17l-5.72-12.36 2.42-1.12 5.8 12.52c2.17 4.68.52 8.42-3.75 10.39s-8.18.82-10.35-3.86ZM162.92 23.08l5.67 20.5-2.46.68-4.85-17.55-1.56 19-2.08.58-11.15-15.65 4.9 17.7-2.46.68-5.67-20.5 3.82-1.06 10.68 15 1.43-18.36ZM185.77 34.36l2.79-.12c.18 2.82 2.63 4.57 5.77 4.43 2.91-.12 5-1.59 4.87-4-.07-1.62-1.2-2.95-3.71-3.23l-3.38-.37c-3.25-.33-5.76-2-5.91-5.38-.15-3.66 3.27-6.48 7.16-6.65 4.14-.18 7.55 2.32 7.84 6.3l-2.79.12c-.26-2.57-2.09-4.09-5-4-2.64.11-4.58 1.64-4.48 3.95.08 2 1.71 2.74 3.31 2.92l3.56.38c3.56.39 6 2.44 6.16 5.8.17 3.84-3.33 6.39-7.55 6.57-4.77.26-8.41-2.43-8.64-6.72ZM225.19 20.71l-.19 2.45-11.21-1-.58 6.52 9.8.88-.23 2.51-9.8-.88-.65 7.26 11.2 1-.22 2.45-13.86-1.24 1.9-21.19ZM243.86 40l-8.93-2.11-3.45 5.35-2.66-.63 12.57-18.88 3.09.73L247.3 47l-2.72-.64Zm-.32-2.67-1.23-10.83-5.92 9.15ZM263.31 30.22l-6.7 17.55 9.55 3.65-.88 2.32-12.06-4.6 7.6-19.87ZM282.84 60.46c-.62-3.1.47-5.75 2.33-8.66s3.81-5 6.88-5.75a8.83 8.83 0 0 1 10.42 6.66c.61 3.1-.48 5.75-2.33 8.66s-3.81 5-6.88 5.75a8.92 8.92 0 0 1-10.42-6.66Zm9.88 4.11c2.33-.65 3.8-2.67 5.09-4.69s2.51-4.2 2.11-6.59a6.08 6.08 0 0 0-7.33-4.69c-2.33.65-3.8 2.67-5.1 4.69s-2.5 4.2-2.11 6.59a6.17 6.17 0 0 0 7.34 4.69ZM324.31 67.48l-1.6 1.87-8.22-7L310 67.6l7.3 6.24-1.63 1.91-7.3-6.23-6.08 7.12-2-1.74 13.81-16.17ZM335.84 82.94l2-1.54 10.1 12.74-1.95 1.55-4.22-5.32L327 102l-1.68-2.12 14.72-11.66ZM357.34 109c2.2 3.71 1.59 7.28-1.73 9.25a5.81 5.81 0 0 1-7.27-1l-5.67 8.75-1.53-2.58 5.44-8.17-2.81-4.75-7.61 4.5-1.36-2.3 18.29-10.84Zm-3.14 6.88c2.32-1.38 2.31-3.46 1-5.63l-2.89-4.88-6.42 3.81 2.89 4.88c1.3 2.17 3.1 3.19 5.42 1.82ZM356.09 141.64l-3.47-8.49-6.36.29-1-2.53 22.67-.73 1.2 2.94-16.69 15.37-1.06-2.58Zm2-1.81 8.11-7.29-10.9.46ZM378.64 165 358 170l-.71-2.91 15.13-14.41-17.62 4.22-.6-2.51 20.67-5 .83 3.41-14.37 13.7 16.67-4.06ZM365.81 176.1l.25 2.78c-2.8.32-4.43 2.85-4.14 6 .27 2.9 1.84 4.89 4.23 4.67 1.62-.15 2.89-1.35 3.05-3.87l.19-3.39c.18-3.27 1.72-5.86 5.1-6.17 3.64-.34 6.63 2.94 7 6.82.38 4.13-1.94 7.66-5.9 8.15l-.26-2.78c2.55-.39 4-2.3 3.71-5.17-.25-2.63-1.87-4.5-4.17-4.28-2 .18-2.66 1.84-2.75 3.45l-.21 3.57c-.21 3.58-2.14 6.14-5.49 6.45-3.82.35-6.55-3-6.94-7.22-.48-4.79 2.05-8.61 6.33-9.01ZM381.63 208.6c-.18 4.35-2.57 7.1-6.62 6.93s-6.2-3.1-6-7.45l.21-5-8.6-.36.11-2.67 21.25.88Zm-6.51 4.18c2.61.1 4-1.49 4.09-4.34l.2-5-7.79-.32-.21 5c-.11 2.88 1.11 4.55 3.71 4.66ZM363.38 232.63l1.56-9-5.55-3.12.47-2.69 19.61 11.39-.54 3.13-22.3 4.19.48-2.75Zm2.64-.48 10.74-1.9-9.49-5.35ZM372.62 257c-1.34 4.11-4.42 6-8.1 4.81a5.81 5.81 0 0 1-4.08-6.09l-10.26 1.46.93-2.86 9.74-1.31 1.71-5.25-8.42-2.76.83-2.54 20.23 6.59Zm-7.25 2.19c2.57.83 4.13-.55 4.91-2.95l1.75-5.39-7.1-2.32-1.76 5.4c-.78 2.39-.37 4.42 2.2 5.26ZM360.38 285.65l-2.21-1.08 4.93-10.12-5.89-2.86-4.3 8.85-2.27-1.1 4.31-8.85-6.56-3.2-4.92 10.12-2.22-1.08 6.1-12.51 19.13 9.31ZM346.45 307.56l-17.63-11.92 1.68-2.49 20.84 1.49-15-10.14 1.44-2.13 17.63 11.92-2 2.91-19.81-1.41 14.24 9.63ZM323.6 304.78c3.28-.21 6 1.54 8.49 3.83s4.45 4.81 4.51 8.08a8.38 8.38 0 0 1-2.27 5.85c-2.88 3.14-7.37 3.74-10.57 1.06l1.84-2a4.9 4.9 0 0 0 6.87-.74 5.44 5.44 0 0 0 1.52-4.06c-.15-2.54-2.13-4.64-3.77-6.14s-3.88-3.27-6.42-3.2a5.56 5.56 0 0 0-3.91 1.87 4.86 4.86 0 0 0-.08 7l-1.84 2a7.66 7.66 0 0 1 .06-10.72 8.26 8.26 0 0 1 5.57-2.83ZM323.56 333l-2.3 1.92-10.73-4.12 2.19 11.2-2.18 1.83-2.54-14.18-5.63-6.65 2.07-1.73 5.58 6.67ZM160.68 377.23l10.07-7.37a6.08 6.08 0 0 0 2.67-3.65c.41-2.15-.67-3.88-3.11-4.34s-4.23.84-4.76 3.67l-2.6-.49c.8-4.18 3.89-6.19 7.78-5.45s5.9 3.56 5.22 7.12a7.81 7.81 0 0 1-3.46 4.9l-8.68 6.3 10.08 1.91-.44 2.36-13.24-2.51ZM185.32 382.15c-2.14-2.33-2.32-5.34-2.08-9.42s.79-7 3.19-9.06a6.68 6.68 0 0 1 4.91-1.51 6.52 6.52 0 0 1 4.65 2.08c2.15 2.32 2.35 5.34 2.11 9.39s-.79 7.07-3.22 9.09a6.52 6.52 0 0 1-4.87 1.51 6.66 6.66 0 0 1-4.69-2.08Zm7.79-1.07c1.62-1.31 2.06-3.27 2.33-7.61.19-3.18.3-6.06-1.4-7.78a4.68 4.68 0 0 0-5.84-.35c-1.87 1.51-2.1 4.38-2.29 7.55-.27 4.47 0 6.37 1.36 7.84a4.44 4.44 0 0 0 2.88 1.17 4.3 4.3 0 0 0 2.96-.82ZM206.74 381.7l7.9-9.66a6 6 0 0 0 1.68-4.2 3.49 3.49 0 0 0-4.1-3.42c-2.49.16-3.88 1.87-3.69 4.75l-2.63.17c-.28-4.25 2.22-7 6.17-7.23s6.59 2 6.83 5.6a7.84 7.84 0 0 1-2.13 5.61l-6.77 8.26 10.24-.67.16 2.39-13.45.89ZM229.11 379.67l6.65-10.56a6.06 6.06 0 0 0 1.15-4.38c-.41-2.15-2-3.36-4.5-2.89s-3.61 2.34-3.07 5.17l-2.59.49c-.8-4.18 1.34-7.19 5.23-7.93s6.79 1.14 7.47 4.71a7.85 7.85 0 0 1-1.42 5.83l-5.75 9 10.08-1.93.45 2.36-13.23 2.53Z"/><path d="M201.28 59.43a141.85 141.85 0 1 0 77.17 260.88l-65-70.4a.68.68 0 0 0-1.16.3l-16 64.71a2.23 2.23 0 0 1-4.4-.4l-4.12-66.77a.55.55 0 0 0-.85-.42l-34.46 23a2.24 2.24 0 0 1-3.13-3.06l17.6-27.68a.42.42 0 0 0-.4-.64l-80.76 8.76a2.23 2.23 0 0 1-1.08-4.29l60-24.51a.68.68 0 0 0-.15-1.3L88.1 208.4a2.24 2.24 0 0 1 .23-4.44l76.27-4.39a.75.75 0 0 0 .62-1.11l-40.15-75.66a2.24 2.24 0 0 1 3.54-2.65l62.5 61.19a.56.56 0 0 0 .89-.34l16.17-101.8a2.24 2.24 0 0 1 4.45.29l2.94 102.37a.85.85 0 0 0 1.49.52l20.25-23.89a2.24 2.24 0 0 1 3.94 1.4l-.49 25.11c0 1.62.85.79 2.32.1l60.68-28.64a2.23 2.23 0 0 1 2.36 3.75l-62.42 49.65a2.23 2.23 0 0 0 .33 3.69l44.3 22.74a2.23 2.23 0 0 1-1.13 4.19l-47.52-1.05a.34.34 0 0 0-.28.53l49.86 72.64a141.84 141.84 0 0 0-88-253.12Z" fill="#93b6c8"/></g></g></svg>