<svg xmlns="http://www.w3.org/2000/svg" xmlns:xlink="http://www.w3.org/1999/xlink" viewBox="0 0 27.61 27.61"><defs><style>.cls-1{fill-rule:evenodd;fill:url(#radial-gradient);}</style><radialGradient id="radial-gradient" cx="4.12" cy="11111.8" r="35.28" gradientTransform="matrix(1, 0, 0, -1, 0, 11139.51)" gradientUnits="userSpaceOnUse"><stop offset="0" stop-color="#ffb140"/><stop offset="0.26" stop-color="#ff5445"/><stop offset="0.6" stop-color="#fc2b82"/><stop offset="1" stop-color="#8e40b7"/></radialGradient></defs><title>instagram-icon</title><g id="Layer_2" data-name="Layer 2"><g id="DIELINE"><g id="_7_stroke" data-name="7 stroke"><g id="Instagram"><path id="Instagram-2" data-name="Instagram" class="cls-1" d="M22.83,6.44a1.66,1.66,0,1,1-1.65-1.66A1.65,1.65,0,0,1,22.83,6.44Zm-9,12a4.61,4.61,0,1,1,4.6-4.6A4.6,4.6,0,0,1,13.81,18.41Zm0-11.69a7.09,7.09,0,1,0,7.09,7.09A7.08,7.08,0,0,0,13.81,6.72Zm0-4.23c3.68,0,4.12,0,5.58.08A7.64,7.64,0,0,1,22,3a4.31,4.31,0,0,1,1.59,1,4.29,4.29,0,0,1,1,1.58A7.66,7.66,0,0,1,25,8.23c.07,1.45.09,1.89.09,5.58s0,4.12-.09,5.58A7.64,7.64,0,0,1,24.57,22,4.53,4.53,0,0,1,22,24.57a7.84,7.84,0,0,1-2.56.48c-1.46.06-1.9.08-5.58.08s-4.13,0-5.58-.08a7.86,7.86,0,0,1-2.57-.48,4.29,4.29,0,0,1-1.58-1A4.31,4.31,0,0,1,3,22a7.64,7.64,0,0,1-.47-2.56c-.07-1.46-.08-1.9-.08-5.58s0-4.13.08-5.58A7.66,7.66,0,0,1,3,5.66a4.19,4.19,0,0,1,1-1.58A4.19,4.19,0,0,1,5.66,3a7.66,7.66,0,0,1,2.57-.47C9.68,2.5,10.12,2.49,13.81,2.49Zm0-2.49c-3.75,0-4.22,0-5.7.08A10.25,10.25,0,0,0,4.76.72a6.75,6.75,0,0,0-2.44,1.6A6.75,6.75,0,0,0,.72,4.76,10.25,10.25,0,0,0,.08,8.11C0,9.59,0,10.06,0,13.81S0,18,.08,19.5a10.25,10.25,0,0,0,.64,3.35,6.87,6.87,0,0,0,1.6,2.45,6.72,6.72,0,0,0,2.44,1.59,10.25,10.25,0,0,0,3.35.64c1.48.07,2,.08,5.7.08s4.22,0,5.69-.08a10.25,10.25,0,0,0,3.35-.64,7,7,0,0,0,4-4,10.25,10.25,0,0,0,.64-3.35c.07-1.47.08-1.94.08-5.69s0-4.22-.08-5.7a10.25,10.25,0,0,0-.64-3.35A6.72,6.72,0,0,0,25.3,2.32,6.87,6.87,0,0,0,22.85.72,10.25,10.25,0,0,0,19.5.08C18,0,17.56,0,13.81,0Z"/></g></g></g></g></svg>