<svg width="135" height="40" viewBox="0 0 135 40" fill="none" xmlns="http://www.w3.org/2000/svg">
<path d="M124.249 0.00013H10.7566C10.3429 0.00013 9.9342 0.00013 9.5216 0.00212999C9.17621 0.00412999 8.83358 0.00993997 8.48488 0.01483C7.72733 0.0227317 6.97157 0.081806 6.22416 0.191539C5.4778 0.303662 4.75482 0.515044 4.07967 0.818537C3.40534 1.1246 2.7892 1.52229 2.25358 1.99719C1.71514 2.47076 1.26632 3.01814 0.924356 3.61828C0.581453 4.21723 0.343683 4.85905 0.219258 5.52159C0.0936495 6.1833 0.0260586 6.85263 0.0170916 7.52359C0.00662229 7.83018 0.00551669 8.1378 0 8.44444V31.5586C0.00551669 31.8691 0.00662229 32.1699 0.0170916 32.4805C0.0260614 33.1514 0.0936522 33.8207 0.219258 34.4824C0.343339 35.1453 0.581124 35.7875 0.924356 36.3867C1.26616 36.9849 1.71505 37.5301 2.25358 38.001C2.78717 38.478 3.40371 38.876 4.07967 39.1797C4.75481 39.484 5.47772 39.6967 6.22416 39.8105C6.9717 39.9194 7.72738 39.9785 8.48488 39.9873C8.83358 39.9941 9.17621 39.998 9.5216 39.998C9.93419 40 10.343 40 10.7566 40H124.249C124.655 40 125.067 40 125.472 39.998C125.816 39.998 126.169 39.9941 126.512 39.9873C127.268 39.9789 128.023 39.9198 128.769 39.8105C129.518 39.6959 130.243 39.4833 130.921 39.1797C131.597 38.8758 132.213 38.4779 132.746 38.001C133.283 37.5282 133.733 36.9835 134.079 36.3867C134.42 35.7871 134.655 35.145 134.777 34.4824C134.903 33.8207 134.973 33.1515 134.987 32.4805C134.991 32.1699 134.991 31.8691 134.991 31.5586C135 31.1953 135 30.834 135 30.4648V9.53623C135 9.17002 135 8.80674 134.991 8.44444C134.991 8.1378 134.991 7.83018 134.987 7.52355C134.973 6.85253 134.903 6.18335 134.777 5.52155C134.655 4.8594 134.419 4.21762 134.079 3.61824C133.383 2.41532 132.278 1.43615 130.921 0.818447C130.243 0.515696 129.518 0.304369 128.769 0.191449C128.023 0.0812325 127.269 0.0221377 126.512 0.01469C126.169 0.00980997 125.816 0.00394999 125.472 0.00199999C125.067 0 124.655 0 124.249 0V0.00013Z" fill="#A6A6A6"/>
<path d="M9.54027 38.998C9.19662 38.998 8.86127 38.9941 8.52032 38.9874C7.81401 38.9793 7.10934 38.9251 6.41211 38.8254C5.76198 38.7267 5.13217 38.5433 4.54347 38.2811C3.96017 38.021 3.42815 37.68 2.96779 37.2712C2.50078 36.8671 2.11196 36.3985 1.81676 35.8839C1.5183 35.3659 1.31176 34.8107 1.20431 34.2376C1.08827 33.6218 1.0255 32.9991 1.01651 32.3749C1.00936 32.1654 1 31.4679 1 31.4679V8.51947C1 8.51947 1.00997 7.83262 1.01657 7.63083C1.02517 7.00764 1.08758 6.38594 1.20327 5.77109C1.31092 5.19642 1.51762 4.63961 1.81624 4.11994C2.11036 3.60566 2.49701 3.13669 2.96122 2.7312C3.4249 2.32186 3.95862 1.97911 4.54292 1.71547C5.13027 1.45408 5.75888 1.27193 6.4077 1.17511C7.10722 1.07434 7.81433 1.01986 8.52309 1.01213L9.54082 1H125.454L126.484 1.01262C127.186 1.01997 127.887 1.07396 128.58 1.17414C129.235 1.27217 129.87 1.45559 130.464 1.71838C131.635 2.2497 132.587 3.0903 133.188 4.12236C133.482 4.63845 133.686 5.19072 133.792 5.76042C133.909 6.38031 133.974 7.0069 133.988 7.6352C133.991 7.91653 133.991 8.21873 133.991 8.51947C134 8.892 134 9.24658 134 9.60407V30.3949C134 30.7558 134 31.1079 133.991 31.463C133.991 31.786 133.991 32.082 133.987 32.3866C133.974 33.0036 133.909 33.619 133.794 34.2278C133.689 34.8051 133.483 35.3646 133.185 35.8868C132.888 36.3959 132.501 36.8605 132.039 37.2634C131.579 37.6745 131.046 38.0175 130.461 38.2792C129.869 38.5434 129.234 38.7275 128.58 38.8254C127.882 38.9257 127.178 38.9798 126.471 38.9874C126.141 38.9941 125.795 38.998 125.459 38.998L124.237 39L9.54027 38.998Z" fill="black"/>
<path d="M24.7689 20.3013C24.7796 19.4666 25.0013 18.6483 25.4134 17.9223C25.8254 17.1964 26.4143 16.5864 27.1254 16.1492C26.6737 15.5041 26.0777 14.9731 25.3849 14.5986C24.6921 14.224 23.9215 14.0162 23.1343 13.9916C21.455 13.8153 19.8271 14.9964 18.9714 14.9964C18.0991 14.9964 16.7816 14.0091 15.3629 14.0383C14.4452 14.0679 13.5509 14.3348 12.767 14.8128C11.9831 15.2909 11.3364 15.9638 10.89 16.7661C8.95595 20.1145 10.3985 25.0356 12.2511 27.7422C13.178 29.0676 14.2613 30.548 15.6788 30.4955C17.0658 30.438 17.5839 29.611 19.2582 29.611C20.9169 29.611 21.403 30.4955 22.8492 30.4621C24.3376 30.438 25.2753 29.1309 26.1697 27.793C26.8357 26.8486 27.3481 25.8049 27.6881 24.7005C26.8234 24.3347 26.0855 23.7226 25.5664 22.9403C25.0472 22.158 24.7699 21.2402 24.7689 20.3013Z" fill="white"/>
<path d="M22.0372 12.2113C22.8487 11.2371 23.2485 9.98494 23.1517 8.7207C21.9119 8.85092 20.7666 9.44348 19.9441 10.3803C19.542 10.838 19.234 11.3704 19.0378 11.9472C18.8415 12.524 18.7609 13.1337 18.8004 13.7417C19.4206 13.7481 20.0341 13.6137 20.5947 13.3486C21.1554 13.0835 21.6486 12.6946 22.0372 12.2113Z" fill="white"/>
<path d="M47.875 27.1397H43.1416L42.0049 30.4961H40L44.4834 18.0781H46.5664L51.0498 30.4961H49.0107L47.875 27.1397ZM43.6318 25.5908H47.3838L45.5342 20.1436H45.4825L43.6318 25.5908Z" fill="white"/>
<path d="M60.7325 25.9695C60.7325 28.7829 59.2266 30.5905 56.9541 30.5905C56.3785 30.6207 55.806 30.4881 55.3022 30.2079C54.7984 29.9278 54.3837 29.5114 54.1055 29.0065H54.0625V33.4909H52.2041V21.4421H54.003V22.948H54.0371C54.3281 22.4455 54.7498 22.0313 55.2575 21.7495C55.7651 21.4676 56.3396 21.3287 56.92 21.3474C59.2178 21.3474 60.7325 23.1638 60.7325 25.9695ZM58.8223 25.9695C58.8223 24.1365 57.875 22.9314 56.4297 22.9314C55.0098 22.9314 54.0547 24.1618 54.0547 25.9695C54.0547 27.7937 55.0098 29.0154 56.4297 29.0154C57.875 29.0154 58.8223 27.8191 58.8223 25.9695Z" fill="white"/>
<path d="M70.6973 25.9694C70.6973 28.7829 69.1914 30.5905 66.919 30.5905C66.3433 30.6206 65.7708 30.488 65.267 30.2079C64.7632 29.9278 64.3485 29.5114 64.0703 29.0065H64.0273V33.4909H62.1689V21.4421H63.9678V22.948H64.0019C64.2929 22.4455 64.7146 22.0313 65.2223 21.7495C65.7299 21.4676 66.3044 21.3287 66.8848 21.3474C69.1826 21.3474 70.6973 23.1638 70.6973 25.9694ZM68.7871 25.9694C68.7871 24.1364 67.8399 22.9314 66.3946 22.9314C64.9746 22.9314 64.0196 24.1618 64.0196 25.9694C64.0196 27.7937 64.9746 29.0153 66.3946 29.0153C67.8399 29.0153 68.7871 27.8191 68.7871 25.9694H68.7871Z" fill="white"/>
<path d="M77.2832 27.0362C77.4209 28.2676 78.6172 29.0762 80.252 29.0762C81.8184 29.0762 82.9453 28.2676 82.9453 27.1572C82.9453 26.1934 82.2657 25.6162 80.6563 25.2207L79.0469 24.833C76.7666 24.2822 75.708 23.2158 75.708 21.4854C75.708 19.3428 77.5752 17.8711 80.2266 17.8711C82.8506 17.8711 84.6494 19.3428 84.71 21.4854H82.834C82.7217 20.2461 81.6973 19.4981 80.2002 19.4981C78.7031 19.4981 77.6787 20.2549 77.6787 21.3565C77.6787 22.2344 78.333 22.751 79.9336 23.1465L81.3018 23.4824C83.8496 24.0849 84.9082 25.1084 84.9082 26.9248C84.9082 29.248 83.0576 30.7031 80.1143 30.7031C77.3603 30.7031 75.501 29.2822 75.3809 27.0361L77.2832 27.0362Z" fill="white"/>
<path d="M88.9189 19.2998V21.4424H90.6406V22.9141H88.9189V27.9053C88.9189 28.6807 89.2637 29.042 90.0205 29.042C90.2249 29.0384 90.429 29.0241 90.6318 28.999V30.4619C90.2916 30.5255 89.9457 30.5543 89.5996 30.5478C87.7666 30.5478 87.0518 29.8593 87.0518 28.1035V22.9141H85.7354V21.4424H87.0517V19.2998H88.9189Z" fill="white"/>
<path d="M91.6377 25.9697C91.6377 23.1211 93.3154 21.3311 95.9316 21.3311C98.5566 21.3311 100.227 23.1211 100.227 25.9697C100.227 28.8262 98.5654 30.6084 95.9316 30.6084C93.2988 30.6084 91.6377 28.8262 91.6377 25.9697ZM98.333 25.9697C98.333 24.0156 97.4375 22.8623 95.9316 22.8623C94.4258 22.8623 93.5312 24.0244 93.5312 25.9697C93.5312 27.9316 94.4258 29.0762 95.9316 29.0762C97.4375 29.0762 98.333 27.9316 98.333 25.9697H98.333Z" fill="white"/>
<path d="M101.759 21.442H103.531V22.983H103.574C103.694 22.5017 103.976 22.0764 104.373 21.7785C104.769 21.4806 105.256 21.3284 105.752 21.3473C105.966 21.3465 106.18 21.3698 106.389 21.4166V23.1549C106.118 23.0723 105.836 23.0343 105.554 23.0426C105.284 23.0316 105.015 23.0792 104.765 23.1821C104.515 23.285 104.29 23.4408 104.106 23.6386C103.922 23.8365 103.783 24.0719 103.699 24.3286C103.615 24.5852 103.587 24.8571 103.617 25.1256V30.4957H101.759L101.759 21.442Z" fill="white"/>
<path d="M114.957 27.8369C114.707 29.4805 113.106 30.6084 111.059 30.6084C108.425 30.6084 106.79 28.8437 106.79 26.0127C106.79 23.1729 108.434 21.3311 110.98 21.3311C113.485 21.3311 115.061 23.0518 115.061 25.7969V26.4336H108.666V26.5459C108.637 26.8791 108.678 27.2148 108.788 27.5306C108.899 27.8464 109.075 28.1352 109.305 28.3778C109.535 28.6203 109.815 28.8111 110.124 28.9374C110.434 29.0637 110.767 29.1226 111.102 29.1103C111.541 29.1515 111.981 29.0498 112.358 28.8203C112.735 28.5909 113.027 28.246 113.192 27.8369L114.957 27.8369ZM108.675 25.1348H113.201C113.218 24.8352 113.172 24.5354 113.068 24.2541C112.963 23.9729 112.801 23.7164 112.593 23.5006C112.384 23.2849 112.133 23.1145 111.856 23.0003C111.579 22.8861 111.28 22.8305 110.98 22.8369C110.678 22.8351 110.378 22.8933 110.098 23.008C109.818 23.1227 109.563 23.2918 109.349 23.5054C109.134 23.7191 108.965 23.973 108.849 24.2527C108.733 24.5323 108.674 24.8321 108.675 25.1348V25.1348Z" fill="white"/>
<path d="M43.3989 8.73138C43.7885 8.70342 44.1795 8.76228 44.5436 8.90371C44.9077 9.04515 45.2359 9.26563 45.5045 9.54925C45.7731 9.83288 45.9754 10.1726 46.0968 10.5438C46.2182 10.9151 46.2557 11.3087 46.2065 11.6962C46.2065 13.6025 45.1763 14.6982 43.3989 14.6982H41.2437V8.73138H43.3989ZM42.1704 13.8544H43.2954C43.5738 13.871 43.8524 13.8254 44.111 13.7208C44.3695 13.6161 44.6015 13.4552 44.79 13.2496C44.9784 13.0441 45.1187 12.7991 45.2006 12.5324C45.2824 12.2658 45.3038 11.9843 45.2632 11.7084C45.3009 11.4335 45.2773 11.1538 45.1942 10.8891C45.1111 10.6244 44.9705 10.3814 44.7824 10.1775C44.5943 9.97358 44.3635 9.81378 44.1064 9.70954C43.8493 9.6053 43.5724 9.55922 43.2954 9.57459H42.1704V13.8544Z" fill="white"/>
<path d="M47.2535 12.4448C47.2251 12.1489 47.259 11.8503 47.3528 11.5682C47.4467 11.2862 47.5984 11.0268 47.7984 10.8068C47.9983 10.5868 48.242 10.4111 48.5139 10.2908C48.7857 10.1705 49.0797 10.1084 49.377 10.1084C49.6743 10.1084 49.9682 10.1705 50.2401 10.2908C50.5119 10.4111 50.7557 10.5868 50.9556 10.8068C51.1555 11.0268 51.3073 11.2862 51.4011 11.5682C51.495 11.8503 51.5288 12.1489 51.5005 12.4448C51.5294 12.741 51.4959 13.04 51.4023 13.3225C51.3087 13.605 51.1571 13.8648 50.9571 14.0853C50.7571 14.3057 50.5132 14.4818 50.2411 14.6023C49.9689 14.7229 49.6746 14.7851 49.377 14.7851C49.0794 14.7851 48.785 14.7229 48.5129 14.6023C48.2408 14.4818 47.9969 14.3057 47.7969 14.0853C47.5969 13.8648 47.4452 13.605 47.3516 13.3225C47.2581 13.04 47.2246 12.741 47.2535 12.4448ZM50.5865 12.4448C50.5865 11.4687 50.148 10.8979 49.3785 10.8979C48.606 10.8979 48.1715 11.4687 48.1715 12.4448C48.1715 13.4287 48.606 13.9951 49.3785 13.9951C50.148 13.9951 50.5865 13.4248 50.5865 12.4448H50.5865Z" fill="white"/>
<path d="M57.146 14.6982H56.2241L55.2935 11.3818H55.2232L54.2964 14.6982H53.3833L52.1421 10.1953H53.0435L53.8501 13.6313H53.9165L54.8423 10.1953H55.6948L56.6206 13.6313H56.6909L57.4937 10.1953H58.3823L57.146 14.6982Z" fill="white"/>
<path d="M59.4263 10.1949H60.2817V10.9102H60.3481C60.4608 10.6533 60.6508 10.4379 60.8917 10.2941C61.1325 10.1503 61.4123 10.0852 61.6919 10.1079C61.911 10.0915 62.131 10.1245 62.3356 10.2046C62.5402 10.2847 62.7241 10.4098 62.8738 10.5707C63.0235 10.7315 63.1351 10.924 63.2003 11.1338C63.2655 11.3436 63.2826 11.5654 63.2505 11.7827V14.6977H62.3618V12.0059C62.3618 11.2823 62.0474 10.9224 61.3901 10.9224C61.2414 10.9155 61.0929 10.9408 60.9548 10.9966C60.8168 11.0525 60.6924 11.1375 60.5903 11.2459C60.4882 11.3543 60.4107 11.4834 60.3632 11.6246C60.3156 11.7657 60.2992 11.9154 60.3149 12.0635V14.6978H59.4263L59.4263 10.1949Z" fill="white"/>
<path d="M64.6665 8.4375H65.5552V14.6982H64.6665V8.4375Z" fill="white"/>
<path d="M66.7905 12.4449C66.7623 12.1489 66.7961 11.8503 66.89 11.5683C66.9838 11.2862 67.1356 11.0268 67.3356 10.8068C67.5356 10.5869 67.7793 10.4111 68.0512 10.2908C68.323 10.1705 68.617 10.1084 68.9143 10.1084C69.2116 10.1084 69.5056 10.1705 69.7775 10.2908C70.0494 10.4111 70.2931 10.5869 70.493 10.8068C70.693 11.0268 70.8448 11.2862 70.9386 11.5683C71.0325 11.8503 71.0664 12.1489 71.0381 12.4449C71.0669 12.7411 71.0334 13.0401 70.9398 13.3226C70.8462 13.6051 70.6945 13.8649 70.4945 14.0853C70.2945 14.3058 70.0506 14.4819 69.7784 14.6024C69.5063 14.7229 69.212 14.7852 68.9143 14.7852C68.6167 14.7852 68.3223 14.7229 68.0502 14.6024C67.7781 14.4819 67.5342 14.3058 67.3342 14.0853C67.1341 13.8649 66.9825 13.6051 66.8888 13.3226C66.7952 13.0401 66.7617 12.7411 66.7905 12.4449ZM70.1235 12.4449C70.1235 11.4688 69.6851 10.898 68.9155 10.898C68.1431 10.898 67.7085 11.4688 67.7085 12.4449C67.7085 13.4288 68.1431 13.9952 68.9155 13.9952C69.6851 13.9952 70.1235 13.4248 70.1235 12.4449H70.1235Z" fill="white"/>
<path d="M71.9736 13.4248C71.9736 12.6142 72.5771 12.147 73.6484 12.0806L74.8682 12.0102V11.6216C74.8682 11.146 74.5537 10.8774 73.9463 10.8774C73.4502 10.8774 73.1065 11.0596 73.0078 11.3779H72.1475C72.2383 10.6045 72.9658 10.1084 73.9873 10.1084C75.1162 10.1084 75.7529 10.6704 75.7529 11.6216V14.6982H74.8975V14.0654H74.8271C74.6844 14.2924 74.484 14.4775 74.2464 14.6017C74.0088 14.7259 73.7425 14.7848 73.4746 14.7724C73.2856 14.7921 73.0945 14.7719 72.9138 14.7132C72.733 14.6545 72.5665 14.5586 72.4251 14.4316C72.2837 14.3047 72.1705 14.1495 72.0927 13.9761C72.0149 13.8026 71.9744 13.6149 71.9736 13.4248ZM74.8682 13.04V12.6636L73.7686 12.7339C73.1484 12.7754 72.8672 12.9863 72.8672 13.3833C72.8672 13.7886 73.2187 14.0244 73.7022 14.0244C73.8438 14.0387 73.9869 14.0244 74.1229 13.9823C74.2589 13.9403 74.3851 13.8712 74.4939 13.7794C74.6026 13.6876 74.6918 13.5748 74.7561 13.4477C74.8204 13.3207 74.8585 13.1821 74.8682 13.04Z" fill="white"/>
<path d="M76.9209 12.4448C76.9209 11.022 77.6523 10.1206 78.79 10.1206C79.0715 10.1077 79.3508 10.1751 79.5953 10.315C79.8398 10.4548 80.0395 10.6615 80.1709 10.9106H80.2373V8.4375H81.126V14.6982H80.2744V13.9868H80.2041C80.0625 14.2343 79.8559 14.4383 79.6066 14.5768C79.3574 14.7153 79.075 14.783 78.79 14.7724C77.6445 14.7725 76.9209 13.8711 76.9209 12.4448ZM77.8389 12.4448C77.8389 13.3999 78.2891 13.9746 79.042 13.9746C79.791 13.9746 80.2539 13.3916 80.2539 12.4487C80.2539 11.5103 79.7862 10.919 79.042 10.919C78.294 10.919 77.8389 11.4976 77.8389 12.4448H77.8389Z" fill="white"/>
<path d="M84.8028 12.4448C84.7745 12.1489 84.8083 11.8503 84.9022 11.5682C84.996 11.2862 85.1478 11.0268 85.3477 10.8068C85.5476 10.5868 85.7913 10.4111 86.0632 10.2908C86.335 10.1705 86.629 10.1084 86.9263 10.1084C87.2236 10.1084 87.5176 10.1705 87.7894 10.2908C88.0613 10.4111 88.305 10.5868 88.5049 10.8068C88.7049 11.0268 88.8566 11.2862 88.9505 11.5682C89.0443 11.8503 89.0781 12.1489 89.0498 12.4448C89.0787 12.741 89.0452 13.04 88.9516 13.3225C88.8581 13.605 88.7064 13.8648 88.5064 14.0853C88.3064 14.3057 88.0625 14.4818 87.7904 14.6023C87.5183 14.7229 87.2239 14.7851 86.9263 14.7851C86.6287 14.7851 86.3343 14.7229 86.0622 14.6023C85.7901 14.4818 85.5462 14.3057 85.3462 14.0853C85.1462 13.8648 84.9946 13.605 84.901 13.3225C84.8074 13.04 84.7739 12.741 84.8028 12.4448ZM88.1358 12.4448C88.1358 11.4687 87.6973 10.8979 86.9278 10.8979C86.1553 10.8979 85.7208 11.4687 85.7208 12.4448C85.7208 13.4287 86.1553 13.9951 86.9278 13.9951C87.6973 13.9951 88.1358 13.4248 88.1358 12.4448Z" fill="white"/>
<path d="M90.2422 10.1949H91.0977V10.9102H91.1641C91.2767 10.6533 91.4667 10.4379 91.7076 10.2941C91.9485 10.1503 92.2282 10.0852 92.5078 10.1079C92.7269 10.0915 92.9469 10.1245 93.1515 10.2046C93.3561 10.2847 93.5401 10.4098 93.6898 10.5707C93.8394 10.7315 93.951 10.924 94.0162 11.1338C94.0814 11.3436 94.0986 11.5654 94.0664 11.7827V14.6977H93.1777V12.0059C93.1777 11.2823 92.8633 10.9224 92.2061 10.9224C92.0573 10.9155 91.9088 10.9408 91.7707 10.9966C91.6327 11.0525 91.5083 11.1375 91.4062 11.2459C91.3041 11.3543 91.2266 11.4834 91.1791 11.6246C91.1315 11.7657 91.1151 11.9154 91.1309 12.0635V14.6978H90.2422V10.1949Z" fill="white"/>
<path d="M99.0879 9.07422V10.2158H100.063V10.9644H99.0879V13.2798C99.0879 13.7515 99.2822 13.958 99.7246 13.958C99.8379 13.9576 99.951 13.9508 100.063 13.9375V14.6777C99.9039 14.7063 99.7422 14.7215 99.5801 14.7231C98.5918 14.7231 98.1982 14.3755 98.1982 13.5073V10.9643H97.4834V10.2158H98.1982V9.07422H99.0879Z" fill="white"/>
<path d="M101.277 8.4375H102.158V10.919H102.229C102.347 10.6596 102.542 10.443 102.788 10.2987C103.033 10.1543 103.317 10.0893 103.602 10.1123C103.819 10.1004 104.037 10.1368 104.24 10.2189C104.442 10.3009 104.624 10.4266 104.772 10.5869C104.92 10.7473 105.031 10.9383 105.097 11.1465C105.162 11.3546 105.181 11.5747 105.152 11.791V14.6982H104.263V12.0103C104.263 11.291 103.928 10.9268 103.3 10.9268C103.147 10.9142 102.993 10.9352 102.85 10.9883C102.706 11.0413 102.575 11.1252 102.467 11.2339C102.359 11.3426 102.277 11.4737 102.224 11.6178C102.172 11.7619 102.152 11.9157 102.166 12.0683V14.6982H101.277L101.277 8.4375Z" fill="white"/>
<path d="M110.334 13.4825C110.213 13.894 109.952 14.25 109.595 14.4882C109.238 14.7263 108.809 14.8315 108.383 14.7852C108.086 14.7931 107.791 14.7362 107.519 14.6187C107.246 14.5012 107.003 14.3258 106.805 14.1046C106.607 13.8835 106.459 13.6219 106.373 13.3381C106.286 13.0543 106.262 12.755 106.303 12.461C106.263 12.1661 106.288 11.8662 106.374 11.5815C106.461 11.2969 106.607 11.0341 106.804 10.811C107.001 10.5879 107.243 10.4098 107.515 10.2886C107.787 10.1674 108.081 10.1059 108.379 10.1085C109.632 10.1085 110.388 10.9645 110.388 12.3785V12.6886H107.208V12.7384C107.194 12.9036 107.215 13.0699 107.269 13.2267C107.323 13.3834 107.409 13.5271 107.522 13.6486C107.635 13.7701 107.772 13.8666 107.925 13.932C108.077 13.9974 108.241 14.0302 108.407 14.0284C108.62 14.0539 108.835 14.0156 109.026 13.9184C109.217 13.8212 109.374 13.6694 109.479 13.4825L110.334 13.4825ZM107.208 12.0313H109.482C109.494 11.8802 109.473 11.7284 109.422 11.5857C109.371 11.443 109.291 11.3125 109.187 11.2026C109.082 11.0928 108.956 11.006 108.816 10.9478C108.676 10.8896 108.526 10.8614 108.374 10.8648C108.22 10.8629 108.068 10.8918 107.925 10.9497C107.783 11.0076 107.654 11.0935 107.545 11.2022C107.436 11.3109 107.351 11.4403 107.293 11.5827C107.235 11.7251 107.206 11.8776 107.208 12.0313H107.208Z" fill="white"/>
</svg>
