<svg xmlns="http://www.w3.org/2000/svg" viewBox="0 0 17.64 19.07"><defs><style>.cls-1{fill:#fff}</style></defs><g id="Layer_2" data-name="Layer 2"><g id="Layer_1-2" data-name="Layer 1"><path class="cls-1" d="M4.7 1.79h5.8v8.86H4.7z"/><path d="M13.87 10a2.71 2.71 0 01-2.71-2.7V2.78h.9a.91.91 0 100-1.81H3a.91.91 0 000 1.81h.91V7.3A2.72 2.72 0 011.2 10v1.81h5.41v6.33l.9.91.91-.91v-6.31h5.45zm-9 0a4.48 4.48 0 00.86-2.7V2.78h3.62V7.3a4.51 4.51 0 00.9 2.72z" fill="#91a3bc"/><circle cx="15.85" cy="1.79" r="1.79" fill="#ef6f6f"/><path class="cls-1" d="M13.69 17.34a1 1 0 01-.71-.29L.29 4.4a1 1 0 010-1.4 1 1 0 011.42 0l12.68 12.63a1 1 0 010 1.41 1 1 0 01-.7.3z"/></g></g></svg>