<svg xmlns="http://www.w3.org/2000/svg" viewBox="0 0 430.66 89.94"><defs><style>.cls-1{fill:#231f20;}</style></defs><title>brought-by</title><g id="Layer_2" data-name="Layer 2"><g id="Artwork"><path class="cls-1" d="M8.13,33.6A2.65,2.65,0,0,1,9.2,35.84a2.7,2.7,0,0,1-.59,1.77,2.88,2.88,0,0,1-1.62,1,3.17,3.17,0,0,1,2,1,3,3,0,0,1,.72,2.06,2.88,2.88,0,0,1-1.17,2.44A5.31,5.31,0,0,1,5.29,45H0V32.79H5.2A4.76,4.76,0,0,1,8.13,33.6ZM6.86,37.48a1.63,1.63,0,0,0,.62-1.37,1.58,1.58,0,0,0-.62-1.34,2.77,2.77,0,0,0-1.75-.45H1.67V38H5.11A2.8,2.8,0,0,0,6.86,37.48Zm.37,5.44A1.71,1.71,0,0,0,8,41.44,1.65,1.65,0,0,0,7.24,40a3.73,3.73,0,0,0-2.12-.52H1.67v4H5.11A3.6,3.6,0,0,0,7.24,42.93Z"/><path class="cls-1" d="M21.75,45l-2.42-3.83-.68,0h-3.1V45H13.88V32.79h4.77a5.37,5.37,0,0,1,3.57,1.07,3.76,3.76,0,0,1,1.26,3,4.32,4.32,0,0,1-.69,2.49,3.85,3.85,0,0,1-2,1.46L23.66,45Zm-3.1-5.31a3.69,3.69,0,0,0,2.4-.69,2.47,2.47,0,0,0,.83-2,2.38,2.38,0,0,0-.83-2,3.76,3.76,0,0,0-2.4-.67h-3.1v5.36Z"/><path class="cls-1" d="M36.41,33.51a6.15,6.15,0,0,1,2.32,2.24,6,6,0,0,1,.85,3.12A6,6,0,0,1,38.73,42a6.17,6.17,0,0,1-2.32,2.26,6.71,6.71,0,0,1-6.45,0A6.16,6.16,0,0,1,27.63,42a6,6,0,0,1-.85-3.14,5.94,5.94,0,0,1,.85-3.12,6.16,6.16,0,0,1,2.31-2.24,6.79,6.79,0,0,1,6.46,0Zm-5.57,1.3a4.76,4.76,0,0,0-1.73,1.7,4.65,4.65,0,0,0,0,4.72,4.8,4.8,0,0,0,1.73,1.71,4.59,4.59,0,0,0,2.36.63,4.5,4.5,0,0,0,2.34-.63,4.78,4.78,0,0,0,1.7-1.71,4.71,4.71,0,0,0,0-4.72,4.73,4.73,0,0,0-1.7-1.7,4.55,4.55,0,0,0-2.34-.63A4.64,4.64,0,0,0,30.84,34.81Z"/><path class="cls-1" d="M45.9,42.63a3.43,3.43,0,0,0,2.57.95A3.38,3.38,0,0,0,51,42.63,3.62,3.62,0,0,0,51.93,40v-7.2H53.6V40a5,5,0,0,1-1.37,3.74,5.11,5.11,0,0,1-3.77,1.36,5.16,5.16,0,0,1-3.79-1.36A5,5,0,0,1,43.3,40v-7.2H45V40A3.6,3.6,0,0,0,45.9,42.63Z"/><path class="cls-1" d="M66.86,39h1.48v4.47a7.76,7.76,0,0,1-4.61,1.6,6.42,6.42,0,0,1-3.22-.83,6.16,6.16,0,0,1-3.15-5.4,5.94,5.94,0,0,1,.85-3.12,6.12,6.12,0,0,1,2.33-2.24,6.65,6.65,0,0,1,3.27-.82,7,7,0,0,1,2.48.45,6.66,6.66,0,0,1,2.1,1.24l-1,1.22a5.31,5.31,0,0,0-1.68-1.05,5.25,5.25,0,0,0-1.94-.37,4.75,4.75,0,0,0-2.4.63,4.65,4.65,0,0,0-1.73,1.7,4.71,4.71,0,0,0,0,4.74A4.76,4.76,0,0,0,61.43,43a4.7,4.7,0,0,0,2.4.63,5.11,5.11,0,0,0,1.56-.25,5.81,5.81,0,0,0,1.47-.7Z"/><path class="cls-1" d="M72.91,32.79h1.67v5.43h7V32.79h1.69V45H81.53V39.73h-7V45H72.91Z"/><path class="cls-1" d="M86.53,32.79H96v1.53H92.12V45H90.45V34.32H86.53Z"/><path class="cls-1" d="M104.43,32.79h9.51v1.53H110V45h-1.67V34.32h-3.91Z"/><path class="cls-1" d="M125.47,33.51a6.15,6.15,0,0,1,2.32,2.24,6,6,0,0,1,.85,3.12,6,6,0,0,1-.85,3.14,6.17,6.17,0,0,1-2.32,2.26,6.71,6.71,0,0,1-6.45,0A6.16,6.16,0,0,1,116.69,42a6,6,0,0,1-.85-3.14,5.94,5.94,0,0,1,.85-3.12A6.16,6.16,0,0,1,119,33.51a6.79,6.79,0,0,1,6.46,0Zm-5.57,1.3a4.76,4.76,0,0,0-1.73,1.7,4.65,4.65,0,0,0,0,4.72,4.8,4.8,0,0,0,1.73,1.71,4.59,4.59,0,0,0,2.36.63,4.5,4.5,0,0,0,2.34-.63,4.78,4.78,0,0,0,1.7-1.71,4.71,4.71,0,0,0,0-4.72,4.73,4.73,0,0,0-1.7-1.7,4.55,4.55,0,0,0-2.34-.63A4.64,4.64,0,0,0,119.9,34.81Z"/><path class="cls-1" d="M148.25,32.79l-4.56,8V45H142V40.86l-4.63-8.07h1.7L142.86,39l3.69-6.21Z"/><path class="cls-1" d="M159.43,33.51a6.15,6.15,0,0,1,2.32,2.24,6,6,0,0,1,.85,3.12,6,6,0,0,1-.85,3.14,6.17,6.17,0,0,1-2.32,2.26,6.71,6.71,0,0,1-6.45,0A6.16,6.16,0,0,1,150.65,42a6,6,0,0,1-.85-3.14,5.94,5.94,0,0,1,.85-3.12A6.16,6.16,0,0,1,153,33.51a6.79,6.79,0,0,1,6.46,0Zm-5.57,1.3a4.76,4.76,0,0,0-1.73,1.7,4.65,4.65,0,0,0,0,4.72,4.8,4.8,0,0,0,1.73,1.71,4.59,4.59,0,0,0,2.36.63,4.5,4.5,0,0,0,2.34-.63,4.78,4.78,0,0,0,1.7-1.71,4.71,4.71,0,0,0,0-4.72,4.73,4.73,0,0,0-1.7-1.7,4.55,4.55,0,0,0-2.34-.63A4.64,4.64,0,0,0,153.86,34.81Z"/><path class="cls-1" d="M168.93,42.63a3.43,3.43,0,0,0,2.57.95,3.38,3.38,0,0,0,2.54-.95A3.62,3.62,0,0,0,175,40v-7.2h1.67V40a5,5,0,0,1-1.37,3.74,5.11,5.11,0,0,1-3.77,1.36,5.16,5.16,0,0,1-3.79-1.36A5,5,0,0,1,166.33,40v-7.2H168V40A3.6,3.6,0,0,0,168.93,42.63Z"/><path class="cls-1" d="M196,33.6a2.65,2.65,0,0,1,1.07,2.24,2.7,2.7,0,0,1-.59,1.77,2.88,2.88,0,0,1-1.62,1,3.17,3.17,0,0,1,2,1,3,3,0,0,1,.72,2.06,2.88,2.88,0,0,1-1.17,2.44,5.31,5.31,0,0,1-3.24.88h-5.29V32.79h5.2A4.76,4.76,0,0,1,196,33.6Zm-1.27,3.88a1.63,1.63,0,0,0,.62-1.37,1.58,1.58,0,0,0-.62-1.34,2.77,2.77,0,0,0-1.75-.45h-3.44V38H193A2.8,2.8,0,0,0,194.74,37.48Zm.37,5.44a1.71,1.71,0,0,0,.77-1.49,1.65,1.65,0,0,0-.77-1.44,3.73,3.73,0,0,0-2.12-.52h-3.44v4H193A3.6,3.6,0,0,0,195.11,42.93Z"/><path class="cls-1" d="M210.51,32.79l-4.56,8V45h-1.67V40.86l-4.63-8.07h1.7L205.11,39l3.69-6.21Z"/><path class="cls-1" d="M330.75,10.77c0-.83,0-3.55-.07-3.91-.07-1.29-.42-1.34-1.16-1.34h-.71c-.16,0-.16,0-.16-.2V4.81c0-.13,0-.2.18-.2s1.36.07,3.48.07c.71,0,2.05-.07,3.57-.07a8.67,8.67,0,0,1,3.82.6,3.13,3.13,0,0,1,1.72,3c0,1.47-.89,2.9-3.26,3.68v0c2.77.71,4.22,2.05,4.22,4.42a4.09,4.09,0,0,1-1.74,3.39,11.9,11.9,0,0,1-5.25.83L334,20.55c-.65,0-1.34-.07-1.76-.07-1.12,0-1.85,0-2.34,0l-.87,0c-.22,0-.25-.07-.25-.25v-.49c0-.13,0-.18.22-.18h.78c.67,0,.78-.27.87-.94.07-.51.11-3.46.11-5.29Zm3.26.92a4.52,4.52,0,0,0,3-.63,3.49,3.49,0,0,0,1.07-2.63,2.85,2.85,0,0,0-.92-2.26,4.28,4.28,0,0,0-2.1-.8c-.47,0-1,0-1,.38S334,8.14,334,10Zm0,5.18c0,2.12.49,3,1.67,3,1.58,0,3.08-.78,3.08-3.57a3.41,3.41,0,0,0-2-3.46,7.31,7.31,0,0,0-2.75-.38Z"/><path class="cls-1" d="M350.28,13.49c0,.38,0,5.2.07,6.1h1.27c1,0,2.06,0,3.26-.11s2.72-2.79,3.06-3.62c.07-.13.13-.2.27-.13l.45.18c.07,0,.07.07,0,.2s-1,3.84-1.1,4.44c-.58,0-7-.07-9.07-.07-2.21,0-3,.07-3.3.07s-.18,0-.18-.2v-.56c0-.11,0-.16.16-.16h.69c.83,0,1-.31,1-.56,0-.42.07-6,.07-7.35V10.48c0-1.43,0-3.8-.07-4.15,0-.58-.16-.8-.67-.8h-.83c-.13,0-.16-.11-.16-.22V4.76c0-.11,0-.16.16-.16s1,.07,3.08.07c2.61,0,3.55-.07,3.75-.07s.2.07.2.22v.51c0,.11,0,.18-.22.18h-1c-.69,0-.78.22-.78.83,0,.29-.07,3.66-.07,5.23Z"/><path class="cls-1" d="M361.93,6.66c0-.78-.16-1.14-.62-1.14h-1c-.13,0-.16,0-.16-.2V4.79c0-.13,0-.18.2-.18s1.32.07,3.66.07c2,0,3-.07,3.28-.07s.2,0,.2.18v.58c0,.11,0,.16-.18.16h-.76c-.76,0-1.14.42-1.18.87,0,.25,0,1.76,0,2.9v1.47c0,1.18.09,4,.11,4.73a4.61,4.61,0,0,0,.71,2.66,3.54,3.54,0,0,0,2.79,1.25,4.5,4.5,0,0,0,2.63-1,4.7,4.7,0,0,0,1.41-3.64V11.35a42.61,42.61,0,0,0-.31-4.85c-.09-.58-.45-1-.83-1h-.72c-.13,0-.15-.07-.15-.18V4.76c0-.11,0-.16.15-.16s1.25.07,2.77.07c1.21,0,1.92-.07,2.12-.07s.22.09.22.2V5.3c0,.13,0,.22-.13.22h-.69a.88.88,0,0,0-1,.85c0,.31,0,3.39,0,3.71s0,4.22-.11,5.09a6,6,0,0,1-1.9,4.26,6.16,6.16,0,0,1-4,1.38,9.7,9.7,0,0,1-3.42-.56,5.13,5.13,0,0,1-2.59-2.95c-.38-1-.47-2.46-.47-5.38Z"/><path class="cls-1" d="M384.07,11.93a14.62,14.62,0,0,0,2.28-.13,1.84,1.84,0,0,0,1-.69,2.83,2.83,0,0,0,.51-1.38c0-.16.07-.2.18-.2l.6.07c.11,0,.2,0,.18.18a22.78,22.78,0,0,0-.07,2.32c0,1,.09,2.08.13,2.55,0,.13-.07.16-.18.18l-.54.11c-.09,0-.13,0-.18-.18a6.87,6.87,0,0,0-.45-1.14,1.8,1.8,0,0,0-1.23-.78,15.37,15.37,0,0,0-2.28-.13V14c0,1.21.11,3.37.11,3.77,0,1.16.25,1.56.54,1.7a5,5,0,0,0,1.88.2c.38,0,1.32,0,1.79-.07a3.41,3.41,0,0,0,1.7-.74,25.67,25.67,0,0,0,2.28-2.39c.09-.09.16-.11.22-.07l.38.22a.14.14,0,0,1,.09.18l-1,3.37a.47.47,0,0,1-.49.33l-2,0c-1.45,0-3.82,0-7.68,0l-1.9,0-1,0c-.16,0-.2-.07-.2-.25v-.47c0-.13.07-.2.22-.2h.67c1,0,1.12-.16,1.12-.94V11.22c0-1.85,0-4.6-.07-4.82-.09-.71-.31-.87-.92-.87h-.87c-.09,0-.11-.07-.11-.22V4.76a.14.14,0,0,1,.16-.16c.49,0,1.27.07,3.3.07l7.84,0c.36,0,.78,0,.89,0s.16,0,.18.11c.09.31.83,3.37.92,3.59s0,.16-.07.22l-.36.18a.2.2,0,0,1-.27-.09,24.54,24.54,0,0,0-2.63-2.5,3.69,3.69,0,0,0-1.7-.6l-2.95-.09Z"/><path class="cls-1" d="M334,34.52c0,.38,0,5.2.07,6.1h1.27c1,0,2.05,0,3.26-.11s2.73-2.79,3.06-3.62c.07-.13.13-.2.27-.13l.45.18c.07,0,.07.07,0,.2s-1,3.84-1.09,4.44c-.58,0-7-.07-9.07-.07-2.21,0-3,.07-3.3.07s-.18,0-.18-.2v-.56c0-.11,0-.16.16-.16h.69c.83,0,1-.31,1-.56,0-.42.07-6,.07-7.35V31.5c0-1.43,0-3.8-.07-4.15,0-.58-.16-.8-.67-.8h-.83c-.13,0-.16-.11-.16-.22v-.54c0-.11,0-.16.16-.16s1,.07,3.08.07c2.61,0,3.55-.07,3.75-.07s.2.07.2.22v.51c0,.11,0,.18-.22.18h-1c-.69,0-.78.22-.78.83,0,.29-.07,3.66-.07,5.23Z"/><path class="cls-1" d="M350,33a14.59,14.59,0,0,0,2.28-.13,1.84,1.84,0,0,0,1-.69,2.83,2.83,0,0,0,.51-1.38c0-.16.07-.2.18-.2l.6.07c.11,0,.2,0,.18.18a22.3,22.3,0,0,0-.07,2.32c0,1,.09,2.08.13,2.55,0,.13-.07.16-.18.18l-.54.11c-.09,0-.13,0-.18-.18a6.72,6.72,0,0,0-.45-1.14,1.81,1.81,0,0,0-1.23-.78,15.42,15.42,0,0,0-2.28-.13v1.34c0,1.21.11,3.37.11,3.77,0,1.16.24,1.56.54,1.7a5,5,0,0,0,1.88.2c.38,0,1.32,0,1.79-.07a3.41,3.41,0,0,0,1.7-.74,25.4,25.4,0,0,0,2.28-2.39c.09-.09.16-.11.22-.07l.38.22a.14.14,0,0,1,.09.18l-1,3.37a.47.47,0,0,1-.49.34l-2,0c-1.45,0-3.82,0-7.68,0l-1.9,0-1,0c-.16,0-.2-.07-.2-.25v-.47c0-.13.07-.2.22-.2h.67c1,0,1.12-.16,1.12-.94V32.24c0-1.85,0-4.6-.07-4.82-.09-.71-.31-.87-.92-.87h-.87c-.09,0-.11-.07-.11-.22v-.54a.14.14,0,0,1,.16-.16c.49,0,1.27.07,3.3.07l7.84,0c.36,0,.78,0,.89,0s.16,0,.18.11c.09.31.83,3.37.92,3.59s0,.16-.07.22l-.36.18a.2.2,0,0,1-.27-.09,24.43,24.43,0,0,0-2.63-2.5,3.68,3.68,0,0,0-1.7-.6l-2.95-.09Z"/><path class="cls-1" d="M367.44,26.72h-.78a9.91,9.91,0,0,0-3,.36,15.34,15.34,0,0,0-2,2.52c-.07.11-.13.18-.22.16l-.49-.18a.16.16,0,0,1-.09-.2c.25-.94,1-3.89,1.07-4.33.07-.29.18-.38.33-.38s.22.09.42.34a1.86,1.86,0,0,0,1.47.56c1.18.07,2.12.13,4.44.13h1.3c2.43,0,3.39-.09,4.33-.13a3.3,3.3,0,0,0,1.63-.56c.22-.22.36-.34.51-.34s.22.09.27.36c.07.49.49,3.26.67,4.44a.17.17,0,0,1-.09.2l-.47.18c-.09,0-.13,0-.22-.2a15.36,15.36,0,0,0-1.92-2.5,9.82,9.82,0,0,0-3.06-.42h-.74v6.14c0,.31,0,6.56,0,6.9,0,.56.22.89.76.89h1c.2,0,.22.07.22.22v.51c0,.11,0,.18-.22.18s-.94-.07-3.42-.07-3.3.07-3.62.07-.2-.09-.2-.27v-.42c0-.16,0-.22.16-.22h1.14a.71.71,0,0,0,.76-.67c0-.47,0-7.32,0-7.75Z"/><path class="cls-1" d="M386.08,26.72h-.78a9.91,9.91,0,0,0-3,.36,15.26,15.26,0,0,0-2,2.52c-.07.11-.13.18-.22.16l-.49-.18a.16.16,0,0,1-.09-.2c.25-.94,1-3.89,1.07-4.33.07-.29.18-.38.33-.38s.22.09.43.34a1.86,1.86,0,0,0,1.47.56c1.18.07,2.12.13,4.44.13h1.3c2.43,0,3.39-.09,4.33-.13a3.29,3.29,0,0,0,1.63-.56c.22-.22.36-.34.51-.34s.22.09.27.36c.07.49.49,3.26.67,4.44a.17.17,0,0,1-.09.2l-.47.18c-.09,0-.13,0-.22-.2a15.38,15.38,0,0,0-1.92-2.5,9.82,9.82,0,0,0-3.06-.42h-.74v6.14c0,.31,0,6.56,0,6.9,0,.56.22.89.76.89h1c.2,0,.22.07.22.22v.51c0,.11,0,.18-.22.18s-.94-.07-3.42-.07-3.3.07-3.62.07-.2-.09-.2-.27v-.42c0-.16,0-.22.16-.22h1.14A.71.71,0,0,0,386,40c0-.47,0-7.32,0-7.75Z"/><path class="cls-1" d="M403.66,33a14.57,14.57,0,0,0,2.28-.13,1.84,1.84,0,0,0,1-.69,2.83,2.83,0,0,0,.51-1.38c0-.16.07-.2.18-.2l.6.07c.11,0,.2,0,.18.18a22.3,22.3,0,0,0-.07,2.32c0,1,.09,2.08.13,2.55,0,.13-.07.16-.18.18l-.54.11c-.09,0-.13,0-.18-.18a6.72,6.72,0,0,0-.45-1.14,1.8,1.8,0,0,0-1.23-.78,15.4,15.4,0,0,0-2.28-.13v1.34c0,1.21.11,3.37.11,3.77,0,1.16.25,1.56.54,1.7a5,5,0,0,0,1.87.2c.38,0,1.32,0,1.79-.07a3.41,3.41,0,0,0,1.7-.74,25.47,25.47,0,0,0,2.28-2.39c.09-.09.16-.11.22-.07l.38.22a.14.14,0,0,1,.09.18l-1,3.37a.47.47,0,0,1-.49.34l-2,0c-1.45,0-3.82,0-7.68,0l-1.9,0-1,0c-.16,0-.2-.07-.2-.25v-.47c0-.13.07-.2.22-.2h.67c1,0,1.12-.16,1.12-.94V32.24c0-1.85,0-4.6-.07-4.82-.09-.71-.31-.87-.92-.87h-.87c-.09,0-.11-.07-.11-.22v-.54a.14.14,0,0,1,.16-.16c.49,0,1.27.07,3.3.07l7.84,0c.36,0,.78,0,.89,0s.16,0,.18.11c.09.31.83,3.37.92,3.59s0,.16-.07.22l-.36.18a.2.2,0,0,1-.27-.09,24.4,24.4,0,0,0-2.63-2.5,3.68,3.68,0,0,0-1.7-.6l-2.95-.09Z"/><path class="cls-1" d="M416.84,31.35c0-1.65,0-3.08,0-3.68s-.31-1.12-.63-1.12h-.89c-.11,0-.13-.07-.13-.16v-.6c0-.11,0-.16.13-.16s.89.07,3.33.07c1.25,0,3.22-.07,4.13-.07a5.64,5.64,0,0,1,4,1.47A3.46,3.46,0,0,1,428,29.54a4.19,4.19,0,0,1-4.09,4.29V34a3,3,0,0,1,1.47,1.18c.29.36,1.52,2.34,1.7,2.61s1.34,1.9,1.79,2.41a2.81,2.81,0,0,0,1.63.47c.16,0,.18.09.18.18v.54c0,.13,0,.2-.18.2s-.76-.07-2.48-.07c-.65,0-1.47,0-2.12.07a18.49,18.49,0,0,1-2.43-3.86c-.76-1.52-1.68-3.17-2.75-3.17h-.76v1.14c0,1.32.07,3.82.11,4.11,0,.47.22.87.56.87h.92c.16,0,.18.07.18.18v.54c0,.16,0,.2-.36.2,0,0-.58-.07-2.92-.07s-2.88.07-3.13.07-.18-.07-.18-.22v-.51c0-.11,0-.18.11-.18h.67c.49,0,.89-.16.89-.72,0-2.21,0-4.31,0-6.43ZM420,33.76c.43,0,.69,0,.89,0,2.95,0,3.64-2.81,3.64-3.86a3.73,3.73,0,0,0-.85-2.5,3.93,3.93,0,0,0-2.48-1,1.3,1.3,0,0,0-.85.2,1,1,0,0,0-.25.6Z"/><path class="cls-1" d="M330.75,52.82c0-.83,0-3.55-.07-3.91-.07-1.29-.42-1.34-1.16-1.34h-.71c-.16,0-.16,0-.16-.2v-.51c0-.13,0-.2.18-.2s1.36.07,3.48.07c.71,0,2.05-.07,3.57-.07a8.67,8.67,0,0,1,3.82.6,3.13,3.13,0,0,1,1.72,3c0,1.47-.89,2.9-3.26,3.68v0c2.77.71,4.22,2.05,4.22,4.42a4.09,4.09,0,0,1-1.74,3.39,11.9,11.9,0,0,1-5.25.83L334,62.6c-.65,0-1.34-.07-1.76-.07-1.12,0-1.85,0-2.34,0l-.87,0c-.22,0-.25-.07-.25-.25v-.49c0-.13,0-.18.22-.18h.78c.67,0,.78-.27.87-.94.07-.51.11-3.46.11-5.29Zm3.26.92a4.51,4.51,0,0,0,3-.63,3.49,3.49,0,0,0,1.07-2.63,2.85,2.85,0,0,0-.92-2.26,4.28,4.28,0,0,0-2.1-.8c-.47,0-1,0-1,.38S334,50.18,334,52Zm0,5.18c0,2.12.49,3,1.67,3,1.58,0,3.08-.78,3.08-3.57a3.41,3.41,0,0,0-2-3.46,7.31,7.31,0,0,0-2.75-.38Z"/><path class="cls-1" d="M347.09,53.17c0-.54-.07-4.56-.09-4.85,0-.54-.27-.76-.74-.76h-1.07c-.11,0-.18,0-.18-.13v-.65c0-.09.07-.13.16-.13.27,0,1.41.07,3.59.07s3-.07,3.31-.07c.11,0,.16.07.16.2v.56c0,.11-.07.16-.18.16h-.65c-.56,0-.89.18-.89.58,0,.22-.07,5.16-.07,5.43v1.72c0,.22.07,5.38.07,5.58,0,.69.33.8.76.8h.92c.11,0,.18,0,.18.16v.63c0,.09-.07.13-.2.13s-1.16-.07-3.28-.07c-2.35,0-3.31.07-3.55.07s-.18,0-.18-.18v-.6c0-.09.07-.13.18-.13H346c.45,0,.92-.07,1-.6,0-.33.11-5.16.11-6.34Z"/><path class="cls-1" d="M357.36,52.82c0-.83,0-3.55-.07-3.91-.07-1.29-.42-1.34-1.16-1.34h-.71c-.16,0-.16,0-.16-.2v-.51c0-.13,0-.2.18-.2s1.36.07,3.48.07c.72,0,2.05-.07,3.57-.07a8.68,8.68,0,0,1,3.82.6,3.13,3.13,0,0,1,1.72,3c0,1.47-.89,2.9-3.26,3.68v0c2.77.71,4.22,2.05,4.22,4.42a4.09,4.09,0,0,1-1.74,3.39,11.9,11.9,0,0,1-5.25.83l-1.41-.07c-.65,0-1.34-.07-1.76-.07-1.12,0-1.85,0-2.34,0l-.87,0c-.22,0-.25-.07-.25-.25v-.49c0-.13,0-.18.22-.18h.78c.67,0,.78-.27.87-.94.07-.51.11-3.46.11-5.29Zm3.26.92a4.51,4.51,0,0,0,3-.63,3.48,3.48,0,0,0,1.07-2.63,2.86,2.86,0,0,0-.92-2.26,4.29,4.29,0,0,0-2.1-.8c-.47,0-1,0-1,.38s-.07,2.39-.07,4.24Zm0,5.18c0,2.12.49,3,1.68,3,1.59,0,3.08-.78,3.08-3.57a3.41,3.41,0,0,0-2-3.46,7.3,7.3,0,0,0-2.75-.38Z"/><path class="cls-1" d="M376.89,55.54c0,.38,0,5.2.07,6.1h1.27c1,0,2.05,0,3.26-.11s2.72-2.79,3.06-3.62c.07-.13.13-.2.27-.13l.45.18c.07,0,.07.07,0,.2s-1,3.84-1.1,4.44c-.58,0-7-.07-9.06-.07-2.21,0-3,.07-3.3.07s-.18,0-.18-.2v-.56c0-.11,0-.16.16-.16h.69c.82,0,1-.31,1-.56,0-.42.07-6,.07-7.35V52.53c0-1.43,0-3.8-.07-4.15,0-.58-.16-.8-.67-.8H372c-.13,0-.16-.11-.16-.22v-.54c0-.11,0-.16.16-.16s1,.07,3.08.07c2.61,0,3.55-.07,3.75-.07s.2.07.2.22v.51c0,.11,0,.18-.22.18h-1c-.69,0-.78.22-.78.83,0,.29-.07,3.66-.07,5.23Z"/><path class="cls-1" d="M392.9,54a14.62,14.62,0,0,0,2.28-.13,1.84,1.84,0,0,0,1-.69,2.83,2.83,0,0,0,.51-1.38c0-.16.07-.2.18-.2l.6.07c.11,0,.2,0,.18.18a22.27,22.27,0,0,0-.07,2.32c0,1,.09,2.08.13,2.55,0,.13-.07.16-.18.18L397,57c-.09,0-.13,0-.18-.18a6.72,6.72,0,0,0-.45-1.14,1.8,1.8,0,0,0-1.23-.78,15.42,15.42,0,0,0-2.28-.13v1.34c0,1.21.11,3.37.11,3.77,0,1.16.24,1.56.54,1.7a5,5,0,0,0,1.88.2c.38,0,1.32,0,1.79-.07a3.41,3.41,0,0,0,1.7-.74,25.44,25.44,0,0,0,2.28-2.39c.09-.09.16-.11.22-.07l.38.22a.14.14,0,0,1,.09.18l-1,3.37a.47.47,0,0,1-.49.33l-2,0c-1.45,0-3.82,0-7.68,0l-1.9,0-1,0c-.16,0-.2-.07-.2-.25v-.47c0-.13.07-.2.22-.2h.67c1,0,1.12-.16,1.12-.94V53.26c0-1.85,0-4.6-.07-4.82-.09-.71-.31-.87-.92-.87h-.87c-.09,0-.11-.07-.11-.22v-.54a.14.14,0,0,1,.16-.16c.49,0,1.27.07,3.3.07l7.84,0c.36,0,.78,0,.89,0s.16,0,.18.11c.09.31.83,3.37.92,3.59s0,.16-.07.22l-.36.18a.2.2,0,0,1-.27-.09,24.45,24.45,0,0,0-2.63-2.5,3.68,3.68,0,0,0-1.7-.6L393,47.48Z"/><polygon class="cls-1" points="279.48 25.06 283.86 30.22 284.5 29.45 280.25 24.16 284.38 23.51 274.7 17.97 277.28 28.16 279.48 25.06"/><path class="cls-1" d="M324.1,75.11l-8.32-22.33-2-.27-1-4.5A4.76,4.76,0,0,0,316,43.55V4.77A4.77,4.77,0,0,0,311.22,0H249.28a4.77,4.77,0,0,0-4.77,4.77V43.55a4.76,4.76,0,0,0,4.65,4.76l-.9,4.45-3,0L236.4,75.93l41.14,3.34-1.36,10.67,4.34-5.06,3.89,5.06-1.17-10.85ZM250,5.5h60.42V42.81h-1.52a19.11,19.11,0,0,0-9.84-2.1,30.2,30.2,0,0,0-9.8,2.1H272.1a20.18,20.18,0,0,0-8.77-2.19A22.44,22.44,0,0,0,254,42.81H250Zm30,48.83-2.51,18a27.14,27.14,0,0,0-14-6.12,29,29,0,0,0-16.38,2.33l5.89-22c10.22-6.58,21.35-1,27.18,5A26.92,26.92,0,0,1,292.8,44c5.26-1.23,10.91-.74,14.63,1.35l5.87,23.08c-4.49-2.73-11.37-3-16.28-2.25a30.67,30.67,0,0,0-14.91,6.33Z"/></g></g></svg>