<svg xmlns="http://www.w3.org/2000/svg" viewBox="0 0 33.98 27.61"><defs><style>.cls-1{fill:#1da1f2;}</style></defs><title>twitter-icon</title><g id="Layer_2" data-name="Layer 2"><g id="DIELINE"><path class="cls-1" d="M10.69,27.61C23.51,27.61,30.52,17,30.52,7.78c0-.3,0-.6,0-.9A14.39,14.39,0,0,0,34,3.27a14.17,14.17,0,0,1-4,1.1A7,7,0,0,0,33,.51,13.89,13.89,0,0,1,28.61,2.2,7,7,0,0,0,16.73,8.56,19.82,19.82,0,0,1,2.36,1.28a7,7,0,0,0,2.16,9.3,6.87,6.87,0,0,1-3.15-.87.28.28,0,0,0,0,.09A7,7,0,0,0,7,16.63a7,7,0,0,1-1.84.25,7,7,0,0,1-1.31-.13,7,7,0,0,0,6.51,4.84,14,14,0,0,1-8.66,3A13.09,13.09,0,0,1,0,24.48a19.73,19.73,0,0,0,10.69,3.13"/></g></g></svg>