<svg xmlns="http://www.w3.org/2000/svg" viewBox="0 0 39.26 27.61"><defs><style>.cls-1{fill:#fff;}.cls-2{fill:#3c1212;fill-rule:evenodd;opacity:0.12;}.cls-3{fill:#d92632;}</style></defs><title>youtube-icon</title><g id="Layer_2" data-name="Layer 2"><g id="DIELINE"><g id="YouTube_icon" data-name="YouTube icon"><path id="Triangle" class="cls-1" d="M15.58,18.9l10.6-5.5L15.58,7.87Z"/><path id="The_Sharpness" data-name="The Sharpness" class="cls-2" d="M15.58,7.87l9.3,6.21,1.3-.68Z"/><g id="Lozenge"><path class="cls-3" d="M38.87,6s-.39-2.71-1.56-3.9A5.64,5.64,0,0,0,33.37.4C27.88,0,19.64,0,19.64,0h0S11.38,0,5.89.4A5.64,5.64,0,0,0,2,2.06C.78,3.25.39,6,.39,6A59.57,59.57,0,0,0,0,12.31v3a59.57,59.57,0,0,0,.39,6.35S.78,24.35,2,25.54c1.5,1.56,3.46,1.51,4.33,1.68,3.14.3,13.35.39,13.35.39s8.25,0,13.74-.41a5.64,5.64,0,0,0,3.94-1.66c1.17-1.19,1.56-3.9,1.56-3.9a59.57,59.57,0,0,0,.39-6.35v-3A59.57,59.57,0,0,0,38.87,6ZM15.58,18.9v-11L26.18,13.4Z"/></g></g></g></g></svg>